SplineFontDB: 3.0
FontName: LetterGothicCode-B
FullName: Letter Gothic Code Bold
FamilyName: Letter Gothic Code
Weight: Bold
Copyright: (URW)++,Copyright 2014 by (URW)++ Design & Development
Version: 1.00; ttfautohint (v1.6)
ItalicAngle: 0
UnderlinePosition: -567
UnderlineWidth: 143
Ascent: 1626
Descent: 422
InvalidEm: 0
sfntRevision: 0x00010000
LayerCount: 2
Layer: 0 1 "Back" 1
Layer: 1 1 "Fore" 0
XUID: [1021 754 1859939275 14843]
StyleMap: 0x0020
FSType: 0
OS2Version: 1
OS2_WeightWidthSlopeOnly: 0
OS2_UseTypoMetrics: 0
CreationTime: 1456764359
ModificationTime: 1532682716
PfmFamily: 17
TTFWeight: 700
TTFWidth: 5
LineGap: 307
VLineGap: 0
Panose: 2 11 8 9 6 1 1 1 1 1
OS2TypoAscent: 1626
OS2TypoAOffset: 0
OS2TypoDescent: -422
OS2TypoDOffset: 0
OS2TypoLinegap: 0
OS2WinAscent: 1974
OS2WinAOffset: 0
OS2WinDescent: 440
OS2WinDOffset: 0
HheadAscent: 1626
HheadAOffset: 0
HheadDescent: -422
HheadDOffset: 0
OS2SubXSize: 938
OS2SubYSize: 1161
OS2SubXOff: 0
OS2SubYOff: 307
OS2SupXSize: 938
OS2SupYSize: 1161
OS2SupXOff: 0
OS2SupYOff: -521
OS2StrikeYSize: 131
OS2StrikeYPos: 799
OS2FamilyClass: 2057
OS2Vendor: 'URW '
OS2CodePages: 2000009d.00000000
OS2UnicodeRanges: 800002ef.100178ef.00000000.00000000
MarkAttachClasses: 1
DEI: 91125
TtTable: prep
PUSHW_1
 511
SCANCTRL
PUSHB_1
 1
SCANTYPE
SVTCA[y-axis]
MPPEM
PUSHB_1
 8
LT
IF
PUSHB_2
 1
 1
INSTCTRL
EIF
PUSHB_2
 70
 6
CALL
IF
POP
PUSHB_1
 16
EIF
MPPEM
PUSHB_1
 20
GT
IF
POP
PUSHB_1
 128
EIF
SCVTCI
PUSHB_1
 6
CALL
NOT
IF
SVTCA[y-axis]
PUSHB_1
 4
DUP
RCVT
PUSHB_1
 3
CALL
WCVTP
PUSHB_1
 7
DUP
RCVT
PUSHB_3
 4
 15
 2
CALL
PUSHB_1
 3
CALL
WCVTP
PUSHB_1
 6
DUP
RCVT
PUSHB_3
 7
 40
 2
CALL
PUSHB_1
 3
CALL
WCVTP
PUSHB_1
 5
DUP
RCVT
PUSHB_3
 6
 174
 2
CALL
PUSHB_1
 3
CALL
WCVTP
PUSHB_1
 8
DUP
RCVT
PUSHB_3
 4
 138
 2
CALL
PUSHB_1
 3
CALL
WCVTP
SVTCA[x-axis]
PUSHB_1
 9
DUP
RCVT
PUSHB_1
 3
CALL
WCVTP
PUSHB_1
 11
DUP
RCVT
PUSHB_3
 9
 14
 2
CALL
PUSHB_2
 3
 70
SROUND
CALL
WCVTP
PUSHB_1
 10
DUP
RCVT
PUSHB_3
 11
 44
 2
CALL
PUSHB_2
 3
 70
SROUND
CALL

StartChar: .notdef
Encoding: 65536 -1 0
Width: 1120
Flags: W
HStem: 0 102<252 868> 1373 102<252 868>
VStem: 150 102<102 1373> 868 102<102 1373>
LayerCount: 2
Fore
SplineSet
150 0 m 1,0,-1
 150 1475 l 1,1,-1
 970 1475 l 1,2,-1
 970 0 l 1,3,-1
 150 0 l 1,0,-1
252 102 m 1,4,-1
 868 102 l 1,5,-1
 868 1373 l 1,6,-1
 252 1373 l 1,7,-1
 252 102 l 1,4,-1
EndSplineSet
EndChar

StartChar: .null
Encoding: 65537 -1 1
Width: 1120
Flags: W
HStem: -27 223<444.879 581 583 674.905> 1280 223<443.948 675.13>
VStem: 90 236<356.388 1118.63> 794 236<352.93 1119.2>
LayerCount: 2
Fore
SplineSet
115 391 m 0,0,1
 90 525 90 525 90 776.5 c 128,-1,2
 90 1028 90 1028 139 1178 c 128,-1,3
 188 1328 188 1328 298.5 1415.5 c 128,-1,4
 409 1503 409 1503 565 1503 c 0,5,6
 672 1503 672 1503 766 1452 c 0,7,8
 954 1351 954 1351 1006 1084 c 0,9,10
 1030 952 1030 952 1030 700.5 c 128,-1,11
 1030 449 1030 449 981.5 298.5 c 128,-1,12
 933 148 933 148 824 61 c 128,-1,13
 715 -26 715 -26 583 -26 c 1,14,-1
 581 -27 l 1,15,-1
 578 -27 l 2,16,17
 448 -27 448 -27 355 24 c 0,18,19
 164 127 164 127 115 391 c 0,0,1
326 762 m 0,20,21
 326 584 326 584 339 490 c 0,22,23
 365 297 365 297 456 231 c 0,24,25
 504 196 504 196 559 196 c 0,26,27
 644 196 644 196 697 261 c 128,-1,28
 750 326 750 326 772 432 c 128,-1,29
 794 538 794 538 794 715 c 128,-1,30
 794 892 794 892 782 985 c 0,31,32
 756 1179 756 1179 664 1246 c 0,33,34
 616 1280 616 1280 547 1280 c 128,-1,35
 478 1280 478 1280 420 1212 c 0,36,37
 326 1098 326 1098 326 762 c 0,20,21
EndSplineSet
EndChar

StartChar: nonmarkingreturn
Encoding: 65538 -1 2
Width: 1120
Flags: W
HStem: -27 223<444.879 581 583 674.905> 580 361<448.131 684.463> 1280 223<443.948 675.13>
VStem: 90 236<356.388 1118.63> 386 361<641.566 879.048> 794 236<352.93 1119.2>
LayerCount: 2
Fore
SplineSet
115 391 m 0,0,1
 90 525 90 525 90 776.5 c 128,-1,2
 90 1028 90 1028 139 1178 c 128,-1,3
 188 1328 188 1328 298.5 1415.5 c 128,-1,4
 409 1503 409 1503 565 1503 c 0,5,6
 672 1503 672 1503 766 1452 c 0,7,8
 954 1351 954 1351 1006 1084 c 0,9,10
 1030 952 1030 952 1030 700.5 c 128,-1,11
 1030 449 1030 449 981.5 298.5 c 128,-1,12
 933 148 933 148 824 61 c 128,-1,13
 715 -26 715 -26 583 -26 c 1,14,-1
 581 -27 l 1,15,-1
 578 -27 l 2,16,17
 448 -27 448 -27 355 24 c 0,18,19
 164 127 164 127 115 391 c 0,0,1
326 762 m 0,20,21
 326 584 326 584 339 490 c 0,22,23
 365 297 365 297 456 231 c 0,24,25
 504 196 504 196 559 196 c 0,26,27
 644 196 644 196 697 261 c 128,-1,28
 750 326 750 326 772 432 c 128,-1,29
 794 538 794 538 794 715 c 128,-1,30
 794 892 794 892 782 985 c 0,31,32
 756 1179 756 1179 664 1246 c 0,33,34
 616 1280 616 1280 547 1280 c 128,-1,35
 478 1280 478 1280 420 1212 c 0,36,37
 326 1098 326 1098 326 762 c 0,20,21
386 762 m 132,-1,39
 386 837 386 837 439.5 889 c 132,-1,40
 493 941 493 941 567.5 941 c 132,-1,41
 642 941 642 941 694.5 888 c 132,-1,42
 747 835 747 835 747 760 c 132,-1,43
 747 685 747 685 694 632.5 c 132,-1,44
 641 580 641 580 566 580 c 132,-1,45
 491 580 491 580 438 633 c 4,46,38
 386 687 386 687 386 762 c 132,-1,39
EndSplineSet
EndChar

StartChar: exclam
Encoding: 33 33 4
Width: 1120
Flags: W
HStem: -40 352<443.109 676.891>
VStem: 384 352<17.4648 252.891> 429 263<1120.95 1506> 467 195<468 847.527>
LayerCount: 2
Fore
SplineSet
384 136 m 128,-1,1
 384 210 384 210 435.5 261 c 128,-1,2
 487 312 487 312 560.5 312 c 128,-1,3
 634 312 634 312 685 260 c 128,-1,4
 736 208 736 208 736 135 c 128,-1,5
 736 62 736 62 685 11 c 128,-1,6
 634 -40 634 -40 560 -40 c 128,-1,7
 486 -40 486 -40 435 11 c 128,-1,0
 384 62 384 62 384 136 c 128,-1,1
428 1506 m 1,8,-1
 692 1506 l 1,9,-1
 663 498 l 5,10,-1
 662 468 l 5,11,-1
 467 468 l 5,12,-1
 429 1474 l 1,13,-1
 428 1506 l 1,8,-1
EndSplineSet
EndChar

StartChar: quotedbl
Encoding: 34 34 5
Width: 1120
Flags: W
HStem: 894 630<218 444 650 874>
LayerCount: 2
Fore
SplineSet
196 1524 m 1,0,-1
 494 1524 l 1,1,-1
 444 894 l 1,2,-1
 218 894 l 1,3,-1
 196 1524 l 1,0,-1
626 1524 m 1,4,-1
 924 1524 l 1,5,-1
 874 894 l 1,6,-1
 650 894 l 1,7,-1
 626 1524 l 1,4,-1
EndSplineSet
EndChar

StartChar: numbersign
Encoding: 35 35 6
Width: 1120
Flags: W
HStem: 438 193<78 256 792 972> 834 205<148 330 866 1044>
DStem2: 132 -222 342 -222 0.182535 0.983199<38.3323 671.546 867.51 1074.4 1282.53 1928.4> 422 -222 630 -222 0.183537 0.983013<38.1757 710.09 906.419 1112.94 1321.07 1928.4>
LayerCount: 2
Fore
SplineSet
34 438 m 1,0,-1
 74 607 l 1,1,-1
 78 631 l 1,2,-1
 290 631 l 1,3,-1
 330 834 l 1,4,-1
 110 834 l 1,5,-1
 144 1014 l 1,6,-1
 148 1039 l 1,7,-1
 366 1039 l 1,8,-1
 480 1649 l 1,9,-1
 484 1674 l 1,10,-1
 694 1674 l 1,11,-1
 346 -197 l 1,12,-1
 342 -222 l 1,13,-1
 132 -222 l 1,14,-1
 256 438 l 1,15,-1
 34 438 l 1,0,-1
422 -222 m 1,16,-1
 770 1649 l 1,17,-1
 774 1674 l 1,18,-1
 984 1674 l 1,19,-1
 866 1039 l 1,20,-1
 1086 1039 l 1,21,-1
 1044 834 l 1,22,-1
 830 834 l 1,23,-1
 792 631 l 1,24,-1
 1012 631 l 1,25,-1
 972 438 l 1,26,-1
 756 438 l 1,27,-1
 634 -197 l 1,28,-1
 630 -222 l 1,29,-1
 422 -222 l 1,16,-1
EndSplineSet
EndChar

StartChar: dollar
Encoding: 36 36 7
Width: 1120
Flags: W
VStem: 182 214<958.813 1161.09> 471 207<-62 133.195 318 632 930 1179 1362.5 1522> 767 214<344.164 589.003>
LayerCount: 2
Fore
SplineSet
129 309 m 1,0,-1
 262 459 l 1,1,-1
 286 439 l 1,2,3
 411 332 411 332 471 318 c 1,4,-1
 471 706 l 1,5,6
 182 812 182 812 182 1052 c 0,7,8
 182 1194 182 1194 304 1292 c 0,9,10
 385 1357 385 1357 471 1374 c 1,11,-1
 471 1522 l 1,12,-1
 678 1522 l 1,13,-1
 678 1371 l 1,14,15
 830 1344 830 1344 968 1230 c 1,16,-1
 991 1212 l 1,17,-1
 863 1055 l 1,18,-1
 839 1075 l 2,19,20
 825 1086 825 1086 804 1105 c 128,-1,21
 783 1124 783 1124 744.5 1147 c 128,-1,22
 706 1170 706 1170 678 1179 c 1,23,-1
 678 849 l 1,24,25
 761 817 761 817 822 777 c 0,26,27
 981 669 981 669 981 476 c 0,28,29
 981 336 981 336 903 247.5 c 128,-1,30
 825 159 825 159 678 128 c 1,31,-1
 678 -62 l 1,32,-1
 471 -62 l 1,33,-1
 471 126 l 1,34,35
 391 136 391 136 324 166.5 c 128,-1,36
 257 197 257 197 170 274 c 1,37,-1
 129 309 l 1,0,-1
396 1060 m 0,38,39
 396 987 396 987 471 930 c 1,40,-1
 471 1189 l 1,41,42
 452 1178 452 1178 424 1142 c 128,-1,43
 396 1106 396 1106 396 1060 c 0,38,39
678 309 m 1,44,45
 681 311 681 311 695.5 320 c 128,-1,46
 710 329 710 329 738.5 360.5 c 128,-1,47
 767 392 767 392 767 455 c 0,48,49
 767 568 767 568 678 632 c 1,50,-1
 678 309 l 1,44,45
EndSplineSet
EndChar

StartChar: percent
Encoding: 37 37 8
Width: 1120
Flags: W
HStem: -27 21G<33 278> -12 175<766.493 857.922> 518 186<767.341 858.082> 816 186<281.951 371.907> 1346 186<280.23 371.945> 1481 20G<838 1087>
VStem: 51 213<1019.76 1341.17> 388 212<1022.62 1340.36> 538 213<167.645 492.549> 874 213<167.255 512.028>
DStem2: 33 -27 275 -27 0.469268 0.883056<113.563 703.622 864.68 1040.01 1185.42 1728.95>
LayerCount: 2
Fore
SplineSet
807 -12 m 0,0,1
 538 -12 538 -12 538 352 c 0,2,3
 538 432 538 432 552 494 c 1,4,-1
 278 -21 l 1,5,-1
 275 -27 l 1,6,-1
 33 -27 l 1,7,-1
 518 893 l 1,8,9
 442 816 442 816 319 816 c 0,10,11
 51 816 51 816 51 1177 c 0,12,13
 51 1532 51 1532 331 1532 c 0,14,15
 600 1532 600 1532 600 1174 c 0,16,17
 600 1082 600 1082 587 1021 c 1,18,-1
 829 1480 l 1,19,-1
 838 1496 l 1,20,-1
 842 1501 l 1,21,-1
 1087 1501 l 1,22,-1
 628 636 l 1,23,24
 701 704 701 704 817 704 c 0,25,26
 1087 704 1087 704 1087 345 c 0,27,28
 1087 243 1087 243 1071 179 c 128,-1,29
 1055 115 1055 115 1012 71 c 0,30,31
 936 -12 936 -12 807 -12 c 0,0,1
264 1174 m 0,32,33
 264 1054 264 1054 284.5 1028 c 128,-1,34
 305 1002 305 1002 329 1002 c 0,35,36
 388 1002 388 1002 388 1174 c 128,-1,37
 388 1346 388 1346 326 1346 c 128,-1,38
 264 1346 264 1346 264 1174 c 0,32,33
874 340.5 m 128,-1,40
 874 518 874 518 812.5 518 c 128,-1,41
 751 518 751 518 751 340.5 c 128,-1,42
 751 163 751 163 812.5 163 c 128,-1,39
 874 163 874 163 874 340.5 c 128,-1,40
EndSplineSet
EndChar

StartChar: ampersand
Encoding: 38 38 9
Width: 1120
Flags: W
HStem: -69 223<312.164 571.711> 1321 223<394.999 497.348>
VStem: 34 236<194.139 486.806> 136 236<1000.06 1304.43> 509 236<1065.17 1314.94> 718 237<539.344 796>
LayerCount: 2
Fore
SplineSet
761 75 m 1,0,1
 631 -69 631 -69 413 -69 c 0,2,3
 257 -69 257 -69 145.5 29.5 c 128,-1,4
 34 128 34 128 34 306 c 0,5,6
 34 442 34 442 86 548.5 c 128,-1,7
 138 655 138 655 267 809 c 1,8,9
 195 925 195 925 165.5 1000.5 c 128,-1,10
 136 1076 136 1076 136 1172 c 0,11,12
 136 1381 136 1381 283 1485 c 0,13,14
 365 1544 365 1544 457.5 1544 c 128,-1,15
 550 1544 550 1544 627 1482 c 0,16,17
 745 1387 745 1387 745 1213 c 0,18,19
 745 1098 745 1098 701.5 1009.5 c 128,-1,20
 658 921 658 921 553 793 c 1,21,22
 587 726 587 726 604.5 697.5 c 128,-1,23
 622 669 622 669 712 532 c 1,24,25
 718 612 718 612 718 695 c 2,26,-1
 718 796 l 1,27,-1
 957 796 l 1,28,-1
 956 785 l 1,29,-1
 955 753 l 1,30,31
 947 440 947 440 889 277 c 1,32,33
 985 168 985 168 1056 98 c 2,34,-1
 1086 68 l 1,35,-1
 923 -99 l 1,36,-1
 892 -67 l 1,37,38
 814 17 814 17 761 75 c 1,0,1
270 308 m 0,39,40
 270 234 270 234 312 194 c 128,-1,41
 354 154 354 154 425 154 c 0,42,43
 552 154 552 154 630 251 c 1,44,45
 480 472 480 472 396 604 c 1,46,-1
 363 562 l 1,47,48
 270 446 270 446 270 308 c 0,39,40
446 1321 m 128,-1,50
 424 1321 424 1321 398 1281.5 c 128,-1,51
 372 1242 372 1242 372 1163 c 128,-1,52
 372 1084 372 1084 420 994 c 1,53,54
 478 1082 478 1082 493.5 1122 c 128,-1,55
 509 1162 509 1162 509 1212.5 c 128,-1,56
 509 1263 509 1263 488.5 1292 c 128,-1,49
 468 1321 468 1321 446 1321 c 128,-1,50
EndSplineSet
EndChar

StartChar: quotesingle
Encoding: 39 39 10
Width: 1120
Flags: W
HStem: 894 630<446 655>
VStem: 424 272<1303.72 1524>
LayerCount: 2
Fore
SplineSet
424 1524 m 1,0,-1
 696 1524 l 1,1,-1
 655 894 l 1,2,-1
 446 894 l 1,3,-1
 424 1524 l 1,0,-1
EndSplineSet
EndChar

StartChar: parenleft
Encoding: 40 40 11
Width: 1120
Flags: W
VStem: 268 236<411.559 1045.35>
DStem2: 852 1 674 -126 0.815733 -0.578429<-286.726 -4.31597>
LayerCount: 2
Fore
SplineSet
268 730 m 0,0,1
 268 1013 268 1013 376 1231.5 c 128,-1,2
 484 1450 484 1450 649 1569 c 0,3,4
 662 1578 662 1578 695 1602 c 2,5,-1
 720 1620 l 1,6,-1
 729 1626 l 1,7,-1
 844 1470 l 1,8,-1
 850 1461 l 1,9,-1
 820 1436 l 2,10,11
 733 1364 733 1364 689 1314 c 0,12,13
 598 1210 598 1210 551 1057 c 128,-1,14
 504 904 504 904 504 696 c 128,-1,15
 504 488 504 488 590 301 c 0,16,17
 627 217 627 217 674.5 160.5 c 128,-1,18
 722 104 722 104 819 26 c 1,19,-1
 852 1 l 1,20,-1
 729 -165 l 1,21,-1
 674 -126 l 2,22,23
 539 -31 539 -31 460 83 c 0,24,25
 268 363 268 363 268 730 c 0,0,1
EndSplineSet
EndChar

StartChar: parenright
Encoding: 41 41 12
Width: 1120
Flags: W
VStem: 616 236<411.539 1051.08>
LayerCount: 2
Fore
SplineSet
268 1461 m 1,0,-1
 392 1626 l 1,1,-1
 426 1602 l 1,2,3
 539 1521 539 1521 598 1456 c 0,4,5
 722 1316 722 1316 786.5 1124 c 128,-1,6
 851 932 851 932 852 730 c 0,7,8
 852 447 852 447 742.5 227 c 128,-1,9
 633 7 633 7 471 -109 c 2,10,-1
 401 -159 l 1,11,-1
 392 -165 l 1,12,-1
 276 -9 l 1,13,-1
 270 -0 l 1,14,-1
 299 25 l 2,15,16
 312 36 312 36 321 43 c 0,17,18
 422 125 422 125 475 204 c 0,19,20
 615 411 615 411 616 730 c 0,21,22
 616 1124 616 1124 407 1340 c 0,23,24
 374 1374 374 1374 300 1436 c 2,25,-1
 277 1455 l 1,26,-1
 268 1461 l 1,0,-1
EndSplineSet
EndChar

StartChar: asterisk
Encoding: 42 42 13
Width: 1120
Flags: W
VStem: 446 229<1161 1527>
DStem2: 158 665 342 539 0.616234 0.787563<3.53989 361.876> 446 1161 381 950 0.959879 -0.280414<-370.675 -3.22476> 739 950 560 814 0.624021 -0.781407<0 356.739> 675 1161 739 950 0.962936 0.26973<4.71488 370.587>
LayerCount: 2
Fore
SplineSet
24 1050 m 1,0,-1
 87 1254 l 1,1,-1
 90 1265 l 1,2,-1
 446 1161 l 1,3,-1
 446 1527 l 1,4,-1
 675 1527 l 1,5,-1
 675 1161 l 1,6,-1
 991 1254 l 1,7,-1
 1021 1262 l 1,8,-1
 1031 1264 l 1,9,-1
 1093 1061 l 1,10,-1
 1096 1050 l 1,11,-1
 739 950 l 1,12,-1
 954 675 l 1,13,-1
 962 666 l 1,14,-1
 795 537 l 1,15,-1
 786 531 l 1,16,-1
 560 814 l 1,17,-1
 342 539 l 1,18,-1
 335 531 l 1,19,-1
 158 665 l 1,20,-1
 381 950 l 1,21,-1
 24 1050 l 1,0,-1
EndSplineSet
EndChar

StartChar: plus
Encoding: 43 43 14
Width: 1120
Flags: W
HStem: 622 227<18 446 673 1102>
VStem: 446 227<138 622 849 1336>
LayerCount: 2
Fore
SplineSet
18 622 m 1,0,-1
 18 849 l 1,1,-1
 446 849 l 1,2,-1
 446 1336 l 1,3,-1
 673 1336 l 1,4,-1
 673 849 l 1,5,-1
 1102 849 l 1,6,-1
 1102 622 l 1,7,-1
 673 622 l 1,8,-1
 673 138 l 1,9,-1
 446 138 l 1,10,-1
 446 622 l 1,11,-1
 18 622 l 1,0,-1
EndSplineSet
EndChar

StartChar: comma
Encoding: 44 44 15
Width: 1120
Flags: W
HStem: -275 171<383 446.167>
VStem: 383 358<26.6016 247.341>
LayerCount: 2
Fore
SplineSet
463 1 m 2,0,1
 379 44 379 44 379 135 c 128,-1,2
 379 226 379 226 435.5 271 c 128,-1,3
 492 316 492 316 562 316 c 128,-1,4
 632 316 632 316 686.5 258.5 c 128,-1,5
 741 201 741 201 741 100.5 c 128,-1,6
 741 0 741 0 650 -90 c 0,7,8
 487 -249 487 -249 383 -275 c 1,9,-1
 383 -104 l 5,10,11
 469 -50 469 -50 493 -14 c 5,12,-1
 463 1 l 2,0,1
EndSplineSet
EndChar

StartChar: hyphen
Encoding: 45 45 16
Width: 1120
Flags: W
HStem: 626 215<251.5 868.5>
VStem: 251.5 617<626 841>
LayerCount: 2
Fore
SplineSet
251.5 626 m 1,0,-1
 251.5 841 l 1,1,-1
 868.5 841 l 1,2,-1
 868.5 626 l 1,3,-1
 251.5 626 l 1,0,-1
EndSplineSet
EndChar

StartChar: period
Encoding: 46 46 17
Width: 1120
Flags: W
HStem: -44 360<442.542 677.458>
VStem: 380 360<16.8405 253.458>
LayerCount: 2
Fore
SplineSet
380 136 m 128,-1,1
 380 211 380 211 433 263.5 c 128,-1,2
 486 316 486 316 560.5 316 c 128,-1,3
 635 316 635 316 687.5 262.5 c 128,-1,4
 740 209 740 209 740 135 c 128,-1,5
 740 61 740 61 687.5 8.5 c 128,-1,6
 635 -44 635 -44 560 -44 c 128,-1,7
 485 -44 485 -44 432.5 8.5 c 128,-1,0
 380 61 380 61 380 136 c 128,-1,1
EndSplineSet
EndChar

StartChar: slash
Encoding: 47 47 18
Width: 1120
Flags: W
DStem2: 114 -95 356 -88 0.3656 0.930772<87.7441 1788.84>
LayerCount: 2
Fore
SplineSet
114 -95 m 1,0,-1
 765 1563 l 1,1,-1
 768 1570 l 1,2,-1
 1006 1570 l 1,3,-1
 356 -88 l 1,4,-1
 354 -95 l 1,5,-1
 114 -95 l 1,0,-1
EndSplineSet
EndChar

StartChar: zero
Encoding: 48 48 19
Width: 1120
Flags: W
HStem: -27 223<444.879 581 583 674.905> 548 361<447.988 684.463> 1280 223<443.948 675.13>
VStem: 90 236<356.388 1118.63> 386 361<609.566 847.048> 794 236<352.93 1119.2>
LayerCount: 2
Fore
SplineSet
115 391 m 0,0,1
 90 525 90 525 90 776.5 c 128,-1,2
 90 1028 90 1028 139 1178 c 128,-1,3
 188 1328 188 1328 298.5 1415.5 c 128,-1,4
 409 1503 409 1503 565 1503 c 0,5,6
 672 1503 672 1503 766 1452 c 0,7,8
 954 1351 954 1351 1006 1084 c 0,9,10
 1030 952 1030 952 1030 700.5 c 128,-1,11
 1030 449 1030 449 981.5 298.5 c 128,-1,12
 933 148 933 148 824 61 c 128,-1,13
 715 -26 715 -26 583 -26 c 1,14,-1
 581 -27 l 1,15,-1
 578 -27 l 2,16,17
 448 -27 448 -27 355 24 c 0,18,19
 164 127 164 127 115 391 c 0,0,1
326 762 m 0,20,21
 326 584 326 584 339 490 c 0,22,23
 365 297 365 297 456 231 c 0,24,25
 504 196 504 196 559 196 c 0,26,27
 644 196 644 196 697 261 c 128,-1,28
 750 326 750 326 772 432 c 128,-1,29
 794 538 794 538 794 715 c 128,-1,30
 794 892 794 892 782 985 c 0,31,32
 756 1179 756 1179 664 1246 c 0,33,34
 616 1280 616 1280 547 1280 c 128,-1,35
 478 1280 478 1280 420 1212 c 0,36,37
 326 1098 326 1098 326 762 c 0,20,21
386 730 m 132,-1,39
 386 805 386 805 439.5 857 c 132,-1,40
 493 909 493 909 567.5 909 c 132,-1,41
 642 909 642 909 694.5 856 c 132,-1,42
 747 803 747 803 747 728 c 132,-1,43
 747 653 747 653 694 600.5 c 132,-1,44
 641 548 641 548 566 548 c 4,45,46
 489 548 489 548 438 601 c 4,47,38
 386 655 386 655 386 730 c 132,-1,39
EndSplineSet
EndChar

StartChar: one
Encoding: 49 49 20
Width: 1120
Flags: W
HStem: 0 215<178 460 690 956> 1108 216<164 380> 1456 20G<620.789 690>
VStem: 460 230<215 1193>
LayerCount: 2
Fore
SplineSet
164 1108 m 1,0,-1
 164 1324 l 1,1,-1
 690 1476 l 5,2,-1
 690 215 l 1,3,-1
 956 215 l 1,4,-1
 956 0 l 1,5,-1
 178 0 l 1,6,-1
 178 215 l 1,7,-1
 460 215 l 1,8,-1
 460 1193 l 1,9,-1
 164 1108 l 1,0,-1
EndSplineSet
EndChar

StartChar: two
Encoding: 50 50 21
Width: 1120
Flags: W
HStem: 0 215<351 1014> 1279 224<455.253 723.327>
VStem: 772 236<981.297 1230.65>
DStem2: 475.5 744.5 503 488 0.7511 0.660189<-352.839 422.548>
LayerCount: 2
Fore
SplineSet
106 0 m 1,0,-1
 106 103 l 2,1,2
 106 371 106 371 252 536 c 0,3,4
 328 621 328 621 475.5 744.5 c 128,-1,5
 623 868 623 868 660 902 c 0,6,7
 772 1007 772 1007 772 1114 c 0,8,9
 772 1188 772 1188 726 1233.5 c 128,-1,10
 680 1279 680 1279 584.5 1279 c 0,11,12
 392.606060606 1279 392.606060606 1279 367 1019 c 1,13,-1
 364 991 l 1,14,-1
 363 981 l 1,15,-1
 127 981 l 1,16,-1
 129 993 l 1,17,-1
 133 1028 l 2,18,19
 150 1168 150 1168 191.5 1260.5 c 128,-1,20
 233 1353 233 1353 319 1418 c 0,21,22
 434 1503 434 1503 612.5 1503 c 128,-1,23
 791 1503 791 1503 899.5 1397 c 128,-1,24
 1008 1291 1008 1291 1008 1118.5 c 128,-1,25
 1008 946 1008 946 850 793 c 0,26,27
 800 745 800 745 669.5 633.5 c 128,-1,28
 539 522 539 522 503 488 c 0,29,30
 406 400 406 400 372 308 c 0,31,32
 359 271 359 271 351 215 c 1,33,-1
 1014 215 l 1,34,-1
 1014 0 l 1,35,-1
 106 0 l 1,0,-1
EndSplineSet
EndChar

StartChar: three
Encoding: 51 51 22
Width: 1120
Flags: W
HStem: -27 223<406.977 736.402> 679 208<442 662.754> 1280 223<409.292 690.671>
VStem: 763 236<978.453 1208.54> 829 236<287.232 570.325>
LayerCount: 2
Fore
SplineSet
55 311 m 1,0,-1
 255 427 l 1,1,-1
 265 432 l 1,2,-1
 286 393 l 2,3,4
 294 377 294 377 298 366 c 0,5,6
 383 196 383 196 562 196 c 0,7,8
 699 196 699 196 764 263 c 128,-1,9
 829 330 829 330 829 435.5 c 128,-1,10
 829 541 829 541 750 610 c 128,-1,11
 671 679 671 679 532 679 c 2,12,-1
 442 679 l 1,13,-1
 442 887 l 1,14,-1
 452 887 l 1,15,-1
 481 888 l 2,16,17
 497 889 497 889 509 889 c 0,18,19
 594 891 594 891 657 928 c 0,20,21
 763 990 763 990 763 1095 c 0,22,23
 763 1155 763 1155 723 1204 c 0,24,25
 661 1280 661 1280 540 1280 c 128,-1,26
 419 1280 419 1280 331 1154 c 0,27,28
 324 1144 324 1144 298 1099 c 2,29,-1
 277 1063 l 1,30,-1
 87 1171 l 1,31,-1
 78 1177 l 1,32,-1
 99 1214 l 1,33,34
 138 1278 138 1278 159 1306 c 0,35,36
 217 1383 217 1383 318.5 1443 c 128,-1,37
 420 1503 420 1503 558 1503 c 0,38,39
 764 1503 764 1503 894 1362 c 0,40,41
 999 1251 999 1251 999 1102 c 0,42,43
 999 995 999 995 956 928 c 128,-1,44
 913 861 913 861 844 806 c 1,45,46
 1065 681 1065 681 1065 429 c 0,47,48
 1065 242 1065 242 941 117 c 0,49,50
 799 -27 799 -27 553 -27 c 128,-1,51
 307 -27 307 -27 145 180 c 0,52,53
 122 209 122 209 80 274 c 1,54,-1
 55 311 l 1,0,-1
EndSplineSet
EndChar

StartChar: four
Encoding: 52 52 23
Width: 1120
Flags: W
HStem: 0 21G<635 865> 316 215<327 635 865 1078> 1458 20G<594.865 865>
VStem: 635 230<0 316 531 1111>
DStem2: 42 465 327 531 0.486448 0.873709<196.303 852.88>
LayerCount: 2
Fore
SplineSet
42 316 m 5,0,-1
 42 465 l 5,1,-1
 606 1478 l 5,2,-1
 865 1478 l 5,3,-1
 865 531 l 5,4,-1
 1078 531 l 5,5,-1
 1078 316 l 5,6,-1
 865 316 l 5,7,-1
 865 0 l 1,8,-1
 635 0 l 1,9,-1
 635 316 l 5,10,-1
 42 316 l 5,0,-1
327 531 m 5,11,-1
 635 531 l 5,12,-1
 635 1111 l 5,13,-1
 327 531 l 5,11,-1
EndSplineSet
EndChar

StartChar: five
Encoding: 53 53 24
Width: 1120
Flags: W
HStem: -27 223<419.359 687.861> 743 223<446.83 695.42> 1260 215<406 935>
VStem: 789 236<297.611 643.306>
DStem2: 129 624 375 914 0.0782374 0.996935<308.357 655.722>
LayerCount: 2
Fore
SplineSet
95 273 m 1,0,-1
 271 401 l 1,1,-1
 280 408 l 1,2,-1
 305 371 l 2,3,4
 342 315 342 315 362 291 c 0,5,6
 449 196 449 196 546.5 196 c 128,-1,7
 644 196 644 196 716.5 263.5 c 128,-1,8
 789 331 789 331 789 473.5 c 128,-1,9
 789 616 789 616 705 691 c 0,10,11
 646 743 646 743 570 743 c 0,12,13
 455 743 455 743 361 605 c 1,14,-1
 345 582 l 1,15,-1
 129 624 l 1,16,-1
 193 1436 l 1,17,-1
 195 1465 l 1,18,-1
 195 1475 l 1,19,-1
 935 1475 l 1,20,-1
 935 1260 l 1,21,-1
 406 1260 l 1,22,-1
 375 914 l 1,23,24
 467 966 467 966 576 966 c 0,25,26
 768 966 768 966 896.5 832 c 128,-1,27
 1025 698 1025 698 1025 462.5 c 128,-1,28
 1025 227 1025 227 857 82 c 0,29,30
 728 -27 728 -27 537.5 -27 c 128,-1,31
 347 -27 347 -27 186 152 c 0,32,33
 159 184 159 184 120 240 c 1,34,-1
 102 265 l 1,35,-1
 95 273 l 1,0,-1
EndSplineSet
EndChar

StartChar: six
Encoding: 54 54 25
Width: 1120
Flags: W
HStem: -27 223<431.507 687.68> 759 223<460.861 710.135> 1280 223<544.934 830.504>
VStem: 91 250<298.694 780.75> 791 236<307.611 673.121>
LayerCount: 2
Fore
SplineSet
339 895 m 1,0,1
 456.705882353 982 456.705882353 982 595 982 c 0,2,3
 781 982 781 982 904 849.5 c 128,-1,4
 1027 717 1027 717 1027 496 c 0,5,6
 1027 224.11965812 1027 224.11965812 840.5 69.5 c 0,7,8
 724.103092784 -27 724.103092784 -27 549.551546392 -27 c 128,-1,9
 375 -27 375 -27 257 91 c 0,10,11
 172 176 172 176 131.5 311.5 c 128,-1,12
 91 447 91 447 91 669.5 c 128,-1,13
 91 892 91 892 168 1089 c 0,14,15
 270 1348 270 1348 472 1450 c 0,16,17
 576 1503 576 1503 698.5 1503 c 128,-1,18
 821 1503 821 1503 946 1434 c 1,19,-1
 1019 1393 l 1,20,-1
 1029 1387 l 1,21,-1
 914 1186 l 1,22,-1
 877 1209 l 1,23,24
 801 1255 801 1255 767 1267.5 c 128,-1,25
 733 1280 733 1280 690 1280 c 0,26,27
 596 1280 596 1280 512.5 1212.5 c 128,-1,28
 429 1145 429 1145 370 1000 c 0,29,30
 350 944 350 944 339 895 c 1,0,1
435 695 m 0,31,32
 341 611 341 611 341 478.5 c 128,-1,33
 341 346 341 346 401.5 271 c 128,-1,34
 462 196 462 196 554.5 196 c 128,-1,35
 647 196 647 196 709 258 c 0,36,37
 791 340 791 340 791 494 c 128,-1,38
 791 648 791 648 710 716 c 0,39,40
 659 759 659 759 583 759 c 128,-1,41
 507 759 507 759 435 695 c 0,31,32
EndSplineSet
EndChar

StartChar: seven
Encoding: 55 55 26
Width: 1120
Flags: W
HStem: 0 21G<161 414> 1260 215<94 703>
DStem2: 161 0 414 7 0.384794 0.923002<96.5833 1371.54>
LayerCount: 2
Fore
SplineSet
94 1260 m 1,0,-1
 94 1475 l 1,1,-1
 1026 1475 l 1,2,-1
 414 7 l 1,3,-1
 412 0 l 1,4,-1
 161 0 l 1,5,-1
 703 1260 l 1,6,-1
 94 1260 l 1,0,-1
EndSplineSet
EndChar

StartChar: eight
Encoding: 56 56 27
Width: 1120
Flags: W
HStem: -27 223<381.98 739.23> 657 219<404.688 716.031> 1280 223<407.072 716.997>
VStem: 47 236<286.407 568.528> 98 236<945.562 1207.78> 786 236<942.597 1212.57> 837 236<286.219 566.148>
LayerCount: 2
Fore
SplineSet
562 -27 m 0,0,1
 341 -27 341 -27 194 87.5 c 128,-1,2
 47 202 47 202 47 430.5 c 128,-1,3
 47 659 47 659 236 777 c 1,4,5
 98 892 98 892 98 1088 c 128,-1,6
 98 1284 98 1284 232 1393.5 c 128,-1,7
 366 1503 366 1503 562 1503 c 128,-1,8
 758 1503 758 1503 890 1392 c 128,-1,9
 1022 1281 1022 1281 1022 1087.5 c 128,-1,10
 1022 894 1022 894 884 777 c 1,11,12
 1073 661 1073 661 1073 418 c 0,13,14
 1073 133 1073 133 816 24 c 0,15,16
 696 -27 696 -27 562 -27 c 0,0,1
283 427.5 m 128,-1,18
 283 311 283 311 361 253.5 c 128,-1,19
 439 196 439 196 560 196 c 128,-1,20
 681 196 681 196 759 253.5 c 128,-1,21
 837 311 837 311 837 427.5 c 128,-1,22
 837 544 837 544 758 600.5 c 128,-1,23
 679 657 679 657 560.5 657 c 128,-1,24
 442 657 442 657 362.5 600.5 c 128,-1,17
 283 544 283 544 283 427.5 c 128,-1,18
334 1071 m 0,25,26
 334 975 334 975 397.5 925.5 c 128,-1,27
 461 876 461 876 561 876 c 128,-1,28
 661 876 661 876 723.5 925.5 c 128,-1,29
 786 975 786 975 786 1078.5 c 128,-1,30
 786 1182 786 1182 724 1231 c 0,31,32
 661 1280 661 1280 560 1280 c 0,33,34
 405 1280 405 1280 353 1167 c 0,35,36
 334 1121 334 1121 334 1071 c 0,25,26
EndSplineSet
EndChar

StartChar: nine
Encoding: 57 57 28
Width: 1120
Flags: W
HStem: -27 223<290.502 574.213> 493 223<411.243 658.631> 1280 223<431.429 686.977>
VStem: 92 236<801.211 1167.21> 780 250<838.75 1175.31>
LayerCount: 2
Fore
SplineSet
90 90 m 1,0,-1
 200 281 l 1,1,-1
 206 290 l 1,2,-1
 243 267 l 2,3,4
 357 196 357 196 440.5 196 c 128,-1,5
 524 196 524 196 608.5 264.5 c 128,-1,6
 693 333 693 333 751 477 c 0,7,8
 772 533 772 533 782 580 c 1,9,10
 664 493 664 493 501 493 c 128,-1,11
 338 493 338 493 215 626 c 0,12,13
 92 756.935483871 92 756.935483871 92 957.467741935 c 128,-1,14
 92 1158 92 1158 175 1286 c 0,15,16
 313 1503 313 1503 564 1503 c 0,17,18
 745 1503 745 1503 863 1384 c 0,19,20
 1030 1218 1030 1218 1030 847 c 0,21,22
 1030 582 1030 582 953 387 c 0,23,24
 850 129 850 129 649 26 c 0,25,26
 544 -27 544 -27 417 -27 c 128,-1,27
 290 -27 290 -27 125 69 c 1,28,-1
 99 85 l 1,29,-1
 90 90 l 1,0,-1
411 1218 m 0,30,31
 328 1136 328 1136 328 981.5 c 128,-1,32
 328 827 328 827 410 760 c 0,33,34
 461 716 461 716 537 716 c 128,-1,35
 613 716 613 716 685 781 c 0,36,37
 780 866 780 866 780 998.5 c 128,-1,38
 780 1131 780 1131 718.5 1205.5 c 128,-1,39
 657 1280 657 1280 565 1280 c 128,-1,40
 473 1280 473 1280 411 1218 c 0,30,31
EndSplineSet
EndChar

StartChar: colon
Encoding: 58 58 29
Width: 1120
Flags: W
HStem: -44 360<442.542 677.458> 645 360<442.542 677.458>
VStem: 380 360<16.8405 253.458 705.84 942.458>
LayerCount: 2
Fore
SplineSet
380 136 m 128,-1,1
 380 211 380 211 433 263.5 c 128,-1,2
 486 316 486 316 560.5 316 c 128,-1,3
 635 316 635 316 687.5 262.5 c 128,-1,4
 740 209 740 209 740 135 c 128,-1,5
 740 61 740 61 687.5 8.5 c 128,-1,6
 635 -44 635 -44 560 -44 c 128,-1,7
 485 -44 485 -44 432.5 8.5 c 128,-1,0
 380 61 380 61 380 136 c 128,-1,1
380 825 m 128,-1,9
 380 900 380 900 433 952.5 c 128,-1,10
 486 1005 486 1005 560.5 1005 c 128,-1,11
 635 1005 635 1005 687.5 951.5 c 128,-1,12
 740 898 740 898 740 824 c 128,-1,13
 740 750 740 750 687.5 697.5 c 128,-1,14
 635 645 635 645 560 645 c 128,-1,15
 485 645 485 645 432.5 697.5 c 128,-1,8
 380 750 380 750 380 825 c 128,-1,9
EndSplineSet
EndChar

StartChar: semicolon
Encoding: 59 59 30
Width: 1120
Flags: W
HStem: 645 360<441.542 676.458>
VStem: 379 360<28.9844 249.111 705.84 942.458>
LayerCount: 2
Fore
SplineSet
463 1 m 2,0,1
 379 44 379 44 379 135 c 128,-1,2
 379 226 379 226 435.5 271 c 128,-1,3
 492 316 492 316 562 316 c 128,-1,4
 632 316 632 316 686.5 258.5 c 128,-1,5
 741 201 741 201 741 97 c 128,-1,6
 741 -7 741 -7 650 -90 c 4,7,8
 490 -234 490 -234 383 -275 c 1,9,-1
 383 -104 l 5,10,11
 452 -68 452 -68 493 -14 c 1,12,-1
 463 1 l 2,0,1
379 825 m 128,-1,14
 379 900 379 900 432 952.5 c 128,-1,15
 485 1005 485 1005 559.5 1005 c 128,-1,16
 634 1005 634 1005 686.5 951.5 c 128,-1,17
 739 898 739 898 739 824 c 128,-1,18
 739 750 739 750 686.5 697.5 c 128,-1,19
 634 645 634 645 559 645 c 128,-1,20
 484 645 484 645 431.5 697.5 c 128,-1,13
 379 750 379 750 379 825 c 128,-1,14
EndSplineSet
EndChar

StartChar: less
Encoding: 60 60 31
Width: 1120
Flags: W
VStem: 64 274<416 826>
DStem2: 64 689 338 621 0.909989 0.414632<221.142 1005.95> 338 621 70 550 0.914807 -0.403891<0 784.865>
LayerCount: 2
Fore
SplineSet
64 553 m 1,0,-1
 64 689 l 1,1,-1
 1056 1141 l 1,2,-1
 1056 938 l 1,3,-1
 338 621 l 1,4,-1
 1056 304 l 1,5,-1
 1056 100 l 1,6,-1
 70 550 l 1,7,-1
 64 553 l 1,0,-1
EndSplineSet
EndChar

StartChar: equal
Encoding: 61 61 32
Width: 1120
Flags: W
HStem: 267 205<28 1092> 732 205<28 1092>
LayerCount: 2
Fore
SplineSet
28 267 m 5,0,-1
 28 472 l 5,1,-1
 1092 472 l 5,2,-1
 1092 267 l 5,3,-1
 28 267 l 5,0,-1
28 732 m 1,4,-1
 28 937 l 1,5,-1
 1092 937 l 1,6,-1
 1092 732 l 1,7,-1
 28 732 l 1,4,-1
EndSplineSet
EndChar

StartChar: greater
Encoding: 62 62 33
Width: 1120
Flags: W
VStem: 782 274<416 826>
DStem2: 64 1141 64 938 0.909989 -0.414632<84.1703 868.981> 64 304 64 100 0.909643 0.415391<0 784.803>
LayerCount: 2
Fore
SplineSet
64 100 m 1,0,-1
 64 304 l 1,1,-1
 782 621 l 1,2,-1
 64 938 l 1,3,-1
 64 1141 l 1,4,-1
 1050 692 l 1,5,-1
 1056 689 l 1,6,-1
 1056 553 l 1,7,-1
 64 100 l 1,0,-1
EndSplineSet
EndChar

StartChar: question
Encoding: 63 63 34
Width: 1120
Flags: W
HStem: -50 372<454.349 694.149> 1101 21G<146.249 396.249> 1321 223<441.957 684.306>
VStem: 388.249 372<14.3359 255.9> 450.249 229<460 699.434> 738.249 235.5<1025.45 1267.87>
LayerCount: 2
Fore
SplineSet
152.249023438 1172 m 2,0,-1
 152.249023438 1176 l 1,1,2
 162 1284 162 1284 216.249023438 1366 c 0,3,4
 332 1544 332 1544 564.249023438 1544 c 0,5,6
 742 1544 742 1544 857.749023438 1436 c 0,7,8
 973 1328 973 1328 973.749023438 1147.5 c 0,9,10
 974 963 974 963 866.249023438 855 c 0,11,12
 840 829 840 829 767.749023438 773.5 c 0,13,14
 695 718 695 718 687.196289062 700 c 0,15,16
 679 682 679 682 679.143554688 650.579101562 c 0,17,18
 679 619 679 619 679.249023438 612 c 2,19,-1
 679.249023438 460 l 5,20,-1
 450.249023438 460 l 5,21,-1
 450.249023438 684 l 2,22,23
 450 773 450 773 488.249023438 826.5 c 0,24,25
 526 880 526 880 606.249023438 941 c 0,26,27
 690 1005 690 1005 704.249023438 1024 c 0,28,29
 738 1070 738 1070 738.249023438 1151.5 c 0,30,31
 738 1231 738 1231 686.249023438 1276 c 0,32,33
 634 1321 634 1321 567.249023438 1321 c 0,34,35
 500 1321 500 1321 460.249023438 1292 c 0,36,37
 420 1263 420 1263 411.249023438 1227 c 0,38,39
 401.491330126 1187.01344698 401.491330126 1187.01344698 398.249023438 1140 c 2,40,-1
 396.249023438 1111 l 1,41,-1
 394.249023438 1101 l 1,42,-1
 146.249023438 1101 l 1,43,-1
 148.249023438 1113 l 1,44,-1
 150.249023438 1147 l 2,45,46
 151 1160 151 1160 152.249023438 1172 c 2,0,-1
388.249023438 136 m 128,-1,48
 388.249023438 214 388.249023438 214 443.249023438 268 c 128,-1,49
 498.249023438 322 498.249023438 322 575.249023438 322 c 128,-1,50
 652.249023438 322 652.249023438 322 706.249023438 267 c 128,-1,51
 760.249023438 212 760.249023438 212 760.249023438 135 c 128,-1,52
 760.249023438 58 760.249023438 58 706.249023438 4 c 128,-1,53
 652.249023438 -50 652.249023438 -50 574.249023438 -50 c 128,-1,54
 496.249023438 -50 496.249023438 -50 442.249023438 4 c 128,-1,47
 388.249023438 58 388.249023438 58 388.249023438 136 c 128,-1,48
EndSplineSet
EndChar

StartChar: at
Encoding: 64 64 35
Width: 1120
Flags: W
HStem: -58 212<402.982 723.956> 1332 201<473.29 719.945>
VStem: 41 214<326.125 981.658> 285 214<534.182 798.013> 878 201<590.062 1135.77>
LayerCount: 2
Fore
SplineSet
41 614 m 128,-1,1
 41 985 41 985 193 1262 c 0,2,3
 256 1377 256 1377 363.5 1455 c 128,-1,4
 471 1533 471 1533 589 1533 c 128,-1,5
 707 1533 707 1533 805 1474.5 c 128,-1,6
 903 1416 903 1416 969 1314 c 0,7,8
 1079 1146 1079 1146 1079 900.5 c 128,-1,9
 1079 655 1079 655 1007 510 c 0,10,11
 920 336 920 336 779 336 c 0,12,13
 686 336 686 336 628 408 c 1,14,15
 551 327 551 327 464.5 327 c 128,-1,16
 378 327 378 327 325 413 c 0,17,18
 285 475 285 475 285 568.5 c 128,-1,19
 285 662 285 662 319 774 c 128,-1,20
 353 886 353 886 403 953 c 0,21,22
 496 1074 496 1074 701 1074 c 0,23,24
 724 1074 724 1074 787 1071 c 2,25,-1
 821 1069 l 1,26,-1
 776 681 l 2,27,28
 771 639 771 639 771 595.5 c 128,-1,29
 771 552 771 552 784 539 c 0,30,31
 785 537 785 537 786 537 c 2,32,-1
 787 537 l 2,33,34
 805 537 805 537 821 565 c 0,35,36
 878 665 878 665 878 851 c 128,-1,37
 878 1037 878 1037 833 1138.5 c 128,-1,38
 788 1240 788 1240 709 1296 c 0,39,40
 658 1332 658 1332 601 1332 c 0,41,42
 500 1332 500 1332 416 1233 c 0,43,44
 255 1045 255 1045 255 598 c 0,45,46
 255 595 255 595 255 592 c 0,47,48
 255 311 255 311 381 214 c 0,49,50
 454 154 454 154 541 154 c 128,-1,51
 628 154 628 154 699 185.5 c 128,-1,52
 770 217 770 217 872 303 c 1,53,-1
 905 330 l 1,54,-1
 976 155 l 1,55,-1
 984 133 l 1,56,-1
 966 119 l 1,57,58
 743 -58 743 -58 525 -58 c 0,59,60
 356 -58 356 -58 229 64 c 0,61,0
 41 243 41 243 41 614 c 128,-1,1
499 609 m 128,-1,63
 499 547 499 547 503.5 539 c 128,-1,64
 508 531 508 531 509 529 c 1,65,66
 513 531 513 531 528.5 547 c 128,-1,67
 544 563 544 563 554.5 598.5 c 128,-1,68
 565 634 565 634 586 775 c 1,69,-1
 598 860 l 1,70,71
 578 852 578 852 565.5 840.5 c 128,-1,72
 553 829 553 829 526 750 c 128,-1,62
 499 671 499 671 499 609 c 128,-1,63
EndSplineSet
EndChar

StartChar: A
Encoding: 65 65 36
Width: 1120
Flags: W
HStem: 0 21G<-20 234 882.917 1140> 434 173<426 694>
DStem2: 560 1601 560 1024 0.340611 0.940204<-1463.49 -1164.32 -980.205 -542.498> 560 1601 560 1024 0.340125 -0.94038<542.599 980.315 1164.43 1474.46> 1134 14 694 607 0.340125 -0.94038<-1145.02 -707.3 -523.187 -523.187>
LayerCount: 2
Fore
SplineSet
-20 0 m 1,0,-1
 560 1601 l 1,1,-1
 1134 14 l 1,2,-1
 1140 0 l 1,3,-1
 889 0 l 1,4,-1
 757 434 l 1,5,-1
 363 434 l 1,6,-1
 234 8 l 1,7,-1
 231 0 l 1,8,-1
 -20 0 l 1,0,-1
426 607 m 1,9,-1
 694 607 l 1,10,-1
 560 1024 l 1,11,-1
 426 607 l 1,9,-1
EndSplineSet
EndChar

StartChar: B
Encoding: 66 66 37
Width: 1120
Flags: W
HStem: 0 215<339 704.498> 657 215<339 625.32> 1260 215<339 667.055>
VStem: 103 236<215 657 872 1260> 722 236<958.496 1206.6> 784 236<292.983 557.379>
LayerCount: 2
Fore
SplineSet
100 0 m 1,0,-1
 100 42 l 2,1,2
 100 53 100 53 103 96 c 1,3,-1
 110 446 l 1,4,-1
 110 1027 l 1,5,-1
 103 1379 l 1,6,7
 100 1421 100 1421 100 1433 c 2,8,-1
 100 1475 l 1,9,-1
 416 1475 l 2,10,11
 554 1475 554 1475 628 1464 c 0,12,13
 789 1440 789 1440 873.5 1328.5 c 128,-1,14
 958 1217 958 1217 958 1079 c 0,15,16
 958 911 958 911 810 785 c 1,17,18
 896 736 896 736 957.5 644 c 128,-1,19
 1019 552 1019 552 1020 426 c 0,20,21
 1020 188 1020 188 824 66 c 0,22,23
 712 0 712 0 534 0 c 2,24,-1
 100 0 l 1,0,-1
339 215 m 1,25,-1
 532 215 l 2,26,27
 612 215 612 215 663 235 c 128,-1,28
 714 255 714 255 749 302.5 c 128,-1,29
 784 350 784 350 784 416 c 0,30,31
 784 543 784 543 685 606 c 0,32,33
 639 637 639 637 599.5 647 c 128,-1,34
 560 657 560 657 478 657 c 2,35,-1
 339 657 l 1,36,-1
 339 215 l 1,25,-1
339 872 m 1,37,-1
 440 872 l 2,38,39
 541 872 541 872 612 908 c 0,40,41
 722 964 722 964 722 1077.5 c 128,-1,42
 722 1191 722 1191 639 1235 c 0,43,44
 592 1260 592 1260 454 1260 c 2,45,-1
 339 1260 l 1,46,-1
 339 872 l 1,37,-1
EndSplineSet
EndChar

StartChar: C
Encoding: 67 67 38
Width: 1120
Flags: W
HStem: -27 223<453.962 731.076> 1279 224<462.781 733.938>
VStem: 79 236<388.361 1081.06>
LayerCount: 2
Fore
SplineSet
589 -27 m 0,0,1
 79 -27 79 -27 79 721 c 0,2,3
 79 1195 79 1195 271 1377 c 0,4,5
 404 1503 404 1503 595 1503 c 128,-1,6
 786 1503 786 1503 902 1385 c 0,7,8
 999 1287 999 1287 1015 1157 c 0,9,10
 1017 1143 1017 1143 1020 1113 c 2,11,-1
 1024 1067 l 1,12,-1
 789 1067 l 1,13,-1
 788 1077 l 1,14,-1
 786 1106 l 2,15,16
 774.204545455 1279 774.204545455 1279 606 1279 c 0,17,18
 476 1279 476 1279 404 1175 c 0,19,20
 315 1047 315 1047 315 729 c 128,-1,21
 315 411 315 411 408 286 c 0,22,23
 475 196 475 196 593 196 c 0,24,25
 659 196 659 196 708.5 224.5 c 128,-1,26
 758 253 758 253 782 302 c 0,27,28
 797 331 797 331 806 410 c 2,29,-1
 809 437 l 1,30,-1
 810 447 l 1,31,-1
 1041 447 l 1,32,-1
 1040 435 l 1,33,-1
 1036 400 l 1,34,35
 1017 260 1017 260 976 179.5 c 128,-1,36
 935 99 935 99 837.5 36 c 128,-1,37
 740 -27 740 -27 589 -27 c 0,0,1
EndSplineSet
EndChar

StartChar: D
Encoding: 68 68 39
Width: 1120
Flags: W
HStem: 0 215<333 659.949> 1260 215<333 659.453>
VStem: 104 229<215 1260> 790 236<369.367 1105.4>
LayerCount: 2
Fore
SplineSet
94 0 m 1,0,-1
 94 42 l 2,1,2
 94 53 94 53 96 96 c 1,3,-1
 104 447 l 1,4,-1
 104 1028 l 1,5,-1
 96 1379 l 1,6,7
 94 1421 94 1421 94 1433 c 2,8,-1
 94 1475 l 1,9,-1
 470 1475 l 2,10,11
 825 1475 825 1475 938 1233 c 0,12,13
 1026 1049 1026 1049 1026 777.5 c 128,-1,14
 1026 506 1026 506 982.5 355 c 128,-1,15
 939 204 939 204 839 116 c 0,16,17
 766 51 766 51 684 25.5 c 128,-1,18
 602 0 602 0 470 0 c 2,19,-1
 94 0 l 1,0,-1
333 215 m 1,20,-1
 460 215 l 2,21,22
 626 215 626 215 695 287 c 0,23,24
 745 339 745 339 767.5 442 c 128,-1,25
 790 545 790 545 790 764.5 c 128,-1,26
 790 984 790 984 744 1112 c 0,27,28
 692 1260 692 1260 460 1260 c 2,29,-1
 333 1260 l 1,30,-1
 333 215 l 1,20,-1
EndSplineSet
EndChar

StartChar: E
Encoding: 69 69 40
Width: 1120
Flags: W
HStem: 0 215<367 992> 646 215<367 810> 1260 215<367 978>
VStem: 138 229<215 646 861 1260>
LayerCount: 2
Fore
SplineSet
128 0 m 1,0,-1
 128 42 l 2,1,2
 128 53 128 53 130 96 c 1,3,-1
 138 446 l 1,4,-1
 138 1027 l 1,5,-1
 130 1379 l 1,6,7
 128 1421 128 1421 128 1433 c 2,8,-1
 128 1475 l 1,9,-1
 978 1475 l 1,10,-1
 978 1260 l 1,11,-1
 367 1260 l 1,12,-1
 367 861 l 1,13,-1
 810 861 l 1,14,-1
 810 646 l 1,15,-1
 367 646 l 1,16,-1
 367 215 l 1,17,-1
 992 215 l 1,18,-1
 992 0 l 1,19,-1
 128 0 l 1,0,-1
EndSplineSet
EndChar

StartChar: F
Encoding: 70 70 41
Width: 1120
Flags: W
HStem: 0 21G<123 377> 659 215<362 842> 1260 215<362 998>
VStem: 133 229<12 659 874 1260>
LayerCount: 2
Fore
SplineSet
122 1464 m 1,0,-1
 122 1475 l 1,1,-1
 998 1475 l 1,2,-1
 998 1260 l 1,3,-1
 362 1260 l 1,4,-1
 362 874 l 1,5,-1
 842 874 l 1,6,-1
 842 659 l 1,7,-1
 362 659 l 1,8,-1
 362 444 l 2,9,10
 362 262 362 262 374 42 c 1,11,-1
 376 12 l 1,12,-1
 377 0 l 1,13,-1
 123 0 l 1,14,-1
 123 42 l 2,15,16
 123 53 123 53 125 95 c 1,17,-1
 133 447 l 1,18,-1
 133 1026 l 1,19,-1
 129 1202 l 1,20,-1
 123 1432 l 1,21,-1
 122 1464 l 1,0,-1
EndSplineSet
EndChar

StartChar: G
Encoding: 71 71 42
Width: 1120
Flags: W
HStem: -27 223<431.109 711.356> 0 21G<826 1056> 562 215<478 826> 1280 223<439.45 693.226>
VStem: 64 235.969<365.916 1089.57> 826 230<0 63 323.009 562>
LayerCount: 2
Fore
SplineSet
826 63 m 1,0,1
 706.967741935 -27 706.967741935 -27 548.983870968 -27 c 128,-1,2
 391 -27 391 -27 275 62 c 128,-1,3
 159 151 159 151 111.5 300 c 128,-1,4
 64 449 64 449 64 728.5 c 128,-1,5
 64 1008 64 1008 121 1169 c 0,6,7
 244 1503 244 1503 576 1503 c 0,8,9
 761 1503 761 1503 868.5 1383.5 c 128,-1,10
 976 1264 976 1264 990 1101 c 0,11,12
 993 1075 993 1075 995 1056 c 2,13,-1
 998 1022 l 1,14,-1
 1000 1010 l 1,15,-1
 752 1010 l 1,16,-1
 752 1052 l 2,17,18
 752 1118 752 1118 748 1140 c 0,19,20
 737 1207 737 1207 689 1243.5 c 128,-1,21
 641 1280 641 1280 564.5 1280 c 128,-1,22
 488 1280 488 1280 424 1223.5 c 0,23,24
 299.96875 1114.00366211 299.96875 1114.00366211 299.96875 732.037109375 c 0,25,26
 299.96875 725.5625 299.96875 725.5625 300 719 c 0,27,28
 300 399 300 399 386 285 c 0,29,30
 454 196 454 196 566 196 c 0,31,32
 712 196 712 196 782 323 c 0,33,34
 807 368 807 368 815 420 c 128,-1,35
 823 472 823 472 826 562 c 1,36,-1
 478 562 l 1,37,-1
 478 777 l 1,38,-1
 1056 777 l 1,39,-1
 1056 0 l 1,40,-1
 826 0 l 1,41,-1
 826 63 l 1,0,1
EndSplineSet
EndChar

StartChar: H
Encoding: 72 72 43
Width: 1120
Flags: W
HStem: 0 21G<109 363 757 1012> 654 215<348 772> 1455 20G<108 363 757 1012>
VStem: 109 239<12 654 869 1424.83> 772 230<12 654 869 1463>
LayerCount: 2
Fore
SplineSet
108 1464 m 1,0,-1
 108 1475 l 1,1,-1
 363 1475 l 1,2,-1
 362 1463 l 1,3,-1
 360 1432 l 1,4,5
 348 1202 348 1202 348 1030 c 2,6,-1
 348 869 l 1,7,-1
 772 869 l 1,8,-1
 772 1030 l 2,9,10
 772 1214 772 1214 760 1431 c 1,11,-1
 758 1463 l 1,12,-1
 757 1475 l 1,13,-1
 1012 1475 l 1,14,-1
 1012 1433 l 2,15,16
 1012 1415 1012 1415 1010 1380 c 1,17,-1
 1002 1025 l 1,18,-1
 1002 447 l 1,19,-1
 1010 95 l 2,20,21
 1011 77 1011 77 1012 64 c 1,22,-1
 1012 0 l 1,23,-1
 757 0 l 1,24,-1
 758 12 l 1,25,-1
 760 42 l 1,26,27
 772 269 772 269 772 444 c 2,28,-1
 772 654 l 1,29,-1
 348 654 l 1,30,-1
 348 444 l 2,31,32
 348 262 348 262 360 42 c 1,33,-1
 362 12 l 1,34,-1
 363 0 l 1,35,-1
 109 0 l 1,36,-1
 109 42 l 2,37,38
 109 53 109 53 111 95 c 1,39,-1
 119 447 l 1,40,-1
 119 1025 l 1,41,-1
 115 1201 l 1,42,-1
 109 1432 l 1,43,-1
 108 1464 l 1,0,-1
EndSplineSet
EndChar

StartChar: I
Encoding: 73 73 44
Width: 1120
Flags: W
HStem: 0 215<241.5 442.5 682.5 878.5> 1260 215<241.5 442.5 682.5 878.5>
VStem: 241.5 637<0 215 1260 1475> 447.5 229<215 1260>
LayerCount: 2
Fore
SplineSet
241.5 0 m 1,0,-1
 241.5 215 l 1,1,-1
 442.5 215 l 1,2,-1
 447.5 453 l 1,3,-1
 447.5 1022 l 1,4,-1
 442.5 1260 l 1,5,-1
 241.5 1260 l 1,6,-1
 241.5 1475 l 1,7,-1
 878.5 1475 l 1,8,-1
 878.5 1260 l 1,9,-1
 682.5 1260 l 1,10,-1
 676.5 1022 l 1,11,-1
 676.5 453 l 1,12,-1
 682.5 215 l 1,13,-1
 878.5 215 l 1,14,-1
 878.5 0 l 1,15,-1
 241.5 0 l 1,0,-1
EndSplineSet
EndChar

StartChar: J
Encoding: 74 74 45
Width: 1120
Flags: W
HStem: -27 223<417.992 687.762> 1260 215<491 762>
VStem: 126 230<257.353 707> 768 229<273.441 1260>
LayerCount: 2
Fore
SplineSet
766 498 m 1,0,-1
 766 500 l 1,1,-1
 768 522 l 1,2,-1
 768 1023 l 2,3,4
 768 1080 768 1080 762 1260 c 1,5,-1
 491 1260 l 1,6,-1
 491 1475 l 1,7,-1
 1009 1475 l 1,8,-1
 1008 1464 l 1,9,-1
 1007 1432 l 1,10,-1
 1005 1388 l 1,11,-1
 1005 1331 l 1,12,-1
 997 1027 l 1,13,-1
 997 513 l 1,14,-1
 995 482 l 1,15,16
 989 336 989 336 985 302.5 c 128,-1,17
 981 269 981 269 964 228 c 0,18,19
 921 116 921 116 810 44 c 0,20,21
 699.555555556 -27 699.555555556 -27 526.777777778 -27 c 128,-1,22
 354 -27 354 -27 240 90.5 c 128,-1,23
 126 208 126 208 126 403 c 2,24,-1
 126 473 l 1,25,-1
 112 707 l 1,26,-1
 111 719 l 1,27,-1
 371 719 l 1,28,-1
 370 707 l 1,29,-1
 368 674 l 1,30,31
 356 510 356 510 356 474 c 2,32,-1
 356 399 l 2,33,34
 356 311 356 311 390 268 c 0,35,36
 445 196 445 196 546 196 c 0,37,38
 611 196 611 196 665 226 c 0,39,40
 749 273 749 273 758 353 c 0,41,42
 762 379 762 379 766 498 c 1,0,-1
EndSplineSet
EndChar

StartChar: K
Encoding: 75 75 46
Width: 1120
Flags: W
HStem: 0 21G<27 278 763.785 1093> 1455 20G<27 278>
VStem: 27 251<0 634 838 1475> 780 313<0 313>
LayerCount: 2
Fore
SplineSet
27 0 m 1,0,-1
 27 42 l 2,1,2
 27 63 27 63 28 95 c 2,3,-1
 33 274 l 1,4,-1
 37 448 l 1,5,-1
 37 1027 l 1,6,-1
 33 1202 l 1,7,-1
 28 1380 l 2,8,9
 27 1413 27 1413 27 1433 c 2,10,-1
 27 1475 l 1,11,-1
 278 1475 l 1,12,-1
 278 1464 l 1,13,-1
 275 1376 l 1,14,-1
 266 1003 l 1,15,-1
 266 838 l 1,16,17
 317 863 317 863 398 951 c 128,-1,18
 479 1039 479 1039 563.5 1185.5 c 128,-1,19
 648 1332 648 1332 698 1464 c 1,20,-1
 714 1508 l 1,21,-1
 943 1395 l 1,22,-1
 922 1359 l 1,23,24
 890 1302 890 1302 772.5 1122 c 128,-1,25
 655 942 655 942 589 869.5 c 128,-1,26
 523 797 523 797 437 736 c 1,27,-1
 1093 0 l 1,28,-1
 780 0 l 1,29,-1
 266 634 l 1,30,-1
 266 472 l 1,31,-1
 275 99 l 1,32,-1
 277 43 l 1,33,-1
 278 11 l 1,34,-1
 278 0 l 1,35,-1
 27 0 l 1,0,-1
EndSplineSet
EndChar

StartChar: L
Encoding: 76 76 47
Width: 1120
Flags: W
HStem: 0 215<369 998> 1455 20G<122 371>
VStem: 132 228<215 1475>
LayerCount: 2
Fore
SplineSet
122 0 m 1,0,-1
 122 42 l 2,1,2
 122 53 122 53 124 96 c 1,3,-1
 132 446 l 1,4,-1
 132 1027 l 1,5,-1
 124 1380 l 1,6,7
 122 1421 122 1421 122 1433 c 2,8,-1
 122 1475 l 1,9,-1
 371 1475 l 1,10,-1
 371 1434 l 2,11,12
 371 1415 371 1415 368 1380 c 1,13,-1
 360 1031 l 1,14,-1
 360 454 l 1,15,-1
 369 215 l 1,16,-1
 998 215 l 1,17,-1
 998 0 l 1,18,-1
 122 0 l 1,0,-1
EndSplineSet
EndChar

StartChar: M
Encoding: 77 77 48
Width: 1120
Flags: W
HStem: 0 21G<58 312 807 1062> 1455 20G<68 297.09 826 1051>
VStem: 58 254<0 633.109> 68 229<0.1875 963> 821 230<0.171875 961 1468 1475>
LayerCount: 2
Fore
SplineSet
58 0 m 1,0,-1
 58 42 l 2,1,2
 58 53 58 53 60 95 c 1,3,-1
 68 448 l 1,4,-1
 68 1475 l 1,5,-1
 289 1475 l 1,6,-1
 560 805 l 1,7,-1
 826 1468 l 1,8,-1
 828 1475 l 1,9,-1
 1051 1475 l 1,10,-1
 1051 446 l 1,11,-1
 1061 41 l 1,12,-1
 1062 11 l 1,13,-1
 1062 0 l 1,14,-1
 807 0 l 1,15,-1
 808 11 l 1,16,-1
 809 43 l 1,17,18
 821 301 821 301 821 472 c 2,19,-1
 821 961 l 1,20,-1
 560 338 l 1,21,-1
 297 963 l 1,22,-1
 297 472 l 2,23,24
 297 278 297 278 309 45 c 1,25,-1
 311 12 l 1,26,-1
 312 0 l 1,27,-1
 58 0 l 1,0,-1
EndSplineSet
EndChar

StartChar: N
Encoding: 78 78 49
Width: 1120
Flags: W
HStem: 0 21G<123 376 765.929 983> 1455 20G<133 385.06 743 997>
VStem: 133 229<0 1007> 753 230<542 1475>
DStem2: 377 1475 362 1007 0.374208 -0.927345<428.384 1005.91>
LayerCount: 2
Fore
SplineSet
123 0 m 1,0,-1
 123 42 l 2,1,2
 123 53 123 53 125 95 c 1,3,-1
 133 448 l 1,4,-1
 133 1475 l 1,5,-1
 377 1475 l 1,6,-1
 753 542 l 1,7,-1
 753 1001 l 1,8,-1
 745 1377 l 1,9,10
 743 1415 743 1415 743 1433 c 2,11,-1
 743 1475 l 1,12,-1
 997 1475 l 1,13,-1
 997 1463 l 1,14,-1
 995 1432 l 1,15,-1
 993 1393 l 1,16,-1
 993 1351 l 1,17,-1
 983 1025 l 1,18,-1
 983 -14 l 1,19,-1
 774 -14 l 1,20,-1
 362 1007 l 1,21,-1
 362 472 l 2,22,23
 362 278 362 278 374 45 c 1,24,-1
 376 12 l 1,25,-1
 376 0 l 1,26,-1
 123 0 l 1,0,-1
EndSplineSet
EndChar

StartChar: O
Encoding: 79 79 50
Width: 1120
Flags: W
HStem: -27 223<432.172 688.574> 1280 223<430.622 689.114>
VStem: 66 236<359.758 1113.24> 818 236<361.562 1117.66>
LayerCount: 2
Fore
SplineSet
183 162 m 0,0,1
 118 253 118 253 92 387.5 c 128,-1,2
 66 522 66 522 66 775.5 c 128,-1,3
 66 1029 66 1029 117.5 1178.5 c 128,-1,4
 169 1328 169 1328 284.5 1415.5 c 128,-1,5
 400 1503 400 1503 566 1503 c 0,6,7
 679 1503 679 1503 777 1451 c 0,8,9
 978 1346 978 1346 1028 1084 c 0,10,11
 1054 952 1054 952 1054 698.5 c 128,-1,12
 1054 445 1054 445 1002.5 297 c 128,-1,13
 951 149 951 149 837 61 c 0,14,15
 721 -27 721 -27 560 -27 c 0,16,17
 319 -27 319 -27 183 162 c 0,0,1
818 745 m 128,-1,19
 818 1071 818 1071 745 1175.5 c 128,-1,20
 672 1280 672 1280 557 1280 c 128,-1,21
 442 1280 442 1280 372 1167.5 c 128,-1,22
 302 1055 302 1055 302 729.5 c 128,-1,23
 302 404 302 404 376 300 c 128,-1,24
 450 196 450 196 564 196 c 128,-1,25
 678 196 678 196 748 307.5 c 128,-1,18
 818 419 818 419 818 745 c 128,-1,19
EndSplineSet
EndChar

StartChar: P
Encoding: 80 80 51
Width: 1120
Flags: W
HStem: 0 21G<131.248 384.248> 536 213<370.248 662.442> 1260 215<370.248 676.155>
VStem: 141.248 229<0 536 749 1260> 755.248 235.5<842.544 1176.25>
LayerCount: 2
Fore
SplineSet
129.248046875 1475 m 1,0,-1
 486.248046875 1475 l 2,1,2
 667.248046875 1475 667.248046875 1475 777.248046875 1420 c 128,-1,3
 887.248046875 1365 887.248046875 1365 938.748046875 1250.5 c 128,-1,4
 990.248046875 1136 990.248046875 1136 990.748046875 994 c 128,-1,5
 991.248046875 852 991.248046875 852 924.248046875 744 c 128,-1,6
 857.248046875 636 857.248046875 636 727.248046875 581 c 0,7,8
 662.248046875 554 662.248046875 554 598.748046875 545 c 128,-1,9
 535.248046875 536 535.248046875 536 418.248046875 536 c 2,10,-1
 370.248046875 536 l 1,11,-1
 370.248046875 439 l 2,12,13
 370.248046875 258 370.248046875 258 382.248046875 42 c 1,14,-1
 384.248046875 11 l 1,15,-1
 384.248046875 0 l 1,16,-1
 131.248046875 0 l 1,17,-1
 131.248046875 42 l 2,18,19
 131.248046875 53 131.248046875 53 133.248046875 95 c 1,20,-1
 141.248046875 448 l 1,21,-1
 141.248046875 1026 l 1,22,-1
 137.248046875 1202 l 1,23,-1
 131.248046875 1432 l 1,24,-1
 130.248046875 1464 l 1,25,-1
 129.248046875 1475 l 1,0,-1
370.248046875 749 m 1,26,-1
 447.248046875 749 l 2,27,28
 579.248046875 749 579.248046875 749 638.248046875 779 c 0,29,30
 755.248046875 841 755.248046875 841 755.248046875 1002 c 0,31,32
 755.248046875 1093 755.248046875 1093 722.748046875 1155.5 c 128,-1,33
 690.248046875 1218 690.248046875 1218 648.748046875 1235.5 c 128,-1,34
 607.248046875 1253 607.248046875 1253 576.248046875 1256.5 c 128,-1,35
 545.248046875 1260 545.248046875 1260 453.248046875 1260 c 2,36,-1
 370.248046875 1260 l 1,37,-1
 370.248046875 749 l 1,26,-1
EndSplineSet
EndChar

StartChar: Q
Encoding: 81 81 52
Width: 1120
Flags: W
HStem: -27 223<391.984 649.918> 1280 223<388.776 646.237>
VStem: 25 236<359.785 1114.57> 778 236<362.979 1118.32>
LayerCount: 2
Fore
SplineSet
142 162 m 0,0,1
 77 253 77 253 51 387.5 c 128,-1,2
 25 522 25 522 25 776.5 c 128,-1,3
 25 1031 25 1031 77 1179.5 c 128,-1,4
 129 1328 129 1328 243.5 1415.5 c 128,-1,5
 358 1503 358 1503 498 1503 c 0,6,7
 762 1503 762 1503 898 1311 c 0,8,9
 960 1219 960 1219 987 1084.5 c 128,-1,10
 1014 950 1014 950 1014 697.5 c 128,-1,11
 1014 445 1014 445 971.5 323 c 128,-1,12
 929 201 929 201 882 142 c 1,13,-1
 1095 -121 l 1,14,-1
 802 -121 l 1,15,-1
 706 12 l 1,16,17
 619 -27 619 -27 520 -27 c 0,18,19
 277 -27 277 -27 142 162 c 0,0,1
778 745 m 128,-1,21
 778 1071 778 1071 704.5 1175.5 c 128,-1,22
 631 1280 631 1280 515.5 1280 c 128,-1,23
 400 1280 400 1280 330.5 1168.5 c 128,-1,24
 261 1057 261 1057 261 730.5 c 128,-1,25
 261 404 261 404 336 300 c 128,-1,26
 411 196 411 196 524.5 196 c 128,-1,27
 638 196 638 196 708 307.5 c 128,-1,20
 778 419 778 419 778 745 c 128,-1,21
EndSplineSet
EndChar

StartChar: R
Encoding: 82 82 53
Width: 1120
Flags: W
HStem: 0 21G<42 293 784.627 1078> 566 215<281 443.686> 1260 215<281 610.11>
VStem: 52 229<0 566 781 1260> 678.009 236.014<874.89 1192.5> 797 281<0 281>
DStem2: 669 634 445 569 0.542097 -0.840316<0 602.149>
LayerCount: 2
Fore
SplineSet
42 0 m 1,0,-1
 42 42 l 2,1,2
 42 63 42 63 43 95 c 2,3,-1
 48 273 l 1,4,-1
 52 446 l 1,5,-1
 52 1024 l 1,6,-1
 48 1200 l 1,7,-1
 43 1380 l 2,8,9
 42 1413 42 1413 42 1433 c 2,10,-1
 42 1475 l 1,11,-1
 434 1475 l 2,12,13
 600 1475 600 1475 708.5 1420 c 128,-1,14
 817 1365 817 1365 872 1242 c 0,15,16
 914.022727273 1151.11363636 914.022727273 1151.11363636 914.022727273 1043.03615702 c 0,17,18
 914.022727273 1040.52272727 914.022727273 1040.52272727 914 1038 c 0,19,20
 914 872 914 872 825 753 c 0,21,22
 780 694 780 694 669 634 c 1,23,-1
 1078 0 l 1,24,-1
 797 0 l 1,25,-1
 445 569 l 1,26,27
 403 566 403 566 355 566 c 2,28,-1
 281 566 l 1,29,-1
 281 439 l 1,30,-1
 290 93 l 1,31,-1
 292 41 l 1,32,-1
 293 11 l 1,33,-1
 293 0 l 1,34,-1
 42 0 l 1,0,-1
281 781 m 1,35,-1
 413 781 l 2,36,37
 515 781 515 781 569 815 c 0,38,39
 678.009009009 881.396396396 678.009009009 881.396396396 678.009009009 1035.1961052 c 128,-1,40
 678.009009009 1188.995814 678.009009009 1188.995814 579 1235 c 0,41,42
 520 1260 520 1260 363 1260 c 2,43,-1
 281 1260 l 1,44,-1
 281 781 l 1,35,-1
EndSplineSet
EndChar

StartChar: S
Encoding: 83 83 54
Width: 1120
Flags: W
HStem: -27 223<421.407 728.768> 1110 21G<876.6 919.706> 1280 223<445.642 730.617>
VStem: 148 236.5<1002.76 1219.07> 815 236<281.481 532.708>
DStem2: 551 912 416 749 0.875795 -0.482683<-196.521 373.487> 931 1379 784 1203 0.787924 -0.615773<-185.054 143.581>
LayerCount: 2
Fore
SplineSet
69 270 m 1,0,-1
 242 409 l 1,1,-1
 252 416 l 1,2,-1
 277 379 l 1,3,4
 409 196 409 196 570 196 c 0,5,6
 681 196 681 196 749 257 c 0,7,8
 815 318 815 318 815 404 c 128,-1,9
 815 490 815 490 771 533.5 c 128,-1,10
 727 577 727 577 592 652 c 2,11,-1
 416 749 l 1,12,13
 148 898.764705882 148 898.764705882 148 1123 c 0,14,15
 148 1285 148 1285 265.5 1394 c 128,-1,16
 383 1503 383 1503 564.5 1503 c 128,-1,17
 746 1503 746 1503 931 1379 c 0,18,19
 957 1361 957 1361 1015 1307 c 1,20,-1
 1045 1280 l 1,21,-1
 903 1110 l 1,22,-1
 870 1135 l 1,23,24
 812 1182 812 1182 784 1203 c 0,25,26
 677 1280 677 1280 586.5 1280 c 128,-1,27
 496 1280 496 1280 440.5 1233 c 128,-1,28
 385 1186 385 1186 384.5 1114 c 128,-1,29
 384 1042 384 1042 437 993 c 128,-1,30
 490 944 490 944 551 912 c 1,31,-1
 713 823 l 2,32,33
 876 733 876 733 948 663.5 c 128,-1,34
 1020 594 1020 594 1035.5 527 c 128,-1,35
 1051 460 1051 460 1051 406 c 0,36,37
 1051 237 1051 237 951 122 c 0,38,39
 822.135135135 -27 822.135135135 -27 584 -27 c 128,-1,40
 346 -27 346 -27 178 141 c 0,41,42
 149 170 149 170 96 237 c 1,43,-1
 69 270 l 1,0,-1
EndSplineSet
EndChar

StartChar: T
Encoding: 84 84 55
Width: 1120
Flags: W
HStem: 0 21G<435 689> 1260 215<26 448 677 1094>
VStem: 448 229<0 1260>
LayerCount: 2
Fore
SplineSet
26 1260 m 1,0,-1
 26 1475 l 1,1,-1
 1094 1475 l 1,2,-1
 1094 1260 l 1,3,-1
 677 1260 l 1,4,-1
 677 442 l 1,5,-1
 685 94 l 1,6,-1
 687 42 l 1,7,-1
 688 11 l 1,8,-1
 689 0 l 1,9,-1
 435 0 l 1,10,-1
 436 11 l 1,11,-1
 437 42 l 1,12,-1
 439 94 l 1,13,-1
 448 442 l 1,14,-1
 448 1260 l 1,15,-1
 26 1260 l 1,0,-1
EndSplineSet
EndChar

StartChar: U
Encoding: 85 85 56
Width: 1120
Flags: W
HStem: -27 223<429.636 687.04> 1455 20G<109 363 756 1011>
VStem: 119 229<279.854 1463> 771 229<285.302 1463>
LayerCount: 2
Fore
SplineSet
109 1433 m 2,0,-1
 109 1475 l 1,1,-1
 363 1475 l 1,2,-1
 362 1463 l 1,3,-1
 360 1432 l 1,4,5
 348 1197 348 1197 348 1032 c 2,6,-1
 348 523 l 1,7,-1
 350 459 l 2,8,9
 353 370 353 370 359 347 c 0,10,11
 381 273 381 273 438 234.5 c 128,-1,12
 495 196 495 196 570 196 c 128,-1,13
 645 196 645 196 704.5 257 c 128,-1,14
 764 318 764 318 768 416 c 1,15,-1
 771 522 l 1,16,-1
 771 1032 l 2,17,18
 771 1199 771 1199 759 1432 c 1,19,-1
 757 1463 l 1,20,-1
 756 1475 l 1,21,-1
 1011 1475 l 1,22,-1
 1011 1464 l 1,23,-1
 1004 1201 l 1,24,-1
 1000 1029 l 1,25,-1
 1000 515 l 2,26,27
 1000 308 1000 308 941 198.5 c 128,-1,28
 882 89 882 89 771.5 31 c 128,-1,29
 661 -27 661 -27 560 -27 c 0,30,31
 413 -27 413 -27 281.5 73.5 c 128,-1,32
 150 174 150 174 127 364 c 0,33,34
 119 425 119 425 119 513 c 2,35,-1
 119 1028 l 1,36,-1
 111 1380 l 1,37,38
 109 1422 109 1422 109 1433 c 2,0,-1
EndSplineSet
EndChar

StartChar: V
Encoding: 86 86 57
Width: 1120
Flags: W
HStem: -14 21G<416.589 701.375> 1455 20G<69 326.316 792.703 1051>
DStem2: 560 372 333 385 0.210921 -0.977503<-620.583 0> 560 372 832.5 591.5 0.210074 0.977686<0 821.806>
LayerCount: 2
Fore
SplineSet
69 1475 m 1,0,-1
 322 1475 l 1,1,-1
 560 372 l 1,2,-1
 797 1475 l 1,3,-1
 1051 1475 l 1,4,-1
 1037 1425 l 1,5,6
 926 1011 926 1011 832.5 591.5 c 128,-1,7
 739 172 739 172 704 18 c 1,8,-1
 697 -14 l 1,9,-1
 421 -14 l 1,10,-1
 333 385 l 1,11,12
 191 1022 191 1022 83 1425 c 1,13,-1
 69 1475 l 1,0,-1
EndSplineSet
EndChar

StartChar: W
Encoding: 87 87 58
Width: 1120
Flags: W
HStem: -14 21G<157 402 714.096 963> 1455 20G<35 290 831 1085>
VStem: 831 133<636.312 691>
DStem2: 329 706 40 1430 0.0928033 -0.995684<-556.997 222.805> 773 483 1080 1430 0.0791163 0.996865<399.44 993.308>
LayerCount: 2
Fore
SplineSet
35 1475 m 1,0,-1
 290 1475 l 1,1,-1
 290 1464 l 1,2,-1
 291 1434 l 1,3,4
 298 1067 298 1067 329 706 c 2,5,-1
 348 484 l 1,6,-1
 560 1151 l 1,7,-1
 773 483 l 1,8,-1
 792 706 l 2,9,10
 812 937 812 937 818 1050 c 0,11,12
 823 1163 823 1163 830 1434 c 1,13,-1
 831 1464 l 1,14,-1
 831 1475 l 1,15,-1
 1085 1475 l 1,16,-1
 1084 1463 l 1,17,-1
 1080 1430 l 1,18,19
 995 691 995 691 964 26 c 1,20,-1
 963 -3 l 1,21,-1
 963 -14 l 1,22,-1
 720 -14 l 1,23,-1
 560 528 l 1,24,-1
 410 16 l 1,25,-1
 402 -6 l 1,26,-1
 400 -14 l 1,27,-1
 157 -14 l 1,28,-1
 157 -3 l 1,29,-1
 156 26 l 1,30,31
 146 257 146 257 142 327 c 128,-1,32
 138 397 138 397 103.5 790.5 c 128,-1,33
 69 1184 69 1184 40 1430 c 2,34,-1
 36 1463 l 1,35,-1
 35 1475 l 1,0,-1
EndSplineSet
EndChar

StartChar: X
Encoding: 88 88 59
Width: 1120
Flags: W
HStem: 0 21G<55 332.462 786.538 1065> 1455 20G<65 342.462 776.538 1054>
DStem2: 55 0 560 538 0.466369 0.88459<169.994 711.426>
LayerCount: 2
Fore
SplineSet
55 0 m 1,0,-1
 440 743 l 1,1,2
 298 1028 298 1028 95 1417 c 1,3,-1
 65 1475 l 1,4,-1
 334 1475 l 1,5,-1
 345 1449 l 1,6,7
 433 1234 433 1234 560 955 c 1,8,9
 672 1199 672 1199 774 1449 c 1,10,-1
 785 1475 l 1,11,-1
 1054 1475 l 1,12,-1
 682 747 l 1,13,14
 849 409 849 409 1035 58 c 1,15,-1
 1065 0 l 1,16,-1
 795 0 l 1,17,-1
 784 26 l 1,18,19
 680 279 680 279 560 538 c 1,20,21
 436 269 436 269 335 26 c 1,22,-1
 324 0 l 1,23,-1
 55 0 l 1,0,-1
EndSplineSet
EndChar

StartChar: Y
Encoding: 89 89 60
Width: 1120
Flags: W
HStem: 0 21G<433 687> 1455 20G<41 307.462 811.538 1079>
VStem: 445 230<0 715.922>
DStem2: 299 1475 85 1383 0.427631 -0.903953<0 664.831> 560 863 675 621 0.427631 0.903953<0 664.342> 820 1475 1052 1418 0.427631 0.903953<-600.033 0>
LayerCount: 2
Fore
SplineSet
41 1475 m 1,0,-1
 299 1475 l 1,1,-1
 310 1449 l 1,2,3
 442 1128 442 1128 560 863 c 1,4,5
 679 1129 679 1129 809 1449 c 1,6,-1
 820 1475 l 1,7,-1
 1079 1475 l 1,8,-1
 1052 1418 l 1,9,10
 848 998 848 998 675 621 c 1,11,-1
 675 447 l 1,12,-1
 684 94 l 1,13,-1
 686 42 l 1,14,-1
 687 11 l 1,15,-1
 687 0 l 1,16,-1
 433 0 l 1,17,-1
 433 11 l 1,18,-1
 434 41 l 2,19,20
 435 81 435 81 441 274 c 1,21,-1
 445 447 l 1,22,-1
 445 621 l 1,23,24
 308 919 308 919 85 1383 c 2,25,-1
 41 1475 l 1,0,-1
EndSplineSet
EndChar

StartChar: Z
Encoding: 90 90 61
Width: 1120
Flags: W
HStem: 0 215<390 1022> 1260 215<121 691>
LayerCount: 2
Fore
SplineSet
98 0 m 1,0,-1
 98 155 l 1,1,-1
 99 158 l 1,2,3
 317 535 317 535 691 1260 c 1,4,-1
 121 1260 l 1,5,-1
 121 1475 l 1,6,-1
 973 1475 l 1,7,-1
 973 1321 l 1,8,-1
 969 1313 l 1,9,10
 714 844 714 844 390 215 c 1,11,-1
 1022 215 l 1,12,-1
 1022 0 l 1,13,-1
 98 0 l 1,0,-1
EndSplineSet
EndChar

StartChar: bracketleft
Encoding: 91 91 62
Width: 1120
Flags: W
HStem: -91 215<448 901> 1351 215<448 901>
VStem: 219 229<124 1351>
LayerCount: 2
Fore
SplineSet
219 -91 m 1,0,-1
 219 1566 l 1,1,-1
 901 1566 l 1,2,-1
 901 1351 l 1,3,-1
 448 1351 l 1,4,-1
 448 124 l 1,5,-1
 901 124 l 1,6,-1
 901 -91 l 1,7,-1
 219 -91 l 1,0,-1
EndSplineSet
EndChar

StartChar: backslash
Encoding: 92 92 63
Width: 1120
Flags: W
DStem2: 354 1570 114 1570 0.3656 -0.930772<0 1701.09>
LayerCount: 2
Fore
SplineSet
114 1570 m 1,0,-1
 354 1570 l 1,1,-1
 1006 -95 l 1,2,-1
 768 -95 l 1,3,-1
 114 1570 l 1,0,-1
EndSplineSet
EndChar

StartChar: bracketright
Encoding: 93 93 64
Width: 1120
Flags: W
HStem: -91 215<219 672> 1351 215<219 672>
VStem: 672 229<124 1351>
LayerCount: 2
Fore
SplineSet
219 -91 m 1,0,-1
 219 124 l 1,1,-1
 672 124 l 1,2,-1
 672 1351 l 1,3,-1
 219 1351 l 1,4,-1
 219 1566 l 1,5,-1
 901 1566 l 1,6,-1
 901 -91 l 1,7,-1
 219 -91 l 1,0,-1
EndSplineSet
EndChar

StartChar: asciicircum
Encoding: 94 94 65
Width: 1120
Flags: W
DStem2: 94 669 392 669 0.380585 0.924746<113.414 565.746> 677 1517 560 1089 0.380585 -0.924746<351.263 803.594>
LayerCount: 2
Fore
SplineSet
94 669 m 1,0,-1
 443 1517 l 1,1,-1
 677 1517 l 1,2,-1
 1026 669 l 1,3,-1
 728 669 l 1,4,-1
 560 1089 l 1,5,-1
 403 695 l 1,6,-1
 392 669 l 1,7,-1
 94 669 l 1,0,-1
EndSplineSet
EndChar

StartChar: underscore
Encoding: 95 95 66
Width: 1120
Flags: W
HStem: -325 227<-9 1129>
LayerCount: 2
Fore
SplineSet
-9 -98 m 1,0,-1
 1129 -98 l 1,1,-1
 1129 -325 l 1,2,-1
 -9 -325 l 1,3,-1
 -9 -98 l 1,0,-1
EndSplineSet
EndChar

StartChar: grave
Encoding: 96 96 67
Width: 1120
Flags: W
HStem: 1147 473
VStem: 278.5 563
LayerCount: 2
Fore
SplineSet
278.5 1445 m 1,0,-1
 434.5 1620 l 1,1,-1
 841.5 1294 l 1,2,-1
 728.5 1147 l 1,3,-1
 278.5 1445 l 1,0,-1
EndSplineSet
EndChar

StartChar: a
Encoding: 97 97 68
Width: 1120
Flags: W
HStem: -27 223<397.719 612.318> 552 223<412.107 701.556> 898 223<352.87 674.899>
VStem: 121 236<232.04 498.605> 705 230<285.536 532.469 738 850.406>
LayerCount: 2
Fore
SplineSet
121 367 m 128,-1,1
 121 543 121 543 227 654 c 0,2,3
 280 710 280 710 355.5 742.5 c 128,-1,4
 431 775 431 775 509 775 c 128,-1,5
 587 775 587 775 705 738 c 1,6,7
 705 789 705 789 699.5 810.5 c 128,-1,8
 694 832 694 832 678 851 c 0,9,10
 638 898 638 898 550.5 898 c 128,-1,11
 463 898 463 898 349 852 c 0,12,13
 313 837 313 837 292 829 c 2,14,-1
 260 817 l 1,15,-1
 248 812 l 1,16,-1
 192 1020 l 1,17,-1
 190 1030 l 1,18,-1
 225 1043 l 1,19,20
 348 1090 348 1090 412.5 1105.5 c 128,-1,21
 477 1121 477 1121 552 1121 c 0,22,23
 729 1121 729 1121 832 1012 c 128,-1,24
 935 903 935 903 935 721 c 2,25,-1
 935 360 l 2,26,27
 935 249 935 249 944 191 c 128,-1,28
 953 133 953 133 984 42 c 1,29,-1
 999 -5 l 1,30,-1
 776 -33 l 1,31,-1
 764 -2 l 1,32,-1
 763 -1 l 1,33,-1
 758 11 l 1,34,-1
 756 14 l 1,35,-1
 756 17 l 1,36,37
 745 43 745 43 735 71 c 1,38,39
 628 -27 628 -27 473 -27 c 128,-1,40
 318 -27 318 -27 219 82 c 0,41,0
 121 191 121 191 121 367 c 128,-1,1
357 364 m 128,-1,43
 357 269 357 269 399.5 232.5 c 128,-1,44
 442 196 442 196 493 196 c 0,45,46
 600 196 600 196 705 337 c 1,47,-1
 705 520 l 1,48,49
 602 552 602 552 531 552 c 128,-1,50
 460 552 460 552 408.5 505.5 c 128,-1,42
 357 459 357 459 357 364 c 128,-1,43
EndSplineSet
EndChar

StartChar: b
Encoding: 98 98 69
Width: 1120
Flags: W
HStem: -27 223<439.464 693.402> 898 223<392.367 682.434> 1481 20G<128.997 382.997>
VStem: 140.997 229<265.988 866.487 1082 1501> 813.997 236.006<333.469 752.827>
LayerCount: 2
Fore
SplineSet
69.9970703125 -6 m 1,0,-1
 81.9970703125 40 l 2,1,2
 87.9970703125 62 87.9970703125 62 106.997070312 124.5 c 128,-1,3
 125.997070312 187 125.997070312 187 132.997070312 274 c 0,4,5
 140.997070312 361 140.997070312 361 140.997070312 593 c 2,6,-1
 140.997070312 1058 l 1,7,-1
 136.997070312 1214 l 2,8,9
 130.997070312 1425 130.997070312 1425 129.997070312 1458 c 2,10,-1
 128.997070312 1490 l 1,11,-1
 128.997070312 1501 l 1,12,-1
 382.997070312 1501 l 1,13,-1
 381.997070312 1490 l 1,14,-1
 380.997070312 1458 l 1,15,-1
 378.997070312 1404 l 1,16,-1
 370.997070312 1082 l 1,17,18
 459.997070312 1121 459.997070312 1121 560.997070312 1121 c 0,19,20
 736.997070312 1121 736.997070312 1121 867.997070312 1003 c 0,21,22
 1050.00292969 842.875 1050.00292969 842.875 1050.00292969 536.439453125 c 128,-1,23
 1050.00292969 230.00390625 1050.00292969 230.00390625 859.997070312 79 c 0,24,25
 726.997070312 -27 726.997070312 -27 577.497070312 -27 c 128,-1,26
 427.997070312 -27 427.997070312 -27 323.997070312 59 c 1,27,28
 315.997070312 31 315.997070312 31 306.997070312 1 c 2,29,-1
 295.997070312 -33 l 1,30,-1
 81.9970703125 -8 l 1,31,-1
 69.9970703125 -6 l 1,0,-1
369.997070312 327 m 1,32,33
 415.997070312 253 415.997070312 253 460.497070312 224.5 c 128,-1,34
 504.997070312 196 504.997070312 196 562.997070312 196 c 0,35,36
 653.997070312 196 653.997070312 196 720.997070312 263 c 0,37,38
 813.997070312 358 813.997070312 358 813.997070312 538 c 0,39,40
 813.997070312 768 813.997070312 768 678.997070312 857 c 0,41,42
 615.997070312 898 615.997070312 898 530.497070312 898 c 128,-1,43
 444.997070312 898 444.997070312 898 369.997070312 837 c 1,44,-1
 369.997070312 327 l 1,32,33
EndSplineSet
EndChar

StartChar: c
Encoding: 99 99 70
Width: 1120
Flags: W
HStem: -27 223<440.804 724.562> 898 223<432.343 721.731>
VStem: 74 236<333.494 760.223>
LayerCount: 2
Fore
SplineSet
74 539 m 0,0,1
 74 929 74 929 352 1065 c 0,2,3
 459 1121 459 1121 569 1121 c 0,4,5
 789 1121 789 1121 926 976 c 0,6,7
 963 937 963 937 1020 857 c 1,8,-1
 1046 822 l 1,9,-1
 843 688 l 1,10,-1
 820 725 l 1,11,12
 782 789 782 789 766 810 c 0,13,14
 694 898 694 898 598 898 c 128,-1,15
 502 898 502 898 432 853 c 0,16,17
 310 773 310 773 310 538.5 c 128,-1,18
 310 304 310 304 464 227 c 0,19,20
 523 196 523 196 584 196 c 0,21,22
 690 196 690 196 787 291 c 0,23,24
 796 300 796 300 846 354 c 2,25,-1
 876 387 l 1,26,-1
 1031 228 l 1,27,-1
 1038 220 l 1,28,-1
 1011 191 l 2,29,30
 953 129 953 129 897 82.5 c 128,-1,31
 841 36 841 36 759.5 4.5 c 128,-1,32
 678 -27 678 -27 592 -27 c 0,33,34
 332 -27 332 -27 187 160 c 0,35,36
 74 305 74 305 74 539 c 0,0,1
EndSplineSet
EndChar

StartChar: d
Encoding: 100 100 71
Width: 1120
Flags: W
HStem: -27 223<423.811 678.217> 898 223<437.137 724.909> 1481 20G<735 989>
VStem: 69 236<330.107 750.016> 747 229<265.411 866.487 1082 1501>
LayerCount: 2
Fore
SplineSet
69 546 m 128,-1,1
 69 841 69 841 251 1004 c 0,2,3
 382 1121 382 1121 556 1121 c 0,4,5
 656 1121 656 1121 747 1082 c 1,6,-1
 738 1404 l 1,7,-1
 736 1458 l 1,8,-1
 735 1490 l 1,9,-1
 735 1501 l 1,10,-1
 989 1501 l 1,11,-1
 988 1490 l 1,12,-1
 987 1458 l 2,13,14
 986 1425 986 1425 980 1214 c 2,15,-1
 976 1058 l 1,16,-1
 976 593 l 2,17,18
 976 344 976 344 985 260 c 128,-1,19
 994 176 994 176 1037 41 c 1,20,-1
 1047 6 l 1,21,-1
 1051 -6 l 1,22,-1
 831 -32 l 1,23,-1
 822 -33 l 1,24,-1
 811 1 l 2,25,26
 802 32 802 32 794 60 c 1,27,28
 691 -27 691 -27 531.5 -27 c 128,-1,29
 372 -27 372 -27 235 99 c 0,30,0
 69 251 69 251 69 546 c 128,-1,1
305 539 m 0,31,32
 305 358 305 358 398 262 c 0,33,34
 464 196 464 196 540.5 196 c 128,-1,35
 617 196 617 196 659.5 225 c 128,-1,36
 702 254 702 254 747 327 c 1,37,-1
 747 837 l 1,38,39
 672 898 672 898 587 898 c 128,-1,40
 502 898 502 898 442 857 c 0,41,42
 306 766 306 766 305 539 c 0,31,32
EndSplineSet
EndChar

StartChar: e
Encoding: 101 101 72
Width: 1120
Flags: W
HStem: -27 223<415.987 779.015> 462 173<312 803> 898 223<434.832 694.148>
LayerCount: 2
Fore
SplineSet
73 542 m 0,0,1
 73 776 73 776 189 934 c 0,2,3
 250 1016 250 1016 350 1068.5 c 128,-1,4
 450 1121 450 1121 571 1121 c 0,5,6
 819 1121 819 1121 946 919 c 0,7,8
 1040 770 1040 770 1040 566 c 0,9,10
 1040 557 1040 557 1039 501 c 2,11,-1
 1038 472 l 1,12,-1
 1038 462 l 1,13,-1
 305 462 l 1,14,15
 319 274 319 274 461 217 c 0,16,17
 515 196 515 196 576 196 c 0,18,19
 712 196 712 196 907 298 c 1,20,-1
 935 314 l 1,21,-1
 945 319 l 1,22,-1
 1047 102 l 1,23,-1
 1006 85 l 2,24,25
 931 53 931 53 924 50 c 0,26,27
 732 -27 732 -27 567 -27 c 0,28,29
 477 -27 477 -27 392 3 c 0,30,31
 181 78 181 78 107 315 c 0,32,33
 74 425 74 425 73 542 c 0,0,1
312 635 m 1,34,-1
 803 635 l 1,35,36
 792 703 792 703 774.5 748 c 128,-1,37
 757 793 757 793 720 830 c 0,38,39
 653 898 653 898 563.5 898 c 128,-1,40
 474 898 474 898 403 827 c 0,41,42
 367 792 367 792 348 752.5 c 128,-1,43
 329 713 329 713 312 635 c 1,34,-1
EndSplineSet
EndChar

StartChar: f
Encoding: 102 102 73
Width: 1120
Flags: W
HStem: 0 21G<335 589> 879 215<68 348 577 928> 1363 223<612.175 900.221>
VStem: 348 229<0 879 1094 1328.58>
LayerCount: 2
Fore
SplineSet
68 879 m 1,0,-1
 68 1094 l 1,1,-1
 348 1094 l 1,2,-1
 348 1172 l 2,3,4
 348 1268 348 1268 361 1325 c 0,5,6
 390 1440 390 1440 497 1513 c 0,7,8
 605 1586 605 1586 731.5 1586 c 128,-1,9
 858 1586 858 1586 1026 1515 c 2,10,-1
 1052 1504 l 1,11,-1
 1052 1258 l 1,12,-1
 993 1281 l 1,13,14
 854 1338 854 1338 813 1350.5 c 128,-1,15
 772 1363 772 1363 730 1363 c 0,16,17
 641 1363 641 1363 609 1315 c 128,-1,18
 577 1267 577 1267 577 1167 c 2,19,-1
 577 1094 l 1,20,-1
 928 1094 l 1,21,-1
 928 879 l 1,22,-1
 577 879 l 1,23,-1
 577 460 l 1,24,-1
 580 279 l 2,25,26
 582 194 582 194 587 40 c 2,27,-1
 588 11 l 1,28,-1
 589 0 l 1,29,-1
 335 0 l 1,30,-1
 336 11 l 1,31,-1
 337 40 l 2,32,33
 348 335 348 335 348 459 c 2,34,-1
 348 879 l 1,35,-1
 68 879 l 1,0,-1
EndSplineSet
EndChar

StartChar: g
Encoding: 103 103 74
Width: 1120
Flags: W
HStem: -416 223<402.617 674.715> 4 208<417.141 681.326> 898 223<419.053 690.745> 1074 20G<806 1038>
VStem: 82 236<326.83 782.208> 756 230<-107.31 62 277.308 836.151>
LayerCount: 2
Fore
SplineSet
82 510 m 0,0,1
 82 711 82 711 119 818 c 0,2,3
 224 1121 224 1121 544 1121 c 0,4,5
 622 1121 622 1121 677 1101.5 c 128,-1,6
 732 1082 732 1082 794 1046 c 1,7,8
 797 1057 797 1057 799 1064 c 2,9,-1
 806 1086 l 1,10,-1
 809 1094 l 1,11,-1
 1038 1094 l 1,12,-1
 1026 1045 l 1,13,14
 986 876 986 876 986 780 c 2,15,-1
 986 53 l 2,16,17
 986 -123 986 -123 896 -238 c 0,18,19
 832 -321 832 -321 739 -368.5 c 128,-1,20
 646 -416 646 -416 549 -416 c 0,21,22
 342 -416 342 -416 198 -272 c 0,23,24
 183 -257 183 -257 159 -234 c 2,25,-1
 127 -203 l 1,26,-1
 292 -58 l 1,27,-1
 300 -50 l 1,28,-1
 328 -83 l 1,29,30
 420 -193 420 -193 552 -193 c 0,31,32
 641 -193 641 -193 697 -127 c 128,-1,33
 753 -61 753 -61 756 62 c 1,34,35
 645 5 645 5 517 4 c 1,36,-1
 513 4 l 2,37,38
 379 4 379 4 278 78 c 0,39,40
 82 221 82 221 82 510 c 0,0,1
318 479 m 0,41,42
 318 384 318 384 379.5 298 c 128,-1,43
 441 212 441 212 533 212 c 0,44,45
 660 212 660 212 756 319 c 1,46,-1
 756 799 l 1,47,48
 660 898 660 898 542 898 c 0,49,50
 456 898 456 898 401 840 c 0,51,52
 318 757 318 757 318 479 c 0,41,42
EndSplineSet
EndChar

StartChar: h
Encoding: 104 104 75
Width: 1120
Flags: W
HStem: 0 21G<135 389 730 985> 898 223<534.062 714.261> 1481 20G<135 389>
VStem: 135 239<11 723.599 998 1417> 745 230<11 870.142>
LayerCount: 2
Fore
SplineSet
135 0 m 1,0,-1
 135 41 l 2,1,2
 135 52 135 52 137 94 c 1,3,-1
 145 443 l 1,4,-1
 145 1057 l 1,5,-1
 141 1213 l 1,6,-1
 137 1402 l 1,7,8
 135 1447 135 1447 135 1459 c 2,9,-1
 135 1501 l 1,10,-1
 389 1501 l 1,11,-1
 388 1489 l 1,12,-1
 386 1456 l 1,13,-1
 384 1417 l 1,14,-1
 384 1372 l 1,15,-1
 374 1046 l 1,16,-1
 374 998 l 1,17,18
 504 1121 504 1121 654 1121 c 0,19,20
 762 1121 762 1121 853 1043 c 0,21,22
 920 987 920 987 947.5 905.5 c 128,-1,23
 975 824 975 824 975 688 c 2,24,-1
 975 441 l 1,25,-1
 983 94 l 1,26,27
 985 60 985 60 985 41 c 2,28,-1
 985 0 l 1,29,-1
 730 0 l 1,30,-1
 731 11 l 1,31,-1
 733 41 l 1,32,33
 745 262 745 262 745 432 c 2,34,-1
 745 633 l 2,35,36
 745 818 745 818 711 859 c 0,37,38
 676 898 676 898 639 898 c 128,-1,39
 602 898 602 898 545 861.5 c 128,-1,40
 488 825 488 825 445 764 c 128,-1,41
 402 703 402 703 388 655 c 1,42,-1
 388 654 l 1,43,-1
 374 529 l 1,44,-1
 374 432 l 2,45,46
 374 255 374 255 386 42 c 1,47,-1
 388 11 l 1,48,-1
 389 0 l 1,49,-1
 135 0 l 1,0,-1
EndSplineSet
EndChar

StartChar: i
Encoding: 105 105 76
Width: 1120
Flags: W
HStem: 0 21G<574 824> 879 215<270 574> 1238 312<585.832 801.106>
VStem: 538 312<1285.96 1501.64> 574 250<0 879>
LayerCount: 2
Fore
SplineSet
270 879 m 1,0,-1
 270 1094 l 1,1,-1
 824 1094 l 1,2,-1
 824 1083 l 1,3,-1
 822 1053 l 1,4,5
 812 770 812 770 812 657 c 2,6,-1
 812 438 l 2,7,8
 812 319 812 319 822 41 c 1,9,-1
 824 11 l 1,10,-1
 824 0 l 1,11,-1
 574 0 l 1,12,-1
 574 93 l 1,13,-1
 582 433 l 1,14,-1
 582 646 l 1,15,-1
 574 879 l 1,16,-1
 270 879 l 1,0,-1
538 1395 m 132,-1,18
 538 1459 538 1459 584 1504.5 c 132,-1,19
 630 1550 630 1550 694 1550 c 132,-1,20
 758 1550 758 1550 804 1503.5 c 132,-1,21
 850 1457 850 1457 850 1393.5 c 132,-1,22
 850 1330 850 1330 804 1284 c 132,-1,23
 758 1238 758 1238 693 1238 c 132,-1,24
 628 1238 628 1238 583 1284.5 c 132,-1,17
 538 1331 538 1331 538 1395 c 132,-1,18
EndSplineSet
EndChar

StartChar: j
Encoding: 106 106 77
Width: 1120
Flags: W
HStem: -333 223<441.028 644.279> 879 215<383 688> 1235 312<697.832 913.168>
VStem: 164 231<-62.5522 193> 650 311<1282.96 1499.04> 693 230<-59.4297 879>
LayerCount: 2
Fore
SplineSet
159 103 m 0,0,1
 159 121 159 121 162 154 c 2,2,-1
 164 183 l 1,3,-1
 164 193 l 1,4,-1
 401 193 l 1,5,-1
 400 181 l 1,6,-1
 398 149 l 2,7,8
 395 88 395 88 395 70 c 0,9,10
 395 -18 395 -18 439 -64 c 128,-1,11
 483 -110 483 -110 529 -110 c 0,12,13
 619 -110 619 -110 663 -42 c 0,14,15
 685 -6 685 -6 689 41.5 c 128,-1,16
 693 89 693 89 693 355 c 2,17,-1
 693 644 l 1,18,-1
 688 879 l 1,19,-1
 383 879 l 1,20,-1
 383 1094 l 1,21,-1
 936 1094 l 1,22,-1
 935 1083 l 1,23,-1
 934 1052 l 1,24,25
 923 765 923 765 923 650 c 2,26,-1
 923 350 l 2,27,28
 923 255 923 255 922 192 c 2,29,-1
 920 36 l 1,30,31
 912 -127 912 -127 807 -224 c 1,32,33
 697 -333 697 -333 543 -333 c 0,34,35
 462 -333 462 -333 387 -299 c 128,-1,36
 312 -265 312 -265 260 -205 c 0,37,38
 159 -85 159 -85 159 103 c 0,0,1
650 1392 m 132,-1,40
 650 1456 650 1456 696 1501.5 c 132,-1,41
 742 1547 742 1547 806.5 1547 c 132,-1,42
 871 1547 871 1547 916 1500.5 c 132,-1,43
 961 1454 961 1454 961 1390.5 c 132,-1,44
 961 1327 961 1327 915 1281 c 132,-1,45
 869 1235 869 1235 804.5 1235 c 132,-1,46
 740 1235 740 1235 695 1281.5 c 132,-1,39
 650 1328 650 1328 650 1392 c 132,-1,40
EndSplineSet
EndChar

StartChar: k
Encoding: 107 107 78
Width: 1120
Flags: W
HStem: 0 21G<64 316 726.21 1056> 1074 20G<611.25 964> 1481 20G<64 316>
VStem: 74 229<0 457 672 1501>
LayerCount: 2
Fore
SplineSet
303 672 m 1,0,1
 562.5 931.5 562.5 931.5 660 1094 c 1,2,-1
 964 1094 l 1,3,-1
 908 1029 l 2,4,5
 750 846 750 846 680.5 773 c 128,-1,6
 611 700 611 700 492 589 c 1,7,-1
 1056 0 l 1,8,-1
 743 0 l 1,9,-1
 335 486 l 1,10,-1
 303 457 l 1,11,12
 304 393 304 393 312 99 c 1,13,-1
 314 43 l 1,14,-1
 315 11 l 1,15,-1
 316 0 l 1,16,-1
 64 0 l 1,17,-1
 64 41 l 2,18,19
 64 61 64 61 65 95 c 2,20,-1
 70 272 l 1,21,-1
 74 443 l 1,22,-1
 74 1041 l 1,23,-1
 70 1212 l 1,24,-1
 65 1403 l 2,25,26
 64 1436 64 1436 64 1459 c 2,27,-1
 64 1501 l 1,28,-1
 316 1501 l 1,29,-1
 315 1490 l 1,30,-1
 312 1402 l 1,31,32
 303 1047 303 1047 303 1029 c 2,33,-1
 303 672 l 1,0,1
EndSplineSet
EndChar

StartChar: l
Encoding: 108 108 79
Width: 1120
Flags: W
HStem: 0 21G<588 834> 1286 215<285 587>
VStem: 595 229<0 1286>
LayerCount: 2
Fore
SplineSet
285 1286 m 1,0,-1
 285 1501 l 1,1,-1
 835 1501 l 1,2,-1
 835 1490 l 1,3,-1
 828 1213 l 1,4,-1
 824 1041 l 1,5,-1
 824 442 l 1,6,-1
 834 42 l 1,7,-1
 834 0 l 1,8,-1
 589 0 l 1,9,-1
 588 10 l 1,10,-1
 586 39 l 2,11,12
 585 53 585 53 585 61 c 128,-1,13
 585 69 585 69 587 95 c 1,14,-1
 595 444 l 1,15,-1
 595 1045 l 1,16,17
 588 1206 588 1206 587 1286 c 1,18,-1
 285 1286 l 1,0,-1
EndSplineSet
EndChar

StartChar: m
Encoding: 109 109 80
Width: 1120
Flags: W
HStem: 0 21G<92 344 458 710 824 1074> 898 224<364.328 520.25 723.895 832.44> 1074 20G<46 283>
VStem: 103 227<0 864.797> 470 226<0 871.047> 835 227<0 896.626>
LayerCount: 2
Fore
SplineSet
46 1094 m 1,0,-1
 281 1094 l 1,1,-1
 283 1087 l 1,2,3
 289 1072 289 1072 295 1057 c 1,4,5
 383 1122 383 1122 474.5 1122 c 128,-1,6
 566 1122 566 1122 632 1040 c 1,7,8
 726 1122 726 1122 814 1122 c 0,9,10
 871 1122 871 1122 930 1091 c 0,11,12
 1035 1036 1035 1036 1055 916 c 0,13,14
 1062 866 1062 866 1062 742 c 2,15,-1
 1062 439 l 1,16,-1
 1066 269 l 2,17,18
 1069.22222222 117.555555556 1069.22222222 117.555555556 1073 42 c 1,19,-1
 1074 11 l 1,20,-1
 1074 0 l 1,21,-1
 824 0 l 1,22,-1
 824 11 l 1,23,-1
 825 40 l 2,24,25
 835 342 835 342 835 432 c 2,26,-1
 835 786 l 2,27,28
 835 845 835 845 832 860.5 c 128,-1,29
 829 876 829 876 818.5 887 c 128,-1,30
 808 898 808 898 794 898 c 0,31,32
 758 898 758 898 701 829 c 1,33,34
 696 752 696 752 696 660 c 2,35,-1
 696 433 l 1,36,-1
 700 265 l 2,37,38
 705 75 705 75 707 42 c 2,39,-1
 709 11 l 1,40,-1
 710 0 l 1,41,-1
 458 0 l 1,42,-1
 458 11 l 1,43,-1
 459 40 l 2,44,45
 461 80 461 80 466 265 c 2,46,-1
 470 433 l 1,47,-1
 470 652 l 2,48,49
 470 848 470 848 459 873 c 128,-1,50
 448 898 448 898 434 898 c 0,51,52
 387 898 387 898 336 813 c 1,53,54
 330 693 330 693 330 660 c 2,55,-1
 330 433 l 1,56,-1
 339 91 l 2,57,58
 339 66 339 66 341 42 c 2,59,-1
 343 11 l 1,60,-1
 344 0 l 1,61,-1
 92 0 l 1,62,-1
 92 11 l 1,63,-1
 93 41 l 2,64,65
 103 349 103 349 103 438 c 2,66,-1
 103 618 l 2,67,68
 103 772 103 772 94 860.5 c 128,-1,69
 85 949 85 949 59 1045 c 1,70,-1
 49 1080 l 1,71,-1
 46 1094 l 1,0,-1
EndSplineSet
EndChar

StartChar: n
Encoding: 110 110 81
Width: 1120
Flags: W
HStem: 0 21G<147 402 763 1017> 898 223<551.247 742.679> 1074 20G<103 329>
VStem: 114 220<975.655 1094> 159 230<0 720.967> 776 229<0 850.347>
LayerCount: 2
Fore
SplineSet
103 1094 m 1,0,-1
 328 1094 l 1,1,-1
 329 1085 l 1,2,-1
 334 1061 l 1,3,4
 344 1018 344 1018 351 972 c 1,5,6
 386 1009 386 1009 442 1045 c 0,7,8
 556 1121 556 1121 684 1121 c 128,-1,9
 812 1121 812 1121 909 1020 c 0,10,11
 963 963 963 963 984 888.5 c 128,-1,12
 1005 814 1005 814 1005 687 c 2,13,-1
 1005 439 l 1,14,-1
 1009 269 l 2,15,16
 1014 81 1014 81 1016 42 c 2,17,-1
 1017 11 l 1,18,-1
 1017 0 l 1,19,-1
 763 0 l 1,20,-1
 764 11 l 1,21,-1
 767 91 l 1,22,-1
 776 432 l 1,23,-1
 776 633 l 2,24,25
 776 800 776 800 744 852 c 0,26,27
 714.1 898 714.1 898 664.05 898 c 128,-1,28
 614 898 614 898 548.5 852 c 128,-1,29
 483 806 483 806 436 726 c 128,-1,30
 389 646 389 646 389 532 c 2,31,-1
 389 432 l 1,32,-1
 399 91 l 1,33,-1
 401 40 l 1,34,-1
 402 11 l 1,35,-1
 402 0 l 1,36,-1
 147 0 l 1,37,-1
 148 11 l 1,38,-1
 151 92 l 1,39,40
 159 399 159 399 159 437 c 2,41,-1
 159 516 l 1,42,43
 158 737 158 737 151 821 c 128,-1,44
 144 905 144 905 114 1047 c 1,45,-1
 103 1094 l 1,0,-1
EndSplineSet
EndChar

StartChar: o
Encoding: 111 111 82
Width: 1120
Flags: W
HStem: -27 223<421.086 701.068> 898 223<420.111 700.554>
VStem: 83 236<314.732 779.691> 801 236<312.239 785.43>
LayerCount: 2
Fore
SplineSet
83 544 m 0,0,1
 83 928 83 928 338 1064 c 0,2,3
 439 1121 439 1121 581.5 1121 c 128,-1,4
 724 1121 724 1121 849 1023 c 0,5,6
 1037 876 1037 876 1037 549 c 0,7,8
 1037 160 1037 160 782 30 c 1,9,10
 681 -27 681 -27 560 -27 c 0,11,12
 396 -27 396 -27 271 71 c 0,13,14
 83 217 83 217 83 544 c 0,0,1
319 547 m 128,-1,16
 319 196 319 196 560 196 c 128,-1,17
 801 196 801 196 801 544 c 0,18,19
 801 731 801 731 739.5 814.5 c 128,-1,20
 678 898 678 898 555 898 c 0,21,15
 319 898 319 898 319 547 c 128,-1,16
EndSplineSet
EndChar

StartChar: p
Encoding: 112 112 83
Width: 1120
Flags: W
HStem: -422 21G<129 383> -27 223<392.255 682.414> 896 223<439.701 694.983>
VStem: 141 229<-422 12 227.513 827> 814 236<339.164 760.158>
LayerCount: 2
Fore
SplineSet
70 1098 m 1,0,-1
 288 1124 l 1,1,-1
 297 1125 l 1,2,-1
 313 1070 l 2,3,4
 319 1052 319 1052 324 1032 c 1,5,6
 427 1119 427 1119 587.5 1119 c 128,-1,7
 748 1119 748 1119 885 991 c 0,8,9
 1050 836 1050 836 1050 545 c 128,-1,10
 1050 254 1050 254 868 92 c 0,11,12
 736.898305085 -27 736.898305085 -27 561 -27 c 0,13,14
 459 -27 459 -27 371 12 c 1,15,-1
 379 -324 l 1,16,-1
 381 -379 l 1,17,-1
 382 -411 l 1,18,-1
 383 -422 l 1,19,-1
 129 -422 l 1,20,-1
 129 -411 l 1,21,-1
 130 -379 l 2,22,23
 135 -212 135 -212 138.125 -121.75 c 128,-1,24
 141.25 -31.5 141.25 -31.5 141.25 -3.75 c 128,-1,25
 141.25 24 141.25 24 141 34 c 2,26,-1
 141 499 l 2,27,28
 141 708 141 708 136 786 c 128,-1,29
 131 864 131 864 114 940 c 1,30,-1
 82 1052 l 1,31,-1
 70 1098 l 1,0,-1
370 257 m 1,32,33
 445 196 445 196 530 196 c 128,-1,34
 615 196 615 196 679 237 c 0,35,36
 814 325 814 325 814 554 c 0,37,38
 814 734 814 734 720 829 c 0,39,40
 654 896 654 896 578 896 c 128,-1,41
 502 896 502 896 458.5 867 c 128,-1,42
 415 838 415 838 370 765 c 1,43,-1
 370 257 l 1,32,33
EndSplineSet
EndChar

StartChar: q
Encoding: 113 113 84
Width: 1120
Flags: W
HStem: -422 21G<737.003 991.003> -27 223<437.336 727.513> 896 223<425.469 680.661>
VStem: 69.9971 235.995<340.356 760.959> 750.003 229<-422 12 227.513 825.148>
LayerCount: 2
Fore
SplineSet
252.002929688 91 m 0,0,1
 69.9970703125 251.125 69.9970703125 251.125 69.9970703125 553.560546875 c 128,-1,2
 69.9970703125 855.995117188 69.9970703125 855.995117188 259.002929688 1012 c 0,3,4
 390.002929688 1119 390.002929688 1119 541.502929688 1119 c 128,-1,5
 693.002929688 1119 693.002929688 1119 796.002929688 1032 c 1,6,7
 804.002929688 1064 804.002929688 1064 813.002929688 1092 c 2,8,-1
 824.002929688 1125 l 1,9,-1
 1038.00292969 1100 l 1,10,-1
 1050.00292969 1098 l 1,11,-1
 1030.00292969 1023 l 1,12,13
 995.002929688 907 995.002929688 907 987.002929688 822.5 c 128,-1,14
 979.002929688 738 979.002929688 738 979.002929688 493 c 2,15,-1
 979.002929688 25 l 1,16,-1
 988.002929688 -324 l 1,17,-1
 990.002929688 -379 l 1,18,-1
 991.002929688 -411 l 1,19,-1
 991.002929688 -422 l 1,20,-1
 737.002929688 -422 l 1,21,-1
 738.002929688 -411 l 1,22,-1
 739.002929688 -379 l 2,23,24
 740.002929688 -337 740.002929688 -337 746.002929688 -133 c 1,25,-1
 749.002929688 12 l 1,26,27
 660.002929688 -27 660.002929688 -27 559.002929688 -27 c 0,28,29
 382.002929688 -27 382.002929688 -27 252.002929688 91 c 0,0,1
305.9921875 557.780273438 m 0,30,31
 305.9921875 325.006835938 305.9921875 325.006835938 441.002929688 237 c 0,32,33
 505.002929688 196 505.002929688 196 589.502929688 196 c 128,-1,34
 674.002929688 196 674.002929688 196 750.002929688 257 c 1,35,-1
 750.002929688 765 l 1,36,37
 704.002929688 839 704.002929688 839 659.502929688 867.5 c 128,-1,38
 615.002929688 896 615.002929688 896 557.002929688 896 c 0,39,40
 465.002929688 896 465.002929688 896 399.002929688 829 c 0,41,42
 305.9921875 735 305.9921875 735 305.9921875 557.780273438 c 0,30,31
EndSplineSet
EndChar

StartChar: r
Encoding: 114 114 85
Width: 1120
Flags: W
HStem: 0 21G<171 425> 898 223<594.961 740.302> 1074 20G<124 354>
VStem: 135 224<949.593 1094> 184 229<0 661.261> 766 230<670 891.292>
LayerCount: 2
Fore
SplineSet
124 1094 m 1,0,-1
 353 1094 l 1,1,-1
 354 1085 l 1,2,-1
 359 1061 l 1,3,4
 371 1009 371 1009 382 947 c 1,5,6
 427 1001 427 1001 505.5 1061 c 128,-1,7
 584 1121 584 1121 708 1121 c 128,-1,8
 832 1121 832 1121 911 1027 c 0,9,10
 956 972 956 972 973 907.5 c 128,-1,11
 990 843 990 843 995 713 c 2,12,-1
 996 681 l 1,13,-1
 996 670 l 1,14,-1
 766 670 l 1,15,-1
 766 712 l 1,16,17
 764 832 764 832 751 858.5 c 128,-1,18
 738 885 738 885 728 891.5 c 128,-1,19
 718 898 718 898 700 898 c 0,20,21
 628 898 628 898 547.5 809.5 c 128,-1,22
 467 721 467 721 432 595 c 0,23,24
 412 525 412 525 413 476 c 1,25,-1
 413 434 l 1,26,-1
 422 91 l 1,27,-1
 424 40 l 1,28,-1
 425 11 l 1,29,-1
 425 0 l 1,30,-1
 171 0 l 1,31,-1
 172 11 l 1,32,-1
 175 92 l 1,33,34
 184 421 184 421 184 439 c 2,35,-1
 184 517 l 2,36,37
 184 838 184 838 135 1046 c 1,38,-1
 124 1094 l 1,0,-1
EndSplineSet
EndChar

StartChar: s
Encoding: 115 115 86
Width: 1120
Flags: W
HStem: -27 223<448.164 731.965> 898 223<469.809 739.206>
VStem: 203 236<718.788 865.035> 765 236<225.79 400.342>
DStem2: 585 667 504 496 0.941742 -0.336336<-162.675 261.608>
LayerCount: 2
Fore
SplineSet
119 199 m 1,0,-1
 253 392 l 1,1,-1
 288 357 l 1,2,3
 456 196 456 196 621 196 c 0,4,5
 687 196 687 196 726 226.5 c 128,-1,6
 765 257 765 257 765 312 c 0,7,8
 765 403 765 403 616 456 c 2,9,-1
 504 496 l 1,10,11
 203 601.046979866 203 601.046979866 203 812 c 0,12,13
 203 926 203 926 305 1023.5 c 128,-1,14
 407 1121 407 1121 581.5 1121 c 128,-1,15
 756 1121 756 1121 903 1024 c 0,16,17
 947 994 947 994 962 984 c 2,18,-1
 984 969 l 1,19,-1
 992 964 l 1,20,-1
 885 765 l 1,21,-1
 847 791 l 1,22,23
 687 898 687 898 584 898 c 0,24,25
 523 898 523 898 481.5 864.5 c 128,-1,26
 440 831 440 831 439 793 c 0,27,28
 439 719 439 719 585 667 c 1,29,-1
 676 636 l 2,30,31
 761 606 761 606 833 566.5 c 128,-1,32
 905 527 905 527 953 454.5 c 128,-1,33
 1001 382 1001 382 1001 295 c 0,34,35
 1001 164 1001 164 894 68.5 c 128,-1,36
 787 -27 787 -27 626 -27 c 0,37,38
 386 -27 386 -27 148 174 c 1,39,-1
 119 199 l 1,0,-1
EndSplineSet
EndChar

StartChar: t
Encoding: 116 116 87
Width: 1120
Flags: W
HStem: -27 223<545.341 740.149> 879 215<53 295 527 915>
VStem: 295 230<234.175 879 1094 1434>
LayerCount: 2
Fore
SplineSet
53 879 m 1,0,-1
 53 1094 l 1,1,-1
 295 1094 l 1,2,-1
 285 1392 l 1,3,-1
 285 1434 l 1,4,-1
 539 1434 l 1,5,-1
 538 1423 l 1,6,-1
 537 1391 l 2,7,8
 533 1270 533 1270 527 1094 c 1,9,-1
 915 1094 l 1,10,-1
 915 879 l 1,11,-1
 525 879 l 1,12,-1
 525 384 l 2,13,14
 525 270 525 270 546 233 c 128,-1,15
 567 196 567 196 621 196 c 128,-1,16
 675 196 675 196 713 218 c 0,17,18
 775 254 775 254 823 356 c 1,19,-1
 837 387 l 1,20,-1
 1053 333 l 1,21,-1
 1067 329 l 1,22,-1
 1041 282 l 2,23,24
 1029 260 1029 260 1010 226 c 0,25,26
 873.46031746 -27 873.46031746 -27 616 -27 c 0,27,28
 454 -27 454 -27 364 82 c 0,29,30
 315 143 315 143 305 226 c 128,-1,31
 295 309 295 309 295 371 c 2,32,-1
 295 879 l 1,33,-1
 53 879 l 1,0,-1
EndSplineSet
EndChar

StartChar: u
Encoding: 117 117 88
Width: 1120
Flags: W
HStem: -27 223<376.565 572.243> 0 21G<788 1015> 1074 20G<105 356 718 969>
VStem: 115 229<246.045 1094> 730 229<369.807 1094>
LayerCount: 2
Fore
SplineSet
105 1053 m 2,0,-1
 105 1094 l 1,1,-1
 356 1094 l 1,2,-1
 356 1083 l 1,3,-1
 353 1003 l 1,4,-1
 344 662 l 1,5,-1
 344 461 l 2,6,7
 344 293 344 293 374 244.5 c 128,-1,8
 404 196 404 196 456.5 196 c 128,-1,9
 509 196 509 196 573.5 241 c 128,-1,10
 638 286 638 286 684 366.5 c 128,-1,11
 730 447 730 447 730 562 c 2,12,-1
 730 662 l 1,13,-1
 721 1003 l 1,14,-1
 719 1054 l 1,15,-1
 718 1083 l 1,16,-1
 718 1094 l 1,17,-1
 969 1094 l 1,18,-1
 969 1026 l 1,19,-1
 968 999 l 1,20,21
 959 685 959 685 959 656 c 2,22,-1
 959 577 l 1,23,24
 960 355 960 355 968 267.5 c 128,-1,25
 976 180 976 180 1004 47 c 1,26,-1
 1015 0 l 1,27,-1
 791 0 l 1,28,-1
 788 8 l 1,29,-1
 782 32 l 2,30,31
 772 73 772 73 765 122 c 1,32,33
 712 65 712 65 625.5 19 c 128,-1,34
 539 -27 539 -27 448 -27 c 0,35,36
 307 -27 307 -27 211 73 c 0,37,38
 157 129 157 129 136 204.5 c 128,-1,39
 115 280 115 280 115 406 c 2,40,-1
 115 654 l 1,41,-1
 111 824 l 1,42,-1
 106 999 l 2,43,44
 105 1032 105 1032 105 1053 c 2,0,-1
EndSplineSet
EndChar

StartChar: v
Encoding: 118 118 89
Width: 1120
Flags: W
HStem: -27 21G<437.758 682.242> 1100 20G<76 333.972 789 1044>
DStem2: 328 1120 92 1066 0.286103 -0.958199<0 679.279> 560 343 847 539 0.285404 0.958407<173.509 810.896>
LayerCount: 2
Fore
SplineSet
76 1120 m 1,0,-1
 328 1120 l 1,1,-1
 560 343 l 1,2,-1
 782 1090 l 1,3,-1
 789 1112 l 1,4,-1
 792 1120 l 1,5,-1
 1044 1120 l 1,6,-1
 847 539 l 2,7,8
 733 205 733 205 685 6 c 1,9,-1
 678 -27 l 1,10,-1
 442 -27 l 1,11,-1
 435 6 l 1,12,13
 388 201 388 201 272 539 c 2,14,-1
 92 1066 l 1,15,-1
 76 1120 l 1,0,-1
EndSplineSet
EndChar

StartChar: w
Encoding: 119 119 90
Width: 1120
Flags: W
HStem: -27 21G<195 431.242 687.741 923> 1100 20G<-1 268 850 1121>
DStem2: 771 418 1022 614 0.113227 0.993569<0 706.544>
LayerCount: 2
Fore
SplineSet
-1 1120 m 1,0,-1
 268 1120 l 1,1,-1
 268 1110 l 1,2,-1
 270 1082 l 1,3,-1
 272 1058 l 2,4,5
 300 723 300 723 348 414 c 1,6,7
 409 639 409 639 448 809 c 1,8,-1
 453 833 l 1,9,-1
 454 842 l 1,10,-1
 668 842 l 1,11,-1
 679 789 l 1,12,13
 722 604 722 604 771 418 c 1,14,15
 820 734 820 734 846 1058 c 2,16,-1
 848 1082 l 1,17,-1
 850 1110 l 1,18,-1
 851 1120 l 1,19,-1
 1121 1120 l 1,20,-1
 1107 1068 l 2,21,22
 1085 989 1085 989 1022 614 c 128,-1,23
 959 239 959 239 927 9 c 1,24,-1
 923 -18 l 1,25,-1
 922 -27 l 1,26,-1
 693 -27 l 1,27,-1
 561 475 l 1,28,29
 539 393 539 393 522 331 c 128,-1,30
 505 269 505 269 489 210.5 c 128,-1,31
 473 152 473 152 462 110 c 128,-1,32
 451 68 451 68 443.5 42.5 c 128,-1,33
 436 17 436 17 434 6 c 2,34,-1
 427 -27 l 1,35,-1
 197 -27 l 1,36,-1
 195 -18 l 1,37,-1
 191 9 l 2,38,39
 65 854 65 854 12 1069 c 2,40,-1
 3 1106 l 1,41,-1
 -1 1120 l 1,0,-1
EndSplineSet
EndChar

StartChar: x
Encoding: 120 120 91
Width: 1120
Flags: W
HStem: 0 21G<-39 260 849.275 1159> 1074 20G<46 336.296 787 1062>
VStem: 46 277<817 1094>
LayerCount: 2
Fore
SplineSet
-39 0 m 1,0,-1
 423 584 l 1,1,-1
 46 1094 l 1,2,-1
 323 1094 l 1,3,-1
 559 739 l 1,4,-1
 787 1089 l 1,5,-1
 790 1094 l 1,6,-1
 1062 1094 l 1,7,-1
 694 586 l 1,8,-1
 1159 0 l 1,9,-1
 863 0 l 1,10,-1
 559 443 l 1,11,-1
 260 5 l 1,12,-1
 257 0 l 1,13,-1
 -39 0 l 1,0,-1
EndSplineSet
EndChar

StartChar: y
Encoding: 121 121 92
Width: 1120
Flags: W
HStem: -338 223<243.82 375.709> 1074 20G<131 393.162 881 1140>
LayerCount: 2
Fore
SplineSet
-20 -36 m 1,0,-1
 168 61 l 1,1,-1
 179 66 l 1,2,-1
 196 24 l 2,3,4
 203 7 203 7 207 -2 c 0,5,6
 253 -115 253 -115 309 -115 c 0,7,8
 333 -115 333 -115 353 -98 c 128,-1,9
 373 -81 373 -81 419 -3.5 c 128,-1,10
 465 74 465 74 502 169 c 1,11,-1
 131 1094 l 1,12,-1
 386 1094 l 1,13,-1
 627 421 l 1,14,-1
 881 1087 l 1,15,-1
 884 1094 l 1,16,-1
 1140 1094 l 1,17,-1
 696 50 l 2,18,19
 612 -145 612 -145 536 -224 c 1,20,21
 437 -338 437 -338 309 -338 c 0,22,23
 144 -338 144 -338 46 -188 c 0,24,25
 21 -151 21 -151 -7 -70 c 1,26,-1
 -16 -45 l 1,27,-1
 -20 -36 l 1,0,-1
EndSplineSet
EndChar

StartChar: z
Encoding: 122 122 93
Width: 1120
Flags: W
HStem: 0 215<412 1028> 879 215<180 686>
DStem2: 107 175 412 215 0.633413 0.773814<224.143 911.511>
LayerCount: 2
Fore
SplineSet
1003 937 m 1,0,-1
 990 921 l 1,1,-1
 990 920 l 1,2,3
 619 473 619 473 412 215 c 1,4,-1
 1028 215 l 1,5,-1
 1028 0 l 1,6,-1
 92 0 l 1,7,-1
 92 157 l 1,8,-1
 100 168 l 1,9,-1
 101 168 l 1,10,-1
 107 175 l 1,11,12
 488 632 488 632 686 879 c 1,13,-1
 180 879 l 1,14,-1
 180 1094 l 1,15,-1
 1003 1094 l 1,16,-1
 1003 937 l 1,0,-1
EndSplineSet
EndChar

StartChar: braceleft
Encoding: 123 123 94
Width: 1120
Flags: W
HStem: -91 215<552.075 941> 1351 215<541.036 941>
VStem: 296 229<152.316 583.723 880.793 1333.48>
LayerCount: 2
Fore
SplineSet
129 632 m 5,0,-1
 129 836 l 5,1,-1
 162 843 l 6,2,3
 212 854 212 854 254 879.5 c 128,-1,4
 296 905 296 905 296 978 c 2,5,-1
 296 1232 l 2,6,7
 296 1410 296 1410 382.5 1488 c 128,-1,8
 469 1566 469 1566 660 1566 c 2,9,-1
 941 1566 l 1,10,-1
 941 1351 l 1,11,-1
 671 1351 l 2,12,13
 548 1351 548 1351 532 1290 c 0,14,15
 525 1264 525 1264 525 1189 c 2,16,-1
 525 970 l 2,17,18
 525 864 525 864 475.5 814 c 128,-1,19
 426 764 426 764 390 731 c 5,20,21
 525 606 525 606 525 492 c 2,22,-1
 525 293 l 2,23,24
 525 210 525 210 531.5 186 c 128,-1,25
 538 162 538 162 551 152 c 0,26,27
 585 124 585 124 671 124 c 2,28,-1
 941 124 l 1,29,-1
 941 -91 l 1,30,-1
 667 -91 l 2,31,32
 479 -91 479 -91 387.5 -8.5 c 128,-1,33
 296 74 296 74 296 264 c 2,34,-1
 296 487 l 2,35,36
 296 560 296 560 253.5 585 c 128,-1,37
 211 610 211 610 160 623 c 6,38,-1
 137 629 l 5,39,-1
 129 632 l 5,0,-1
EndSplineSet
EndChar

StartChar: bar
Encoding: 124 124 95
Width: 1120
Flags: W
VStem: 451.5 217<-464 1668>
LayerCount: 2
Fore
SplineSet
451.5 -464 m 1,0,-1
 451.5 1668 l 1,1,-1
 668.5 1668 l 1,2,-1
 668.5 -464 l 1,3,-1
 451.5 -464 l 1,0,-1
EndSplineSet
EndChar

StartChar: braceright
Encoding: 125 125 96
Width: 1120
Flags: W
HStem: -91 215<179 576.597> 1351 215<179 580.721>
VStem: 595 229<146.122 583.723 880.308 1333.35>
LayerCount: 2
Fore
SplineSet
179 -91 m 1,0,-1
 179 124 l 1,1,-1
 449 124 l 2,2,3
 572 124 572 124 588 186 c 0,4,5
 595 213 595 213 595 293 c 2,6,-1
 595 492 l 2,7,8
 595 604 595 604 731 731 c 5,9,10
 696 761 696 761 645.5 811.5 c 128,-1,11
 595 862 595 862 595 970 c 2,12,-1
 595 1189 l 2,13,14
 595 1267 595 1267 589 1290 c 0,15,16
 573 1351 573 1351 449 1351 c 2,17,-1
 179 1351 l 1,18,-1
 179 1566 l 1,19,-1
 460 1566 l 2,20,21
 560 1566 560 1566 623 1550.5 c 128,-1,22
 686 1535 686 1535 733 1491 c 0,23,24
 824 1407 824 1407 824 1232 c 2,25,-1
 824 978 l 2,26,27
 824 905 824 905 865.5 879.5 c 128,-1,28
 907 854 907 854 958 843 c 6,29,-1
 991 836 l 5,30,-1
 991 632 l 5,31,-1
 983 629 l 5,32,-1
 960 623 l 6,33,34
 908 609 908 609 866 584.5 c 128,-1,35
 824 560 824 560 824 487 c 2,36,-1
 824 264 l 2,37,38
 824 74 824 74 733 -8.5 c 128,-1,39
 642 -91 642 -91 454 -91 c 2,40,-1
 179 -91 l 1,0,-1
EndSplineSet
EndChar

StartChar: asciitilde
Encoding: 126 126 97
Width: 1120
Flags: W
HStem: 436 264<658 808> 661 254<292 428>
LayerCount: 2
Fore
SplineSet
60 477 m 1,0,-1
 63.2001953125 515 l 2,1,2
 67.2001953125 559 67.2001953125 559 68 569 c 0,3,4
 82.400390625 713 82.400390625 713 158.400390625 814 c 128,-1,5
 234.400390625 915 234.400390625 915 340.400390625 915 c 128,-1,6
 446.400390625 915 446.400390625 915 608 784 c 0,7,8
 674.400390625 730 674.400390625 730 700.799804688 715 c 128,-1,9
 727.200195312 700 727.200195312 700 748 700 c 0,10,11
 813.599609375 700 813.599609375 700 852 868 c 2,12,-1
 857.599609375 893 l 1,13,-1
 859.200195312 902 l 1,14,-1
 1050.40039062 875 l 1,15,-1
 1060 874 l 1,16,-1
 1052 829 l 2,17,18
 1034.40039062 726 1034.40039062 726 1011.20019531 665 c 0,19,20
 967.200195312 557 967.200195312 557 895.200195312 496.5 c 128,-1,21
 823.200195312 436 823.200195312 436 760.799804688 436 c 128,-1,22
 698.400390625 436 698.400390625 436 647.200195312 461 c 128,-1,23
 596 486 596 486 510.400390625 555.5 c 0,24,25
 380.459960938 661 380.459960938 661 342.629882812 661 c 128,-1,26
 304.799804688 661 304.799804688 661 280 587 c 0,27,28
 268 553 268 553 253.599609375 464 c 1,29,-1
 247.200195312 421 l 1,30,-1
 89.599609375 469 l 1,31,-1
 68 475 l 1,32,-1
 60 477 l 1,0,-1
EndSplineSet
EndChar

StartChar: exclamdown
Encoding: 161 161 98
Width: 1120
Flags: W
HStem: 753 372<438.921 679.9>
VStem: 374 372<817.336 1058.9> 415 286<-442 -24.0585> 445 217<236.192 632>
LayerCount: 2
Fore
SplineSet
374 939 m 128,-1,1
 374 1017 374 1017 428.5 1071 c 128,-1,2
 483 1125 483 1125 560.5 1125 c 128,-1,3
 638 1125 638 1125 692 1070 c 128,-1,4
 746 1015 746 1015 746 938 c 128,-1,5
 746 861 746 861 692 807 c 128,-1,6
 638 753 638 753 560 753 c 128,-1,7
 482 753 482 753 428 807 c 128,-1,0
 374 861 374 861 374 939 c 128,-1,1
415 -431 m 1,8,-1
 444 591 l 5,9,-1
 445 621 l 5,10,-1
 445 632 l 5,11,-1
 662 632 l 5,12,-1
 662 621 l 5,13,-1
 700 -399 l 1,14,-1
 701 -431 l 1,15,-1
 701 -442 l 1,16,-1
 415 -442 l 1,17,-1
 415 -431 l 1,8,-1
EndSplineSet
EndChar

StartChar: cent
Encoding: 162 162 99
Width: 1120
Flags: W
VStem: 72 236<537.461 1025.9> 461 229<-104 192.25 416 1148 1373.32 1578>
LayerCount: 2
Fore
SplineSet
72 784 m 0,0,1
 72 1162 72 1162 320 1320 c 0,2,3
 390 1365 390 1365 461 1380 c 1,4,-1
 461 1578 l 1,5,-1
 690 1578 l 1,6,-1
 690 1386 l 1,7,8
 736 1378 736 1378 807 1340 c 128,-1,9
 878 1302 878 1302 916 1262.5 c 128,-1,10
 954 1223 954 1223 1021 1136 c 1,11,-1
 1048 1099 l 1,12,-1
 834 960 l 1,13,-1
 814 1003 l 1,14,15
 762 1112 762 1112 690 1151 c 1,16,-1
 690 410 l 1,17,18
 767 451 767 451 846 545 c 1,19,-1
 876 580 l 1,20,-1
 1041 412 l 1,21,-1
 979 350 l 2,22,23
 855 225 855 225 690 182 c 1,24,-1
 690 -104 l 1,25,-1
 461 -104 l 1,26,-1
 461 181 l 1,27,28
 293 219 293 219 184 369 c 0,29,30
 72 523 72 523 72 784 c 0,0,1
308 781 m 128,-1,32
 308 500 308 500 461 416 c 1,33,-1
 461 1148 l 1,34,31
 308 1062 308 1062 308 781 c 128,-1,32
EndSplineSet
EndChar

StartChar: sterling
Encoding: 163 163 100
Width: 1120
Flags: W
HStem: -69 223<678.566 894.338> 5 223<477.746 663.111> 716 215<19 206 505 865> 1321 223<473.607 743.32>
VStem: 173 236<935.141 1258.6> 305.01 236.016<315.555 711.171>
LayerCount: 2
Fore
SplineSet
19 716 m 1,0,-1
 19 931 l 1,1,-1
 206 931 l 1,2,3
 173 1070 173 1070 173 1139 c 128,-1,4
 173 1208 173 1208 202 1281 c 128,-1,5
 231 1354 231 1354 279.5 1411.5 c 128,-1,6
 328 1469 328 1469 419 1506.5 c 128,-1,7
 510 1544 510 1544 613 1544 c 128,-1,8
 716 1544 716 1544 815.5 1495 c 128,-1,9
 915 1446 915 1446 976 1359 c 0,10,11
 993 1334 993 1334 1033 1258 c 1,12,-1
 1049 1226 l 1,13,-1
 1055 1215 l 1,14,-1
 833 1141 l 1,15,-1
 817 1173 l 2,16,17
 810 1186 810 1186 806 1196 c 0,18,19
 742 1321 742 1321 612 1321 c 0,20,21
 567 1321 567 1321 523 1304 c 0,22,23
 409 1260 409 1260 409 1130 c 0,24,25
 409 1058 409 1058 441 931 c 1,26,-1
 865 931 l 1,27,-1
 865 716 l 1,28,-1
 505 716 l 1,29,30
 541.026315789 571.894736842 541.026315789 571.894736842 541.026315789 465.711911357 c 0,31,32
 541.026315789 462.842105263 541.026315789 462.842105263 541 460 c 0,33,34
 541 354 541 354 477 226 c 1,35,36
 499 228 499 228 521 228 c 0,37,38
 614 228 614 228 696.5 191 c 128,-1,39
 779 154 779 154 800 154 c 0,40,41
 849 154 849 154 926 225 c 2,42,-1
 949 246 l 1,43,-1
 957 254 l 1,44,-1
 1094 102 l 1,45,-1
 1101 95 l 1,46,-1
 1072 66 l 2,47,48
 1026 20 1026 20 998.5 -2.5 c 128,-1,49
 971 -25 971 -25 916 -47 c 128,-1,50
 861 -69 861 -69 796 -69 c 128,-1,51
 731 -69 731 -69 661.5 -38.5 c 128,-1,52
 592 -8 592 -8 567.5 -1.5 c 128,-1,53
 543 5 543 5 504.5 5 c 128,-1,54
 466 5 466 5 443 -1 c 128,-1,55
 420 -7 420 -7 354 -34.5 c 128,-1,56
 288 -62 288 -62 277 -69 c 2,57,-1
 253 -83 l 1,58,-1
 245 -89 l 1,59,-1
 128 63 l 1,60,-1
 123 69 l 1,61,-1
 139 95 l 1,62,63
 157 122 157 122 207 211 c 0,64,65
 305.01 384.25 305.01 384.25 305.01 472.604605263 c 128,-1,66
 305.01 560.959210526 305.01 560.959210526 267 716 c 1,67,-1
 19 716 l 1,0,-1
EndSplineSet
EndChar

StartChar: currency
Encoding: 164 164 101
Width: 1120
Flags: W
HStem: 358 209<446.74 671.937> 931 209<448.227 670.532>
VStem: 184 209<621.514 875.671> 726 209.506<622.225 874.459>
DStem2: 181 1295 21 1135 0.70059 -0.713564<2.07582 296.89 1013.37 1310.29> 21 360 188 209 0.700533 0.71362<0 295.93 1014.46 1308.23>
LayerCount: 2
Fore
SplineSet
21 360 m 1,0,-1
 225 569 l 1,1,2
 184 651 184 651 184 749 c 128,-1,3
 184 847 184 847 225 929 c 1,4,-1
 21 1135 l 1,5,-1
 181 1295 l 1,6,-1
 378 1094 l 1,7,8
 462 1140 462 1140 561.5 1140 c 128,-1,9
 661 1140 661 1140 743 1094 c 1,10,-1
 931 1287 l 1,11,-1
 938 1295 l 1,12,-1
 1099 1135 l 1,13,-1
 895 929 l 1,14,15
 935.506024096 846.012048193 935.506024096 846.012048193 935.506024096 750.536732295 c 128,-1,16
 935.506024096 655.061416397 935.506024096 655.061416397 894 568 c 1,17,-1
 1099 360 l 1,18,-1
 937 201 l 1,19,-1
 741 403 l 1,20,21
 659 358 659 358 559 358 c 128,-1,22
 459 358 459 358 378 403 c 1,23,-1
 188 209 l 1,24,-1
 181 201 l 1,25,-1
 21 360 l 1,0,-1
393 749 m 128,-1,27
 393 669 393 669 440.5 618 c 128,-1,28
 488 567 488 567 559.5 567 c 128,-1,29
 631 567 631 567 678.5 618 c 128,-1,30
 726 669 726 669 726 748 c 128,-1,31
 726 827 726 827 678 879 c 128,-1,32
 630 931 630 931 560 931 c 128,-1,33
 490 931 490 931 441.5 880 c 128,-1,26
 393 829 393 829 393 749 c 128,-1,27
EndSplineSet
EndChar

StartChar: yen
Encoding: 165 165 102
Width: 1120
Flags: W
HStem: 452 215<160 422 698 959> 792 215<95 273 845 1023>
VStem: 445 230<-42 452>
DStem2: 299 1517 42 1517 0.408131 -0.912924<0 454.98> 560 904 845 1007 0.408131 0.912924<210.348 665.736>
LayerCount: 2
Fore
SplineSet
42 1517 m 1,0,-1
 299 1517 l 1,1,-1
 310 1491 l 1,2,3
 440 1172 440 1172 560 904 c 1,4,5
 675 1161 675 1161 809 1491 c 1,6,-1
 820 1517 l 1,7,-1
 1078 1517 l 1,8,-1
 1051 1457 l 1,9,10
 948 1232 948 1232 845 1007 c 5,11,-1
 1023 1007 l 5,12,-1
 1023 792 l 5,13,-1
 750 792 l 5,14,-1
 698 667 l 1,15,-1
 959 667 l 1,16,-1
 959 452 l 1,17,-1
 675 452 l 1,18,-1
 675 430 l 1,19,-1
 684 57 l 1,20,-1
 686 1 l 1,21,-1
 687 -31 l 1,22,-1
 687 -42 l 1,23,-1
 433 -42 l 1,24,-1
 433 -31 l 1,25,-1
 434 1 l 2,26,27
 440.659192825 231.408071749 440.659192825 231.408071749 441 247 c 2,28,-1
 445 430 l 1,29,-1
 445 452 l 1,30,-1
 160 452 l 1,31,-1
 160 667 l 1,32,-1
 422 667 l 1,33,-1
 368 792 l 1,34,-1
 95 792 l 1,35,-1
 95 1007 l 1,36,-1
 273 1007 l 1,37,-1
 42 1517 l 1,0,-1
EndSplineSet
EndChar

StartChar: brokenbar
Encoding: 166 166 103
Width: 1120
Flags: W
VStem: 451.5 217<-464 317 890 1668>
LayerCount: 2
Fore
SplineSet
451.5 -464 m 1,0,-1
 451.5 317 l 1,1,-1
 668.5 317 l 1,2,-1
 668.5 -464 l 1,3,-1
 451.5 -464 l 1,0,-1
451.5 890 m 1,4,-1
 451.5 1668 l 1,5,-1
 668.5 1668 l 1,6,-1
 668.5 890 l 1,7,-1
 451.5 890 l 1,4,-1
EndSplineSet
EndChar

StartChar: section
Encoding: 167 167 104
Width: 1120
Flags: W
HStem: -143 223<439.536 665.192> 1099 21G<709.747 937.747> 1321 223<454.187 680.69>
VStem: 107.747 223<762.841 915.654> 180.747 230<114.042 304> 189.747 236<1135.3 1294.38> 693.747 236<104.995 266.718> 709.747 228<1099 1286.96> 789.747 222.5<487.312 639.32>
DStem2: 532.247 639.5 248.247 569 0.798041 -0.602603<-278.681 268.77> 456.747 1145.5 376.747 918 0.799421 -0.600771<65.4311 612.618>
LayerCount: 2
Fore
SplineSet
107.747070312 822 m 0,0,1
 107.747070312 972 107.747070312 972 229.747070312 1064 c 1,2,3
 189.747070312 1133 189.747070312 1133 189.747070312 1224 c 0,4,5
 189.747070312 1367 189.747070312 1367 290.747070312 1455.5 c 128,-1,6
 391.747070312 1544 391.747070312 1544 555.747070312 1544 c 0,7,8
 761.747070312 1544 761.747070312 1544 868.747070312 1414 c 0,9,10
 942.747070312 1322 942.747070312 1322 943.747070312 1201 c 0,11,12
 943.747070312 1186 943.747070312 1186 939.747070312 1138 c 2,13,-1
 937.747070312 1109 l 1,14,-1
 937.747070312 1099 l 1,15,-1
 709.747070312 1099 l 1,16,-1
 709.747070312 1180 l 2,17,18
 709.747070312 1255 709.747070312 1255 676.747070312 1288 c 128,-1,19
 643.747070312 1321 643.747070312 1321 570.247070312 1321 c 128,-1,20
 496.747070312 1321 496.747070312 1321 461.247070312 1293.5 c 128,-1,21
 425.747070312 1266 425.747070312 1266 425.747070312 1219.5 c 128,-1,22
 425.747070312 1173 425.747070312 1173 456.747070312 1145.5 c 128,-1,23
 487.747070312 1118 487.747070312 1118 656.247070312 995.5 c 128,-1,24
 824.747070312 873 824.747070312 873 871.247070312 834 c 128,-1,25
 917.747070312 795 917.747070312 795 945.747070312 754 c 0,26,27
 1011.74707031 664 1011.74707031 664 1012.24707031 582 c 128,-1,28
 1012.74707031 500 1012.74707031 500 975.747070312 438 c 128,-1,29
 938.747070312 376 938.747070312 376 889.747070312 338 c 1,30,31
 929.747070312 269 929.747070312 269 929.747070312 187.5 c 0,32,33
 929.747070312 33 929.747070312 33 827.747070312 -55 c 128,-1,34
 725.747070312 -143 725.747070312 -143 565.747070312 -143 c 0,35,36
 357.747070312 -143 357.747070312 -143 251.747070312 -12 c 0,37,38
 177.747070312 80 177.747070312 80 177.747070312 204 c 0,39,40
 177.747070312 216 177.747070312 216 179.747070312 263 c 2,41,-1
 180.747070312 293 l 1,42,-1
 180.747070312 304 l 1,43,-1
 410.747070312 304 l 1,44,-1
 410.747070312 223 l 2,45,46
 410.747070312 146 410.747070312 146 443.247070312 113 c 128,-1,47
 475.747070312 80 475.747070312 80 549.247070312 80 c 128,-1,48
 622.747070312 80 622.747070312 80 658.247070312 107.5 c 128,-1,49
 693.747070312 135 693.747070312 135 693.747070312 182 c 128,-1,50
 693.747070312 229 693.747070312 229 664.747070312 254.5 c 128,-1,51
 635.747070312 280 635.747070312 280 465.247070312 405 c 128,-1,52
 294.747070312 530 294.747070312 530 248.247070312 569 c 128,-1,53
 201.747070312 608 201.747070312 608 173.747070312 648 c 0,54,55
 107.747070312 737 107.747070312 737 107.747070312 822 c 0,0,1
376.747070312 918 m 1,56,57
 330.747070312 889.888671875 330.747070312 889.888671875 330.747070312 836 c 0,58,59
 330.747070312 808 330.747070312 808 368.247070312 769 c 128,-1,60
 405.747070312 730 405.747070312 730 532.247070312 639.5 c 128,-1,61
 658.747070312 549 658.747070312 549 742.747070312 485 c 1,62,63
 789.747070312 513.72265625 789.747070312 513.72265625 789.747070312 568 c 0,64,65
 789.747070312 596 789.747070312 596 752.747070312 633.5 c 128,-1,66
 715.747070312 671 715.747070312 671 589.247070312 762.5 c 128,-1,67
 462.747070312 854 462.747070312 854 376.747070312 918 c 1,56,57
EndSplineSet
EndChar

StartChar: dieresis
Encoding: 168 168 105
Width: 1120
Flags: W
HStem: 1186 345<259.896 490.547 628.896 859.053>
VStem: 203 345<1243.94 1473.54> 572 345<1243.95 1473.55>
LayerCount: 2
Fore
SplineSet
203 1359.5 m 128,-1,1
 203 1431 203 1431 253.5 1481 c 128,-1,2
 304 1531 304 1531 376 1531 c 128,-1,3
 448 1531 448 1531 498 1480 c 128,-1,4
 548 1429 548 1429 548 1357.5 c 128,-1,5
 548 1286 548 1286 497 1236 c 128,-1,6
 446 1186 446 1186 375 1186 c 128,-1,7
 304 1186 304 1186 253.5 1237 c 128,-1,0
 203 1288 203 1288 203 1359.5 c 128,-1,1
572 1358.5 m 128,-1,9
 572 1431 572 1431 622.5 1481 c 128,-1,10
 673 1531 673 1531 745 1531 c 128,-1,11
 817 1531 817 1531 867 1480 c 128,-1,12
 917 1429 917 1429 917 1358 c 128,-1,13
 917 1287 917 1287 866 1236.5 c 128,-1,14
 815 1186 815 1186 744 1186 c 128,-1,15
 673 1186 673 1186 622.5 1236 c 128,-1,8
 572 1286 572 1286 572 1358.5 c 128,-1,9
EndSplineSet
EndChar

StartChar: copyright
Encoding: 169 169 106
Width: 1120
Flags: W
HStem: 500 146<415.037 700.956> 672 146<496.176 616.245> 1150 147<499.131 611.866> 1332 146<417.854 705.861>
VStem: 113 151<809.708 1167.19> 324 152<830.017 1132.26> 621 158<1084 1139.65> 626 151<826.772 899> 855 152<810.221 1167.53>
LayerCount: 2
Fore
SplineSet
113 987 m 0,0,1
 113 1174 113 1174 226 1314 c 0,2,3
 288 1390 288 1390 377.5 1434 c 128,-1,4
 467 1478 467 1478 571.5 1478 c 128,-1,5
 676 1478 676 1478 781 1412 c 128,-1,6
 886 1346 886 1346 946.5 1232.5 c 128,-1,7
 1007 1119 1007 1119 1007 989 c 0,8,9
 1007 804 1007 804 893 665 c 0,10,11
 758 500 758 500 547 500 c 0,12,13
 442 500 442 500 337 566.5 c 128,-1,14
 232 633 232 633 172.5 745.5 c 128,-1,15
 113 858 113 858 113 987 c 0,0,1
420.5 1289 m 128,-1,17
 351 1246 351 1246 307.5 1164.5 c 128,-1,18
 264 1083 264 1083 264 968.5 c 128,-1,19
 264 854 264 854 350 750 c 128,-1,20
 436 646 436 646 566 646 c 0,21,22
 630 646 630 646 699.5 689 c 128,-1,23
 769 732 769 732 812 812.5 c 128,-1,24
 855 893 855 893 855 989 c 0,25,26
 855 1125 855 1125 770 1228.5 c 128,-1,27
 685 1332 685 1332 554 1332 c 0,28,16
 490 1332 490 1332 420.5 1289 c 128,-1,17
324 973 m 0,29,30
 324 1297 324 1297 570 1297 c 0,31,32
 648 1297 648 1297 705 1255 c 128,-1,33
 762 1213 762 1213 770 1146 c 1,34,-1
 779 1084 l 1,35,-1
 621 1084 l 1,36,-1
 618 1111 l 2,37,38
 616 1129 616 1129 612 1140 c 128,-1,39
 608 1151 608 1151 566 1150 c 0,40,41
 476 1149 476 1149 476 983.5 c 128,-1,42
 476 818 476 818 558 818 c 0,43,44
 596 818 596 818 609 826.5 c 128,-1,45
 622 835 622 835 626 871 c 2,46,-1
 629 899 l 1,47,-1
 786 899 l 1,48,-1
 781 863 l 2,49,50
 779 850 779 850 777 837 c 0,51,52
 768 772 768 772 728 732 c 0,53,54
 668 672 668 672 556 672 c 128,-1,55
 444 672 444 672 384 752 c 128,-1,56
 324 832 324 832 324 973 c 0,29,30
EndSplineSet
EndChar

StartChar: ordfeminine
Encoding: 170 170 107
Width: 1120
Flags: W
HStem: 501 190<466.108 590.205> 882 190<466.536 614.714> 1119 191<386.198 605.974>
VStem: 257 198<704.042 872.722> 618 194<720.496 878.481>
LayerCount: 2
Fore
SplineSet
257 782 m 128,-1,1
 257 905 257 905 332 988.5 c 128,-1,2
 407 1072 407 1072 528 1072 c 0,3,4
 565 1072 565 1072 616 1058 c 1,5,6
 612 1083 612 1083 600.5 1101 c 128,-1,7
 589 1119 589 1119 554 1119 c 128,-1,8
 519 1119 519 1119 492.5 1112 c 128,-1,9
 466 1105 466 1105 387 1075 c 2,10,-1
 355 1063 l 1,11,-1
 344 1058 l 1,12,-1
 297 1234 l 1,13,-1
 294 1244 l 1,14,-1
 304 1247 l 1,15,-1
 330 1257 l 2,16,17
 466 1310 466 1310 568.5 1310 c 128,-1,18
 671 1310 671 1310 741.5 1229.5 c 128,-1,19
 812 1149 812 1149 812 1018 c 2,20,-1
 812 780 l 2,21,22
 812 666 812 666 845 567 c 1,23,-1
 863 518 l 1,24,-1
 679 495 l 1,25,-1
 670 494 l 1,26,-1
 659 527 l 2,27,28
 657 533 657 533 655 536 c 128,-1,29
 653 539 653 539 651 544 c 1,30,31
 585 501 585 501 489 501 c 128,-1,32
 393 501 393 501 325 580 c 128,-1,0
 257 659 257 659 257 782 c 128,-1,1
541 882 m 0,33,34
 455 882 455 882 455 773 c 0,35,36
 455 732 455 732 472 711.5 c 128,-1,37
 489 691 489 691 513 691 c 0,38,39
 562 691 562 691 618 769 c 1,40,-1
 618 867 l 1,41,42
 570 882 570 882 541 882 c 0,33,34
EndSplineSet
EndChar

StartChar: guillemotleft
Encoding: 171 171 108
Width: 1120
Flags: W
DStem2: 300 741 15 741 0.724223 -0.689566<0 629.587> 15 741 300 741 0.727213 0.686412<207.256 833.319> 647 741 362 741 0.723654 -0.690163<0 629.584> 362 741 647 741 0.727246 0.686376<207.265 831.905>
LayerCount: 2
Fore
SplineSet
15 741 m 1,0,-1
 621 1313 l 1,1,-1
 758 1171 l 1,2,-1
 300 741 l 1,3,-1
 758 309 l 1,4,-1
 621 164 l 1,5,-1
 15 741 l 1,0,-1
362 741 m 1,6,-1
 967 1312 l 1,7,-1
 1105 1171 l 1,8,-1
 647 741 l 1,9,-1
 1105 309 l 1,10,-1
 967 164 l 1,11,-1
 362 741 l 1,6,-1
EndSplineSet
EndChar

StartChar: logicalnot
Encoding: 172 172 109
Width: 1120
Flags: W
HStem: 452 180<38.5 894.5>
VStem: 894.5 187<-42 452>
LayerCount: 2
Fore
SplineSet
38.5 452 m 1,0,-1
 38.5 632 l 1,1,-1
 1081.5 632 l 1,2,-1
 1081.5 -42 l 1,3,-1
 894.5 -42 l 1,4,-1
 894.5 452 l 1,5,-1
 38.5 452 l 1,0,-1
EndSplineSet
EndChar

StartChar: uni00AD
Encoding: 173 173 110
Width: 1120
Flags: W
HStem: 626 215<251.5 868.5>
VStem: 251.5 617<626 841>
LayerCount: 2
Fore
SplineSet
251.5 626 m 1,0,-1
 251.5 841 l 1,1,-1
 868.5 841 l 1,2,-1
 868.5 626 l 1,3,-1
 251.5 626 l 1,0,-1
EndSplineSet
EndChar

StartChar: registered
Encoding: 174 174 111
Width: 1120
Flags: W
HStem: 500 146<421.525 700.799> 1157 140<519 610.456> 1332 146<435.702 702.274>
VStem: 114 152<808.519 1167.54> 364 155<739 902 1042 1157> 628 152.036<1051.04 1150.01> 854 152<806.787 1165.32>
LayerCount: 2
Fore
SplineSet
114 986 m 0,0,1
 114 1173 114 1173 226 1312 c 0,2,3
 360 1478 360 1478 572 1478 c 0,4,5
 676 1478 676 1478 780.5 1412 c 128,-1,6
 885 1346 885 1346 945.5 1231 c 128,-1,7
 1006 1116 1006 1116 1006 988 c 0,8,9
 1006 807 1006 807 892 665 c 0,10,11
 758 500 758 500 546 500 c 0,12,13
 440 500 440 500 336 566.5 c 128,-1,14
 232 633 232 633 173 745.5 c 128,-1,15
 114 858 114 858 114 986 c 0,0,1
266 993.5 m 128,-1,17
 266 854 266 854 346 755 c 0,18,19
 352 747 352 747 360 739 c 1,20,-1
 360 747 l 1,21,-1
 364 868 l 1,22,-1
 364 1116 l 1,23,-1
 360 1238 l 1,24,16
 266 1133 266 1133 266 993.5 c 128,-1,17
420 690 m 1,25,26
 491 646 491 646 563.5 646 c 128,-1,27
 636 646 636 646 704 690 c 1,28,-1
 694 690 l 1,29,-1
 544 902 l 1,30,-1
 519 902 l 1,31,-1
 519 867 l 1,32,-1
 524 721 l 1,33,-1
 524 690 l 1,34,-1
 420 690 l 1,25,26
434 1297 m 1,35,-1
 554 1297 l 2,36,37
 698 1297 698 1297 754 1206 c 0,38,39
 780.035714286 1163.57142857 780.035714286 1163.57142857 780.035714286 1107.19515306 c 0,40,41
 780.035714286 1001.02423469 780.035714286 1001.02423469 696 944 c 1,42,-1
 804 796 l 1,43,44
 854 882 854 882 854 1001 c 128,-1,45
 854 1120 854 1120 769 1226 c 128,-1,46
 684 1332 684 1332 556 1332 c 0,47,48
 496 1332 496 1332 434 1297 c 1,35,-1
519 1042 m 1,49,-1
 546 1042 l 2,50,51
 593 1042 593 1042 610.5 1056 c 128,-1,52
 628 1070 628 1070 628 1103 c 128,-1,53
 628 1136 628 1136 611 1146.5 c 128,-1,54
 594 1157 594 1157 524 1157 c 2,55,-1
 519 1157 l 1,56,-1
 519 1042 l 1,49,-1
EndSplineSet
EndChar

StartChar: macron
Encoding: 175 175 112
Width: 1120
Flags: W
HStem: 1691 227<-9 1129>
LayerCount: 2
Fore
SplineSet
-9 1691 m 1,0,-1
 -9 1918 l 1,1,-1
 1129 1918 l 1,2,-1
 1129 1691 l 1,3,-1
 -9 1691 l 1,0,-1
EndSplineSet
EndChar

StartChar: degree
Encoding: 176 176 113
Width: 1120
Flags: W
HStem: 813 223<450.367 670.069> 1327 223<451.547 669.389>
VStem: 169 236<1080.94 1281.3> 715 236<1081.09 1283.11>
LayerCount: 2
Fore
SplineSet
169 1183 m 128,-1,1
 169 1339 169 1339 285 1444.5 c 256,2,3
 401 1550 401 1550 561 1550 c 128,-1,4
 721 1550 721 1550 836 1443.5 c 256,5,6
 951 1337 951 1337 951 1182.5 c 128,-1,7
 951 1028 951 1028 837 920.5 c 256,8,9
 723 813 723 813 560.5 813 c 128,-1,10
 398 813 398 813 283 920 c 0,11,0
 169 1027 169 1027 169 1183 c 128,-1,1
405 1181.5 m 128,-1,13
 405 1122 405 1122 449.5 1079 c 128,-1,14
 494 1036 494 1036 560 1036 c 128,-1,15
 626 1036 626 1036 670.5 1079 c 128,-1,16
 715 1122 715 1122 715 1182 c 128,-1,17
 715 1242 715 1242 670 1284.5 c 256,18,19
 625 1327 625 1327 560 1327 c 128,-1,20
 495 1327 495 1327 450 1284 c 256,21,12
 405 1241 405 1241 405 1181.5 c 128,-1,13
EndSplineSet
EndChar

StartChar: plusminus
Encoding: 177 177 114
Width: 1120
Flags: W
HStem: -42 227<18 446 673 1102> 622 227<18 446 673 1102>
VStem: 446 227<185 622 849 1336>
LayerCount: 2
Fore
SplineSet
18 -42 m 1,0,-1
 18 185 l 1,1,-1
 446 185 l 1,2,-1
 446 622 l 1,3,-1
 18 622 l 1,4,-1
 18 849 l 1,5,-1
 446 849 l 1,6,-1
 446 1336 l 1,7,-1
 673 1336 l 1,8,-1
 673 849 l 1,9,-1
 1102 849 l 1,10,-1
 1102 622 l 1,11,-1
 673 622 l 1,12,-1
 673 185 l 1,13,-1
 1102 185 l 1,14,-1
 1102 -42 l 1,15,-1
 18 -42 l 1,0,-1
EndSplineSet
EndChar

StartChar: uni00B2
Encoding: 178 178 115
Width: 1120
Flags: W
HStem: 670 201<521 838> 1328 202<529.36 620.247>
VStem: 624 212<1216.13 1323.89>
LayerCount: 2
Fore
SplineSet
282 670 m 1,0,-1
 282 712 l 1,1,2
 283 823 283 823 293 874 c 0,3,4
 317 1001 317 1001 497 1144 c 0,5,6
 576 1207 576 1207 600 1237 c 128,-1,7
 624 1267 624 1267 624 1290.5 c 128,-1,8
 624 1314 624 1314 617.5 1321 c 128,-1,9
 611 1328 611 1328 579.5 1328 c 128,-1,10
 548 1328 548 1328 533.5 1309 c 128,-1,11
 519 1290 519 1290 513 1222 c 1,12,-1
 511 1193 l 1,13,-1
 511 1183 l 1,14,-1
 287 1183 l 1,15,-1
 294 1231 l 2,16,17
 296 1244 296 1244 298 1262 c 0,18,19
 309 1364 309 1364 356 1426 c 0,20,21
 434 1530 434 1530 582 1530 c 0,22,23
 696 1530 696 1530 766 1463 c 128,-1,24
 836 1396 836 1396 836 1283 c 128,-1,25
 836 1170 836 1170 729 1072 c 0,26,27
 683 1030 683 1030 612.5 970.5 c 128,-1,28
 542 911 542 911 521 871 c 1,29,-1
 838 871 l 1,30,-1
 838 670 l 1,31,-1
 282 670 l 1,0,-1
EndSplineSet
EndChar

StartChar: uni00B3
Encoding: 179 179 116
Width: 1120
Flags: W
HStem: 658 202<492.938 656.712> 1016 203<462 626.479> 1328 202<498.303 621.467>
VStem: 630 212<1224.56 1319.85> 662 212<866.918 999.052>
LayerCount: 2
Fore
SplineSet
461 1217 m 1,0,-1
 452 1201 l 1,1,-1
 270 1301 l 1,2,-1
 260 1307 l 1,3,-1
 281 1344 l 1,4,5
 389.5 1530 389.5 1530 571 1530 c 0,6,7
 694 1530 694 1530 768 1452 c 128,-1,8
 842 1374 842 1374 842 1276 c 0,9,10
 842 1219 842 1219 826.5 1190.5 c 128,-1,11
 811 1162 811 1162 789 1135 c 1,12,13
 874 1062 874 1062 874 942.5 c 128,-1,14
 874 823 874 823 791.5 740.5 c 128,-1,15
 709 658 709 658 571 658 c 0,16,17
 479 658 479 658 414 696 c 0,18,19
 350 734 350 734 289 822 c 1,20,-1
 253 877 l 1,21,-1
 246 887 l 1,22,-1
 436 992 l 1,23,-1
 446 997 l 1,24,-1
 488 912 l 1,25,26
 517 860 517 860 575 860 c 0,27,28
 662 860 662 860 662 933 c 0,29,30
 662 977 662 977 636.5 996 c 128,-1,31
 611 1015 611 1015 543 1016 c 1,32,-1
 461 1016 l 1,33,-1
 461 1217 l 1,0,-1
462 1219 m 1,34,-1
 503 1219 l 2,35,36
 540 1219 540 1219 564.5 1220 c 128,-1,37
 589 1221 589 1221 609.5 1240 c 128,-1,38
 630 1259 630 1259 630 1279 c 128,-1,39
 630 1299 630 1299 614 1313.5 c 128,-1,40
 598 1328 598 1328 571 1328 c 0,41,42
 520 1328 520 1328 485 1266 c 0,43,44
 475 1249 475 1249 473 1241 c 1,45,-1
 473 1240 l 1,46,-1
 462 1219 l 1,34,-1
EndSplineSet
EndChar

StartChar: acute
Encoding: 180 180 117
Width: 1120
Flags: W
HStem: 1147 473
VStem: 278.5 563
LayerCount: 2
Fore
SplineSet
278.5 1294 m 1,0,-1
 686.5 1620 l 1,1,-1
 841.5 1445 l 1,2,-1
 392.5 1147 l 1,3,-1
 278.5 1294 l 1,0,-1
EndSplineSet
EndChar

StartChar: mu
Encoding: 181 181 118
Width: 1120
Flags: W
HStem: -69 223<445.487 660.852>
VStem: 126 251<-482 -1 223.32 1136> 753 229<-42 3 252.484 1136>
LayerCount: 2
Fore
SplineSet
126 -440 m 2,0,1
 126 -418 126 -418 127 -382 c 2,2,-1
 132 -193 l 1,3,-1
 136 -10 l 1,4,-1
 136 665 l 1,5,-1
 132 847 l 1,6,-1
 127 1037 l 2,7,8
 126 1070 126 1070 126 1094 c 2,9,-1
 126 1136 l 1,10,-1
 377 1136 l 1,11,-1
 377 1125 l 1,12,-1
 374 1037 l 1,13,-1
 365 665 l 1,14,-1
 365 496 l 2,15,16
 365 343 365 343 391.5 275 c 128,-1,17
 418 207 418 207 484 171 c 0,18,19
 519 154 519 154 552 154 c 0,20,21
 624 154 624 154 684 220 c 0,22,23
 721 259 721 259 737 321 c 128,-1,24
 753 383 753 383 753 496 c 2,25,-1
 753 665 l 2,26,27
 753 784 753 784 742 1093 c 1,28,-1
 741 1125 l 1,29,-1
 740 1136 l 1,30,-1
 994 1136 l 1,31,-1
 994 1125 l 1,32,-1
 991 1037 l 1,33,-1
 982 665 l 1,34,-1
 982 -42 l 1,35,-1
 753 -42 l 1,36,-1
 753 3 l 1,37,38
 665 -69 665 -69 559.5 -69 c 128,-1,39
 454 -69 454 -69 365 -1 c 1,40,-1
 365 -10 l 1,41,-1
 374 -382 l 1,42,-1
 376 -439 l 1,43,-1
 377 -471 l 1,44,-1
 377 -482 l 1,45,-1
 126 -482 l 1,46,-1
 126 -440 l 2,0,1
EndSplineSet
EndChar

StartChar: paragraph
Encoding: 182 182 119
Width: 1120
Flags: W
HStem: 1316 201<669 776 993 1078>
VStem: 42 627<856.946 1264.44> 452 217<-265 618.201> 776 217<-265 1316>
LayerCount: 2
Fore
SplineSet
42 1064 m 128,-1,1
 42 1213 42 1213 119.5 1321 c 128,-1,2
 197 1429 197 1429 296.5 1473 c 128,-1,3
 396 1517 396 1517 532 1517 c 2,4,-1
 1078 1517 l 1,5,-1
 1078 1316 l 1,6,-1
 993 1316 l 1,7,-1
 993 -265 l 1,8,-1
 776 -265 l 1,9,-1
 776 1316 l 1,10,-1
 669 1316 l 1,11,-1
 669 -265 l 1,12,-1
 452 -265 l 1,13,-1
 452 614 l 1,14,15
 230 629 230 629 116 802 c 0,16,0
 42 915 42 915 42 1064 c 128,-1,1
EndSplineSet
EndChar

StartChar: periodcentered
Encoding: 183 183 120
Width: 1120
Flags: W
HStem: 373 361<441.875 677.418>
VStem: 379.748 360.504<435.255 672.048>
LayerCount: 2
Fore
SplineSet
379.748046875 555 m 128,-1,1
 379.748046875 630 379.748046875 630 432.748046875 682 c 128,-1,2
 485.748046875 734 485.748046875 734 560.248046875 734 c 128,-1,3
 634.748046875 734 634.748046875 734 687.5 680.745117188 c 128,-1,4
 740.251953125 627.490234375 740.251953125 627.490234375 740.251953125 552.501953125 c 128,-1,5
 740.251953125 477.513671875 740.251953125 477.513671875 687 425.256835938 c 128,-1,6
 633.748046875 373 633.748046875 373 559.248046875 373 c 128,-1,7
 484.748046875 373 484.748046875 373 431.748046875 426 c 0,8,0
 379.748046875 480 379.748046875 480 379.748046875 555 c 128,-1,1
EndSplineSet
EndChar

StartChar: cedilla
Encoding: 184 184 121
Width: 1120
Flags: W
HStem: -439 145<405.807 613.054> -210 260<512 613.995>
VStem: 614 174<-290.152 -212.768>
LayerCount: 2
Fore
SplineSet
332 -373 m 1,0,-1
 380 -251 l 1,1,-1
 384 -240 l 1,2,3
 503 -294 503 -294 538.5 -294 c 128,-1,4
 574 -294 574 -294 594 -279.5 c 128,-1,5
 614 -265 614 -265 614 -250 c 128,-1,6
 614 -235 614 -235 595 -222.5 c 128,-1,7
 576 -210 576 -210 539 -210 c 128,-1,8
 502 -210 502 -210 428 -233 c 2,9,-1
 408 -239 l 1,10,-1
 510 43 l 1,11,-1
 512 50 l 1,12,-1
 662 50 l 1,13,-1
 614 -89 l 1,14,15
 689 -96 689 -96 738.5 -140 c 128,-1,16
 788 -184 788 -184 788 -254 c 128,-1,17
 788 -324 788 -324 742 -373 c 0,18,19
 676 -439 676 -439 580 -439 c 128,-1,20
 484 -439 484 -439 342 -377 c 1,21,-1
 332 -373 l 1,0,-1
EndSplineSet
EndChar

StartChar: uni00B9
Encoding: 185 185 122
Width: 1120
Flags: W
HStem: 670 201<320 458 674 810>
VStem: 458 216<871 1296>
LayerCount: 2
Fore
SplineSet
310 1254 m 1,0,-1
 310 1464 l 1,1,-1
 674 1573 l 1,2,-1
 674 871 l 1,3,-1
 810 871 l 1,4,-1
 810 670 l 1,5,-1
 320 670 l 1,6,-1
 320 871 l 1,7,-1
 458 871 l 1,8,-1
 458 1296 l 1,9,-1
 365 1268 l 1,10,-1
 324 1257 l 1,11,-1
 310 1254 l 1,0,-1
EndSplineSet
EndChar

StartChar: ordmasculine
Encoding: 186 186 123
Width: 1120
Flags: W
HStem: 501 190<459.619 660.376> 1120 190<463.273 656.4>
VStem: 225 198<733.008 1074.51> 697 198<735.529 1081.53>
LayerCount: 2
Fore
SplineSet
225 900 m 256,0,1
 225 1078 225 1078 299 1179 c 0,2,3
 393 1310 393 1310 564 1310 c 0,4,5
 640 1310 640 1310 708 1276 c 0,6,7
 895 1183 895 1183 895 906 c 128,-1,8
 895 629 895 629 708 535 c 0,9,10
 639 501 639 501 560 501 c 0,11,12
 404 501 404 501 314.5 611.5 c 256,13,14
 225 722 225 722 225 900 c 256,0,1
423 904 m 128,-1,16
 423 787 423 787 456.5 739 c 256,17,18
 490 691 490 691 560 691 c 128,-1,19
 630 691 630 691 663.5 739 c 256,20,21
 697 787 697 787 697 905 c 0,22,23
 697 1120 697 1120 563 1120 c 0,24,25
 494 1120 494 1120 458.5 1070.5 c 256,26,15
 423 1021 423 1021 423 904 c 128,-1,16
EndSplineSet
EndChar

StartChar: guillemotright
Encoding: 187 187 124
Width: 1120
Flags: W
DStem2: 152 1312 14 1171 0.727246 -0.686376<0 624.64> 500 1313 363 1171 0.727213 -0.686412<0 626.063> 363 309 500 164 0.724223 0.689566<0 629.587> 472 741 757 741 0.723654 0.690163<-628.847 0>
LayerCount: 2
Fore
SplineSet
14 309 m 1,0,-1
 472 741 l 1,1,-1
 14 1171 l 1,2,-1
 152 1312 l 1,3,-1
 757 741 l 1,4,-1
 152 164 l 1,5,-1
 36 287 l 1,6,-1
 14 309 l 1,0,-1
363 309 m 1,7,-1
 821 741 l 1,8,-1
 363 1171 l 1,9,-1
 500 1313 l 1,10,-1
 1106 741 l 1,11,-1
 500 164 l 1,12,-1
 363 309 l 1,7,-1
EndSplineSet
EndChar

StartChar: onequarter
Encoding: 188 188 125
Width: 1120
Flags: W
HStem: 193 201<830.5 849.5 1064.5 1169.5> 713 201<-40.5 98.5 314.5 449.5>
VStem: 98.5 216<914 1339> 849.5 215<11 193 394 430>
DStem2: 167.5 -95 343.5 -95 0.3656 0.930772<64.3457 1788.84>
LayerCount: 2
Fore
SplineSet
-49.5 1297 m 1,0,-1
 -49.5 1507 l 1,1,-1
 314.5 1616 l 1,2,-1
 314.5 914 l 1,3,-1
 449.5 914 l 1,4,-1
 449.5 713 l 1,5,-1
 -40.5 713 l 1,6,-1
 -40.5 914 l 1,7,-1
 98.5 914 l 1,8,-1
 98.5 1339 l 1,9,-1
 4.5 1311 l 1,10,-1
 -49.5 1297 l 1,0,-1
167.5 -95 m 5,11,-1
 821.5 1570 l 5,12,-1
 995.5 1570 l 5,13,-1
 343.5 -95 l 5,14,-1
 167.5 -95 l 5,11,-1
552.5 193 m 1,15,-1
 552.5 329 l 1,16,-1
 856.5 871 l 1,17,-1
 1064.5 871 l 1,18,-1
 1064.5 394 l 1,19,-1
 1169.5 394 l 1,20,-1
 1169.5 193 l 1,21,-1
 1064.5 193 l 1,22,-1
 1064.5 11 l 1,23,-1
 849.5 11 l 1,24,-1
 849.5 193 l 1,25,-1
 552.5 193 l 1,15,-1
830.5 394 m 1,26,-1
 849.5 394 l 1,27,-1
 849.5 430 l 1,28,-1
 830.5 394 l 1,26,-1
EndSplineSet
EndChar

StartChar: onehalf
Encoding: 189 189 126
Width: 1120
Flags: W
HStem: 0 201<882.5 1200.5> 658 202<891.178 982.489> 689 201<-71.5 67.5 283.5 418.5>
VStem: 67.5 216<890 1315> 986.5 212<546.128 653.893>
DStem2: 148.5 -95 324.5 -95 0.3656 0.930772<64.3457 1788.84> 858.5 474 1090.5 402 0.74056 0.67199<-161.259 192.739>
LayerCount: 2
Fore
SplineSet
-80.5 1273 m 1,0,-1
 -80.5 1483 l 1,1,-1
 283.5 1592 l 1,2,-1
 283.5 890 l 1,3,-1
 418.5 890 l 1,4,-1
 418.5 689 l 1,5,-1
 -71.5 689 l 1,6,-1
 -71.5 890 l 1,7,-1
 67.5 890 l 1,8,-1
 67.5 1315 l 1,9,-1
 -26.5 1287 l 1,10,-1
 -80.5 1273 l 1,0,-1
148.5 -95 m 1,11,-1
 802.5 1570 l 1,12,-1
 976.5 1570 l 1,13,-1
 324.5 -95 l 1,14,-1
 148.5 -95 l 1,11,-1
643.5 0 m 1,15,-1
 643.5 42 l 1,16,17
 644.5 153 644.5 153 654.5 204 c 0,18,19
 677.5 328 677.5 328 858.5 474 c 0,20,21
 937.5 537 937.5 537 962.5 567 c 0,22,23
 986.5 597 986.5 597 986.5 620.5 c 128,-1,24
 986.5 644 986.5 644 979.5 651 c 128,-1,25
 972.5 658 972.5 658 941 658 c 128,-1,26
 909.5 658 909.5 658 895 638 c 128,-1,27
 880.5 618 880.5 618 875.5 552 c 2,28,-1
 872.5 513 l 1,29,-1
 648.5 513 l 1,30,-1
 655.5 561 l 2,31,32
 657.5 577 657.5 577 659.5 592 c 0,33,34
 670.5 694 670.5 694 717.5 756 c 0,35,36
 795.5 860 795.5 860 944.5 860 c 0,37,38
 1058.5 860 1058.5 860 1128.5 793 c 128,-1,39
 1198.5 726 1198.5 726 1198.5 613 c 128,-1,40
 1198.5 500 1198.5 500 1090.5 402 c 0,41,42
 1044.5 360 1044.5 360 974 300 c 128,-1,43
 903.5 240 903.5 240 882.5 201 c 1,44,-1
 1200.5 201 l 1,45,-1
 1200.5 0 l 1,46,-1
 643.5 0 l 1,15,-1
EndSplineSet
EndChar

StartChar: threequarters
Encoding: 190 190 127
Width: 1120
Flags: W
HStem: 193 201<866 885 1100 1205> 694 202<161.418 325.959> 1052 203<131 295.872> 1364 202<166.557 290.467>
VStem: 299 212<1261.6 1355.85> 331 212<902.671 1035.49> 885 215<11 193 394 430>
DStem2: 190 -95 366 -95 0.3656 0.930772<64.3457 1788.84>
LayerCount: 2
Fore
SplineSet
-85 923 m 1,0,-1
 115 1033 l 1,1,-1
 157 948 l 2,2,3
 182 896 182 896 244 896 c 0,4,5
 331 896 331 896 331 969 c 0,6,7
 331 1013 331 1013 305 1032.5 c 128,-1,8
 279 1052 279 1052 212 1052 c 2,9,-1
 130 1052 l 1,10,-1
 130 1252 l 1,11,-1
 122 1237 l 1,12,-1
 -71 1343 l 1,13,-1
 -50 1380 l 1,14,15
 -42 1390 -42 1390 -32 1407 c 0,16,17
 65 1566 65 1566 240 1566 c 0,18,19
 363 1566 363 1566 437 1488 c 128,-1,20
 511 1410 511 1410 511 1312 c 0,21,22
 511 1255 511 1255 495.5 1226.5 c 128,-1,23
 480 1198 480 1198 458 1171 c 1,24,25
 543 1099 543 1099 543 978.5 c 128,-1,26
 543 858 543 858 461 776 c 128,-1,27
 379 694 379 694 240 694 c 0,28,29
 65 694 65 694 -42 858 c 1,30,-1
 -85 923 l 1,0,-1
131 1255 m 1,31,-1
 172 1255 l 2,32,33
 209 1255 209 1255 233.5 1256.5 c 128,-1,34
 258 1258 258 1258 278.5 1276.5 c 128,-1,35
 299 1295 299 1295 299 1315 c 128,-1,36
 299 1335 299 1335 283 1349.5 c 128,-1,37
 267 1364 267 1364 240 1364 c 0,38,39
 178.666992188 1364 178.666992188 1364 142 1276 c 1,40,-1
 131 1255 l 1,31,-1
190 -95 m 1,41,-1
 844 1570 l 1,42,-1
 1018 1570 l 1,43,-1
 366 -95 l 1,44,-1
 190 -95 l 1,41,-1
588 193 m 1,45,-1
 588 329 l 1,46,-1
 892 871 l 1,47,-1
 1100 871 l 1,48,-1
 1100 394 l 1,49,-1
 1205 394 l 1,50,-1
 1205 193 l 1,51,-1
 1100 193 l 1,52,-1
 1100 11 l 1,53,-1
 885 11 l 1,54,-1
 885 193 l 1,55,-1
 588 193 l 1,45,-1
866 394 m 1,56,-1
 885 394 l 1,57,-1
 885 430 l 1,58,-1
 866 394 l 1,56,-1
EndSplineSet
EndChar

StartChar: questiondown
Encoding: 191 191 128
Width: 1120
Flags: W
HStem: -469 223<436.229 678.708> -46 20G<726 974> 751 372<424.1 664.1>
VStem: 146 235.971<-193.153 56.2449> 358 372.505<815.336 1056.9> 442 230<334.007 676>
LayerCount: 2
Fore
SplineSet
968 -97 m 2,0,-1
 968 -101 l 1,1,2
 960 -209 960 -209 906 -291 c 0,3,4
 790 -469 790 -469 556 -469 c 0,5,6
 378 -469 378 -469 268 -367 c 0,7,8
 226 -326 226 -326 186 -250 c 128,-1,9
 146 -174 146 -174 146 -59 c 0,10,11
 146 108 146 108 254 219 c 0,12,13
 282 246 282 246 392 329 c 0,14,15
 426 356 426 356 432 375 c 0,16,17
 442 394 442 394 442 463 c 2,18,-1
 442 676 l 1,19,-1
 672 676 l 1,20,-1
 672 391 l 2,21,22
 672 302 672 302 633 248.5 c 128,-1,23
 594 195 594 195 513 134 c 128,-1,24
 432 73 432 73 414 51 c 0,25,26
 381.970588235 5.38235294118 381.970588235 5.38235294118 381.970588235 -74.7958144796 c 128,-1,27
 381.970588235 -154.9739819 381.970588235 -154.9739819 433.985294118 -200.48699095 c 128,-1,28
 486 -246 486 -246 552 -246 c 128,-1,29
 618 -246 618 -246 660 -217 c 128,-1,30
 702 -188 702 -188 714 -138 c 0,31,32
 720 -119 720 -119 724 -64 c 2,33,-1
 726 -36 l 1,34,-1
 728 -26 l 1,35,-1
 974 -26 l 1,36,-1
 972 -38 l 1,37,-1
 970 -72 l 2,38,39
 968 -89 968 -89 968 -97 c 2,0,-1
358 937 m 132,-1,41
 358 1015 358 1015 413 1069 c 132,-1,42
 468 1123 468 1123 545 1123 c 132,-1,43
 622 1123 622 1123 676.252272727 1067.74305556 c 132,-1,44
 730.504545455 1012.48611111 730.504545455 1012.48611111 730.504545455 935.49760101 c 128,-1,45
 730.504545455 858.509090909 730.504545455 858.509090909 676.252272727 804.754545455 c 132,-1,46
 622 751 622 751 544 751 c 132,-1,47
 466 751 466 751 412 805 c 132,-1,40
 358 859 358 859 358 937 c 132,-1,41
EndSplineSet
EndChar

StartChar: AE
Encoding: 198 198 135
Width: 1120
Flags: W
HStem: 0 215<778 1101> 396 215<436 549> 652 215<778 1029> 1260 215<778 1085>
VStem: 549 229<215 396 611 652 867 1041>
DStem2: 19 0 263 0 0.281673 0.95951<68.7283 481.368 703.719 703.719>
LayerCount: 2
Fore
SplineSet
19 0 m 1,0,-1
 444 1444 l 1,1,-1
 452 1475 l 1,2,-1
 1085 1475 l 1,3,-1
 1085 1260 l 1,4,-1
 778 1260 l 1,5,-1
 778 867 l 1,6,-1
 1029 867 l 1,7,-1
 1029 652 l 1,8,-1
 778 652 l 1,9,-1
 778 215 l 1,10,-1
 1101 215 l 1,11,-1
 1101 0 l 1,12,-1
 549 0 l 1,13,-1
 549 396 l 1,14,-1
 379 396 l 1,15,-1
 271 30 l 1,16,-1
 265 8 l 1,17,-1
 263 0 l 1,18,-1
 19 0 l 1,0,-1
436 611 m 1,19,-1
 549 611 l 1,20,-1
 549 1041 l 1,21,-1
 436 611 l 1,19,-1
EndSplineSet
EndChar

StartChar: Eth
Encoding: 208 208 145
Width: 1120
Flags: W
HStem: 0 215<384 710.875> 654 215<43 155 384 700> 1260 215<384 697.862>
VStem: 155 229<215 654 869 1260> 841 236<374.549 1105.04>
LayerCount: 2
Fore
SplineSet
43 654 m 1,0,-1
 43 869 l 1,1,-1
 155 869 l 1,2,-1
 155 1030 l 1,3,-1
 146 1380 l 2,4,5
 145 1412 145 1412 144 1432 c 2,6,-1
 142 1463 l 1,7,-1
 141 1475 l 1,8,-1
 521 1475 l 2,9,10
 665 1475 665 1475 749 1444 c 0,11,12
 919 1380 919 1380 989 1231 c 0,13,14
 1077 1046 1077 1046 1077 735 c 0,15,16
 1077 131 1077 131 733 27 c 0,17,18
 647 0 647 0 521 0 c 2,19,-1
 143 0 l 1,20,-1
 143 11 l 1,21,-1
 144 42 l 1,22,-1
 146 94 l 1,23,-1
 155 443 l 1,24,-1
 155 654 l 1,25,-1
 43 654 l 1,0,-1
384 215 m 1,26,-1
 512 215 l 2,27,28
 679 215 679 215 746 287 c 0,29,30
 796 341 796 341 818.5 442 c 128,-1,31
 841 543 841 543 841 763.5 c 128,-1,32
 841 984 841 984 795 1111 c 0,33,34
 766 1187 766 1187 700 1224 c 0,35,36
 632 1260 632 1260 512 1260 c 2,37,-1
 384 1260 l 1,38,-1
 384 869 l 1,39,-1
 700 869 l 1,40,-1
 700 654 l 1,41,-1
 384 654 l 1,42,-1
 384 215 l 1,26,-1
EndSplineSet
EndChar

StartChar: multiply
Encoding: 215 215 152
Width: 1120
Flags: W
DStem2: 161 1341 2 1185 0.680669 -0.732591<6.05774 588.747 825.374 1405.97> 6 315 165 159 0.680479 0.732768<0.314453 576.246 812.93 1387.5>
LayerCount: 2
Fore
SplineSet
2 1185 m 1,0,-1
 161 1341 l 1,1,-1
 561 909 l 1,2,-1
 948 1330 l 1,3,-1
 956 1338 l 1,4,-1
 1106 1187 l 1,5,-1
 1114 1180 l 1,6,-1
 714 748 l 1,7,-1
 1111 319 l 1,8,-1
 1118 311 l 1,9,-1
 960 154 l 1,10,-1
 561 586 l 1,11,-1
 173 167 l 1,12,-1
 165 159 l 1,13,-1
 14 308 l 1,14,-1
 6 315 l 1,15,-1
 406 748 l 1,16,-1
 9 1177 l 1,17,-1
 2 1185 l 1,0,-1
EndSplineSet
EndChar

StartChar: Oslash
Encoding: 216 216 153
Width: 1120
Flags: W
HStem: -27 223<429.937 684.374> 1280 223<436.898 687.708>
VStem: 67 236<462.303 1100.43> 820 236<380.513 991.947>
DStem2: 27 43 212 -63 0.514324 0.857596<4.24478 151.048 734.374 1182.15 1587.73 1712.24> 311 459 399 269 0.514324 0.857596<0 718.376>
LayerCount: 2
Fore
SplineSet
27 43 m 1,0,-1
 143 236 l 1,1,2
 67 403 67 403 67 716.5 c 128,-1,3
 67 1030 67 1030 118.5 1179.5 c 128,-1,4
 170 1329 170 1329 284.5 1416 c 128,-1,5
 399 1503 399 1503 562 1503 c 128,-1,6
 725 1503 725 1503 848 1402 c 1,7,-1
 910 1510 l 1,8,-1
 1083 1412 l 1,9,-1
 1093 1406 l 1,10,-1
 985 1226 l 1,11,12
 1023 1139 1023 1139 1039.5 1032.5 c 128,-1,13
 1056 926 1056 926 1056 686 c 128,-1,14
 1056 446 1056 446 1004 296.5 c 128,-1,15
 952 147 952 147 837 60 c 0,16,17
 719.651162791 -27 719.651162791 -27 561.325581395 -27 c 128,-1,18
 403 -27 403 -27 284 65 c 1,19,-1
 218 -53 l 1,20,-1
 212 -63 l 1,21,-1
 36 37 l 1,22,-1
 27 43 l 1,0,-1
303 705 m 0,23,24
 303 559 303 559 311 459 c 1,25,-1
 730 1195 l 1,26,27
 660 1280 660 1280 551.5 1280 c 128,-1,28
 443 1280 443 1280 373 1158.5 c 128,-1,29
 303 1037 303 1037 303 705 c 0,23,24
399 269 m 1,30,31
 466 196 466 196 559 196 c 0,32,33
 677 196 677 196 748.5 317 c 128,-1,34
 820 438 820 438 820 780 c 0,35,36
 820 904 820 904 814 995 c 1,37,-1
 399 269 l 1,30,31
EndSplineSet
EndChar

StartChar: Thorn
Encoding: 222 222 159
Width: 1120
Flags: W
HStem: 0 21G<131 382> 351 211<371 652.717> 1115 179<374 671.878> 1455 20G<131 381>
VStem: 131 250<0 351 562 1115 1294 1475> 753 236<664.612 1022.4>
LayerCount: 2
Fore
SplineSet
131 0 m 1,0,-1
 131 42 l 2,1,2
 131 53 131 53 133 95 c 1,3,-1
 141 448 l 1,4,-1
 141 1026 l 1,5,-1
 133 1380 l 1,6,7
 131 1421 131 1421 131 1433 c 2,8,-1
 131 1475 l 1,9,-1
 381 1475 l 1,10,-1
 381 1433 l 1,11,12
 380 1378 380 1378 374 1294 c 1,13,-1
 485 1294 l 2,14,15
 837 1294 837 1294 938 1066 c 0,16,17
 989 951 989 951 989 807.5 c 128,-1,18
 989 664 989 664 923 556.5 c 128,-1,19
 857 449 857 449 726 393 c 0,20,21
 664 367 664 367 601.5 359 c 128,-1,22
 539 351 539 351 417 351 c 2,23,-1
 371 351 l 1,24,25
 378 164 378 164 381 39 c 1,26,-1
 382 11 l 1,27,-1
 382 0 l 1,28,-1
 131 0 l 1,0,-1
370 562 m 1,29,-1
 446 562 l 2,30,31
 583 562 583 562 635 593 c 0,32,33
 753 664 753 664 753 837 c 0,34,35
 753 933 753 933 720 1001 c 128,-1,36
 687 1069 687 1069 647 1088 c 0,37,38
 606 1107 606 1107 575.5 1111 c 128,-1,39
 545 1115 545 1115 452 1115 c 2,40,-1
 370 1115 l 1,41,-1
 370 562 l 1,29,-1
EndSplineSet
EndChar

StartChar: germandbls
Encoding: 223 223 160
Width: 1120
Flags: W
HStem: -27 223<470.288 688.864> 0 21G<145 399> 1280 223<416.786 622.888>
VStem: 155 229<156 692 857 1247.99> 682 236<953.21 1218.96> 739 236<250.953 592.61>
LayerCount: 2
Fore
SplineSet
145 0 m 1,0,-1
 145 41 l 2,1,2
 145 52 145 52 147 94 c 1,3,-1
 155 446 l 1,4,-1
 155 1061 l 2,5,6
 155 1181 155 1181 175 1248 c 0,7,8
 205 1355 205 1355 309.5 1429 c 128,-1,9
 414 1503 414 1503 531 1503 c 0,10,11
 690 1503 690 1503 804 1384 c 128,-1,12
 918 1265 918 1265 918 1088.5 c 128,-1,13
 918 912 918 912 777 790 c 1,14,15
 975 676 975 676 975 404 c 0,16,17
 975 174 975 174 832 55 c 0,18,19
 736 -27 736 -27 616.5 -27 c 128,-1,20
 497 -27 497 -27 396 38 c 1,21,-1
 398 12 l 1,22,-1
 399 0 l 1,23,-1
 145 0 l 1,0,-1
384 457 m 2,24,25
 384 412 384 412 392 156 c 1,26,-1
 430 218 l 1,27,-1
 451 250 l 1,28,-1
 486 233 l 1,29,30
 558 196 558 196 608.5 196 c 128,-1,31
 659 196 659 196 699 253 c 128,-1,32
 739 310 739 310 739 429.5 c 0,33,34
 739 679.285714286 739 679.285714286 467 689 c 1,35,-1
 422 691 l 1,36,-1
 392 692 l 1,37,-1
 384 692 l 1,38,-1
 384 457 l 2,24,25
384 857 m 1,39,-1
 391 858 l 1,40,-1
 420 860 l 1,41,42
 573 869 573 869 640 955 c 0,43,44
 682 1011 682 1011 682 1075 c 0,45,46
 682 1200 682 1200 601 1254 c 0,47,48
 562 1280 562 1280 517 1280 c 0,49,50
 436 1280 436 1280 404 1216 c 0,51,52
 391 1188 391 1188 387.5 1162.5 c 128,-1,53
 384 1137 384 1137 384 1055 c 2,54,-1
 384 857 l 1,39,-1
EndSplineSet
EndChar

StartChar: ae
Encoding: 230 230 167
Width: 1120
Flags: W
HStem: -27 223<287.751 406.27 648.849 847.341> 466 215<639 837> 544 223<292.896 409> 897 224<264.761 405.91 647.288 779.498>
VStem: 28 236<213.958 520.728> 409.25 229.75<215.086 466 759 881.492>
DStem2: 960 305 1059 105 0.872143 0.489251<-273.412 26.5685>
LayerCount: 2
Fore
SplineSet
28 368 m 128,-1,1
 28 547 28 547 119 657 c 128,-1,2
 210 767 210 767 343 767 c 0,3,4
 375 767 375 767 409 759 c 1,5,-1
 409 820 l 2,6,7
 409 897 409 897 361 897 c 0,8,9
 339 897 339 897 305 878.5 c 128,-1,10
 271 860 271 860 183 793 c 2,11,-1
 133 755 l 1,12,-1
 82 953 l 1,13,-1
 75 982 l 1,14,-1
 98 998 l 1,15,16
 190 1065 190 1065 254.5 1093 c 128,-1,17
 319 1121 319 1121 388.5 1121 c 128,-1,18
 458 1121 458 1121 524 1064 c 1,19,20
 602 1121 602 1121 702 1121 c 0,21,22
 921 1121 921 1121 1015 884 c 0,23,24
 1063.02 764.44 1063.02 764.44 1063.02 540.1964 c 0,25,26
 1063.02 535.62 1063.02 535.62 1063 531 c 2,27,-1
 1063 466 l 1,28,-1
 639 466 l 1,29,-1
 639 284 l 2,30,31
 639 233 639 233 654 214.5 c 128,-1,32
 669 196 669 196 705 196 c 0,33,34
 788.714285714 196 788.714285714 196 960 305 c 1,35,-1
 1001 328 l 1,36,-1
 1087 133 l 1,37,-1
 1092 124 l 1,38,-1
 1059 105 l 2,39,40
 928.051485149 28.7762376238 928.051485149 28.7762376238 853.525742574 0.888118811881 c 128,-1,41
 779 -27 779 -27 679.5 -27 c 128,-1,42
 580 -27 580 -27 510 38 c 1,43,44
 474 11 474 11 461 3 c 0,45,46
 407 -27 407 -27 331 -27 c 0,47,48
 187 -27 187 -27 107.5 81 c 128,-1,0
 28 189 28 189 28 368 c 128,-1,1
264 379 m 0,49,50
 264 196 264 196 354 196 c 0,51,52
 399.5 196 399.5 196 407 241 c 0,53,54
 409.25 255.25 409.25 255.25 409.25 281.25 c 128,-1,55
 409.25 307.25 409.25 307.25 409 323 c 2,56,-1
 409 533 l 1,57,58
 383 544 383 544 359 544 c 128,-1,59
 335 544 335 544 319 531 c 0,60,61
 264 488 264 488 264 379 c 0,49,50
639 681 m 1,62,-1
 837 681 l 1,63,64
 820 807 820 807 780.5 852.5 c 128,-1,65
 741 898 741 898 703.5 898 c 128,-1,66
 666 898 666 898 652.5 882 c 128,-1,67
 639 866 639 866 639 818 c 2,68,-1
 639 681 l 1,62,-1
EndSplineSet
EndChar

StartChar: eth
Encoding: 240 240 177
Width: 1120
Flags: W
HStem: -27 223<435.448 714.08> 898 224<433.637 559>
VStem: 96 236<311.278 780.68> 814 236<310.306 785.857>
DStem2: 163 1228 280 1084 0.811534 0.584305<10.8096 142.635 485.687 621.019>
LayerCount: 2
Fore
SplineSet
70 1388 m 1,0,-1
 205 1565 l 1,1,-1
 212 1564 l 1,2,3
 358 1533 358 1533 488 1465 c 1,4,-1
 655 1589 l 1,5,-1
 664 1595 l 1,6,-1
 780 1444 l 1,7,-1
 665 1362 l 1,8,9
 750 1285 750 1285 854 1138 c 1,10,11
 940 1024 940 1024 995 885.5 c 128,-1,12
 1050 747 1050 747 1050 527 c 0,13,14
 1050 309 1050 309 944 157 c 0,15,16
 889 78 889 78 792.5 25.5 c 128,-1,17
 696 -27 696 -27 573 -27 c 0,18,19
 406 -27 406 -27 282 71 c 0,20,21
 96 217 96 217 96 547 c 0,22,23
 96 929 96 929 348 1066 c 0,24,25
 451 1122 451 1122 559 1122 c 1,26,27
 514 1170 514 1170 469 1217 c 1,28,-1
 288 1090 l 1,29,-1
 280 1084 l 1,30,-1
 163 1228 l 1,31,-1
 279 1311 l 1,32,33
 216 1336 216 1336 125 1369 c 1,34,-1
 70 1388 l 1,0,-1
568 898 m 0,35,36
 332 898 332 898 332 547 c 128,-1,37
 332 196 332 196 573 196 c 128,-1,38
 814 196 814 196 814 544 c 0,39,40
 813 731 813 731 751.5 814.5 c 128,-1,41
 690 898 690 898 568 898 c 0,35,36
EndSplineSet
EndChar

StartChar: divide
Encoding: 247 247 184
Width: 1120
Flags: W
HStem: 238 326<449.019 672.003> 622 227<18 1102> 913 326<449.019 672.003>
VStem: 398 326<289.996 512.451 964.996 1187.45>
LayerCount: 2
Fore
SplineSet
18 622 m 1,0,-1
 18 849 l 1,1,-1
 1102 849 l 1,2,-1
 1102 622 l 1,3,-1
 18 622 l 1,0,-1
398 401 m 128,-1,5
 398 470 398 470 446 517 c 128,-1,6
 494 564 494 564 561.5 564 c 128,-1,7
 629 564 629 564 676.5 515.5 c 128,-1,8
 724 467 724 467 724 400 c 128,-1,9
 724 333 724 333 675.5 285.5 c 128,-1,10
 627 238 627 238 560 238 c 128,-1,11
 493 238 493 238 445.5 285 c 128,-1,4
 398 332 398 332 398 401 c 128,-1,5
398 1077 m 128,-1,13
 398 1145 398 1145 446 1192 c 128,-1,14
 494 1239 494 1239 561.5 1239 c 128,-1,15
 629 1239 629 1239 676.5 1190.5 c 128,-1,16
 724 1142 724 1142 724 1075 c 128,-1,17
 724 1008 724 1008 675.5 960.5 c 128,-1,18
 627 913 627 913 560 913 c 128,-1,19
 493 913 493 913 445.5 961 c 128,-1,12
 398 1009 398 1009 398 1077 c 128,-1,13
EndSplineSet
EndChar

StartChar: oslash
Encoding: 248 248 185
Width: 1120
Flags: W
HStem: -27 223<432.041 690.189> 898 223<425.925 671.995>
VStem: 81 236<373.083 767.309> 799.077 235.934<327.352 746.354>
DStem2: 66 70 239 -44 0.595591 0.803288<0 131.756 521.496 858.489 1219.09 1377.27> 326 370 431 234 0.596715 0.802453<0 579.812>
LayerCount: 2
Fore
SplineSet
66 70 m 1,0,-1
 160 197 l 1,1,2
 81 335 81 335 81 561 c 0,3,4
 81 928 81 928 342 1069 c 0,5,6
 438 1121 438 1121 562.5 1121 c 128,-1,7
 687 1121 687 1121 798 1053 c 1,8,-1
 889 1180 l 1,9,-1
 1022 1075 l 1,10,-1
 1045 1058 l 1,11,-1
 1054 1052 l 1,12,-1
 948 911 l 1,13,14
 1035.01123596 766.640449438 1035.01123596 766.640449438 1035.01123596 541.135588941 c 0,15,16
 1035.01123596 538.573033708 1035.01123596 538.573033708 1035 536 c 0,17,18
 1035 162 1035 162 781 30 c 1,19,20
 680 -27 680 -27 550 -27 c 128,-1,21
 420 -27 420 -27 305 52 c 1,22,-1
 239 -44 l 1,23,-1
 233 -54 l 1,24,-1
 66 70 l 1,0,-1
317 504 m 0,25,26
 317 431 317 431 326 370 c 1,27,-1
 673 871 l 1,28,29
 623 898 623 898 561 898 c 0,30,31
 317 898 317 898 317 504 c 0,25,26
431 234 m 1,32,33
 484 196 484 196 557 196 c 0,34,35
 799 196 799 196 799 589 c 0,36,37
 799.076923077 595.923076923 799.076923077 595.923076923 799.076923077 640.153846154 c 128,-1,38
 799.076923077 684.384615385 799.076923077 684.384615385 788 749 c 1,39,-1
 431 234 l 1,32,33
EndSplineSet
EndChar

StartChar: thorn
Encoding: 254 254 191
Width: 1120
Flags: W
HStem: -426 21G<156.249 411.249> -27 223<418.003 658.607> 898 223<467.302 670.226>
VStem: 169.249 229<-426 11 224.359 827.89 1064 1376.08> 789.249 235.5<340.297 764.492>
DStem2: 321.249 1509 109.249 1435 0.285477 -0.958386<0 358.533>
LayerCount: 2
Fore
SplineSet
95.2490234375 1482 m 1,0,-1
 312.249023438 1508 l 1,1,-1
 321.249023438 1509 l 1,2,-1
 332.249023438 1476 l 2,3,4
 398.249023438 1280 398.249023438 1280 398.249023438 1092 c 2,5,-1
 398.249023438 1064 l 1,6,7
 485.249023438 1121 485.249023438 1121 561.249023438 1121 c 128,-1,8
 637.249023438 1121 637.249023438 1121 718.749023438 1084.5 c 128,-1,9
 800.249023438 1048 800.249023438 1048 859.249023438 991 c 0,10,11
 1024.24902344 837 1024.24902344 837 1024.74902344 542 c 128,-1,12
 1025.24902344 247 1025.24902344 247 843.249023438 91 c 0,13,14
 764.249023438 23 764.249023438 23 662.249023438 -8 c 0,15,16
 606.249023438 -27 606.249023438 -27 547.249023438 -27 c 128,-1,17
 488.249023438 -27 488.249023438 -27 398.249023438 11 c 1,18,19
 400.249023438 -72 400.249023438 -72 408.249023438 -327 c 1,20,-1
 410.249023438 -383 l 1,21,-1
 411.249023438 -415 l 1,22,-1
 411.249023438 -426 l 1,23,-1
 156.249023438 -426 l 1,24,-1
 157.249023438 -415 l 1,25,-1
 160.249023438 -327 l 1,26,27
 169.249023438 11 169.249023438 11 169.249023438 29 c 2,28,-1
 169.249023438 862 l 2,29,30
 169.249023438 1116 169.249023438 1116 160.249023438 1199.5 c 128,-1,31
 151.249023438 1283 151.249023438 1283 109.249023438 1435 c 1,32,-1
 99.2490234375 1470 l 1,33,-1
 95.2490234375 1482 l 1,0,-1
398.249023438 256 m 1,34,35
 470.249023438 196 470.249023438 196 539.249023438 196 c 0,36,37
 568.249023438 196 568.249023438 196 613.249023438 216 c 0,38,39
 700.249023438 253 700.249023438 253 740.249023438 327 c 0,40,41
 789.249023438 421 789.249023438 421 789.249023438 558 c 0,42,43
 789.249023438 800 789.249023438 800 627.249023438 880 c 0,44,45
 589.249023438 898 589.249023438 898 565.249023438 898 c 0,46,47
 479.249023438 898 479.249023438 898 398.249023438 768 c 1,48,-1
 398.249023438 256 l 1,34,35
EndSplineSet
EndChar

StartChar: dcaron
Encoding: 271 271 204
Width: 1120
Flags: W
HStem: -27 223<304.358 497.368> 898 223<315.008 545.471> 1481 20G<556 809>
VStem: -4 235.96<288.783 788.833> 568 229<266.649 866.487 1083 1110 1322 1501>
LayerCount: 2
Fore
SplineSet
133 999 m 0,0,1
 234 1121 234 1121 356 1121 c 128,-1,2
 478 1121 478 1121 567 1083 c 1,3,-1
 559 1404 l 1,4,-1
 557 1458 l 1,5,-1
 556 1490 l 1,6,-1
 556 1501 l 1,7,-1
 809 1501 l 1,8,-1
 809 1490 l 1,9,-1
 808 1458 l 2,10,11
 807 1435 807 1435 804 1322 c 1,12,-1
 892 1545 l 1,13,-1
 1124 1457 l 1,14,-1
 920 1049 l 1,15,-1
 798 1110 l 1,16,-1
 797 1052 l 1,17,-1
 797 590 l 2,18,19
 797 342 797 342 806 258 c 128,-1,20
 815 174 815 174 857 41 c 1,21,-1
 867 6 l 1,22,-1
 871 -6 l 1,23,-1
 651 -32 l 1,24,-1
 642 -33 l 1,25,-1
 631 1 l 2,26,27
 622 32 622 32 615 61 c 1,28,29
 511 -27 511 -27 370 -27 c 128,-1,30
 229 -27 229 -27 112 115 c 0,31,32
 -4 257 -4 257 -4 545.5 c 128,-1,33
 -4 834 -4 834 133 999 c 0,0,1
231.96 519.9648 m 0,34,35
 231.96 514.04 231.96 514.04 232 508 c 0,36,37
 232 357 232 357 293 256 c 0,38,39
 329 196 329 196 383.5 196 c 0,40,41
 489.4 196 489.4 196 568 327 c 1,42,-1
 568 837 l 1,43,44
 493 898 493 898 408 898 c 0,45,46
 358 898 358 898 318 857 c 0,47,48
 231.96 768.809 231.96 768.809 231.96 519.9648 c 0,34,35
EndSplineSet
EndChar

StartChar: dcroat
Encoding: 273 273 205
Width: 1120
Flags: W
HStem: -27 223<394.618 649.356> 898 223<408.381 696.263> 1187 167<436.751 709.751 955.751 1079.75> 1481 20G<705.751 959.751>
VStem: 40.249 235.502<330.733 749.998> 717.751 229<265 867.843 1083 1187 1354 1501>
LayerCount: 2
Fore
SplineSet
205.750976562 99 m 0,0,1
 40 252 40 252 40.2490234375 546.956054688 c 0,2,3
 40 843 40 843 221.750976562 1004 c 0,4,5
 354 1121 354 1121 527.750976562 1121 c 0,6,7
 631 1121 631 1121 717.750976562 1083 c 1,8,-1
 719.750976562 1187 l 1,9,-1
 436.750976562 1187 l 1,10,-1
 433.750976562 1354 l 1,11,-1
 709.750976562 1354 l 1,12,13
 709 1404 709 1404 708.750976562 1432 c 1,14,-1
 707.750976562 1458 l 1,15,-1
 706.750976562 1490 l 1,16,-1
 705.750976562 1501 l 1,17,-1
 959.750976562 1501 l 1,18,-1
 958.750976562 1490 l 1,19,-1
 957.750976562 1458 l 1,20,21
 958 1424 958 1424 955.750976562 1358 c 1,22,-1
 955.750976562 1354 l 1,23,-1
 1079.75097656 1354 l 1,24,-1
 1082.75097656 1187 l 1,25,-1
 949.750976562 1187 l 1,26,-1
 946.750976562 591 l 2,27,28
 946 351 946 351 955.750976562 258 c 0,29,30
 965 174 965 174 1007.75097656 41 c 1,31,-1
 1017.75097656 6 l 1,32,-1
 1021.75097656 -6 l 1,33,-1
 801.750976562 -32 l 1,34,-1
 792.750976562 -33 l 1,35,-1
 781.750976562 1 l 2,36,37
 781 5 781 5 764.750976562 60 c 1,38,39
 662 -27 662 -27 502.250976562 -27 c 0,40,41
 343 -27 343 -27 205.750976562 99 c 0,0,1
275.750976562 540 m 0,42,43
 275.750976562 358 275.750976562 358 368.750976562 262 c 0,44,45
 434.750976562 196 434.750976562 196 511.250976562 196 c 128,-1,46
 587.750976562 196 587.750976562 196 630.750976562 225 c 128,-1,47
 673.750976562 254 673.750976562 254 717.750976562 327 c 1,48,-1
 717.750976562 837 l 1,49,50
 643.750976562 898 643.750976562 898 558.750976562 898 c 128,-1,51
 473.750976562 898 473.750976562 898 412.750976562 857 c 0,52,53
 276.750976562 766 276.750976562 766 275.750976562 540 c 0,42,43
EndSplineSet
EndChar

StartChar: uni0122
Encoding: 290 290 216
Width: 1120
Flags: W
HStem: 0 21G<826 1056> 562 215<478 826> 1280 223<439.132 693.226>
VStem: 64 235.969<366.916 1088.02> 826 230<0 63 323.009 562>
LayerCount: 2
Fore
SplineSet
481 -22 m 1,0,1
 363 -6 363 -6 261 73 c 128,-1,2
 159 152 159 152 111.5 301 c 128,-1,3
 64 450 64 450 64 729.5 c 128,-1,4
 64 1009 64 1009 122 1170 c 0,5,6
 242 1503 242 1503 576 1503 c 0,7,8
 761 1503 761 1503 868.5 1383.5 c 128,-1,9
 976 1264 976 1264 990 1101 c 0,10,11
 993 1075 993 1075 995 1056 c 2,12,-1
 998 1022 l 1,13,-1
 1000 1010 l 1,14,-1
 752 1010 l 1,15,-1
 752 1052 l 2,16,17
 752 1118 752 1118 748 1140 c 0,18,19
 737 1207 737 1207 689 1243.5 c 128,-1,20
 641 1280 641 1280 564.5 1280 c 128,-1,21
 488 1280 488 1280 424 1223.5 c 0,22,23
 299.96875 1114.00366211 299.96875 1114.00366211 299.96875 732.037109375 c 0,24,25
 299.96875 725.5625 299.96875 725.5625 300 719 c 0,26,27
 300 399 300 399 386 285 c 0,28,29
 454 196 454 196 566 196 c 0,30,31
 712 196 712 196 782 323 c 0,32,33
 807 368 807 368 815 420 c 128,-1,34
 823 472 823 472 826 562 c 1,35,-1
 478 562 l 1,36,-1
 478 777 l 1,37,-1
 1056 777 l 1,38,-1
 1056 0 l 1,39,-1
 826 0 l 1,40,-1
 826 63 l 1,41,42
 729.82072473 -9.72091544819 729.82072473 -9.72091544819 616 -23 c 1,43,-1
 754 -69 l 1,44,-1
 555 -466 l 1,45,-1
 551 -475 l 1,46,-1
 337 -387 l 1,47,-1
 481 -22 l 1,0,1
EndSplineSet
EndChar

StartChar: uni0123
Encoding: 291 291 217
Width: 1120
Flags: W
HStem: -334 223<401.902 676.005> 84 148<418.704 679.641> 898 223<419.976 688.258> 1074 20G<806 1038> 1115 21G<567.244 634.871>
VStem: 82 236<350.156 778.062> 756 230<-26.0004 140 299.139 835.744>
LayerCount: 2
Fore
SplineSet
82 590 m 0,0,1
 82 711 82 711 119 818 c 0,2,3
 224 1121 224 1121 544 1121 c 0,4,5
 622 1121 622 1121 677 1101.5 c 128,-1,6
 732 1082 732 1082 794 1046 c 1,7,8
 797 1055 797 1055 799 1064 c 2,9,-1
 806 1086 l 1,10,-1
 809 1094 l 1,11,-1
 1038 1094 l 1,12,-1
 1026 1045 l 1,13,14
 986 876 986 876 986 781 c 2,15,-1
 986 135 l 2,16,17
 986 -43 986 -43 896 -156 c 0,18,19
 835 -238 835 -238 740.5 -286 c 128,-1,20
 646 -334 646 -334 549 -334 c 0,21,22
 351 -334 351 -334 198 -190 c 0,23,24
 192 -184 192 -184 159 -152 c 2,25,-1
 127 -121 l 1,26,-1
 292 24 l 1,27,-1
 300 32 l 1,28,-1
 328 -1 l 1,29,30
 420 -111 420 -111 552 -111 c 0,31,32
 641 -111 641 -111 697 -45.5 c 128,-1,33
 753 20 753 20 756 140 c 1,34,35
 645 84 645 84 517 84 c 2,36,-1
 513 84 l 2,37,38
 511.173333333 83.9866666667 511.173333333 83.9866666667 509.3536 83.9866666667 c 0,39,40
 374.693333333 83.9866666667 374.693333333 83.9866666667 278 157 c 0,41,42
 82 301 82 301 82 590 c 0,0,1
318 548 m 128,-1,44
 318 409 318 409 379.5 320.5 c 128,-1,45
 441 232 441 232 533 232 c 0,46,47
 660 232 660 232 756 342 c 1,48,-1
 756 796 l 1,49,50
 660 898 660 898 542 898 c 0,51,52
 456 898 456 898 401 839 c 0,53,54
 380 816 380 816 369 792 c 0,55,43
 318 687 318 687 318 548 c 128,-1,44
369 1201 m 1,56,-1
 569 1598 l 1,57,-1
 574 1607 l 1,58,-1
 786 1519 l 1,59,-1
 627 1115 l 1,60,-1
 382 1197 l 1,61,-1
 369 1201 l 1,56,-1
EndSplineSet
EndChar

StartChar: dotlessi
Encoding: 305 305 225
Width: 1120
Flags: W
HStem: 0 21G<588 835> 879 215<285 587>
VStem: 589 246<0 879>
LayerCount: 2
Fore
SplineSet
285 879 m 1,0,-1
 285 1094 l 1,1,-1
 835 1094 l 1,2,-1
 835 1083 l 1,3,-1
 828 826 l 1,4,-1
 824 656 l 1,5,-1
 824 438 l 1,6,-1
 834 41 l 1,7,-1
 835 11 l 1,8,-1
 835 0 l 1,9,-1
 589 0 l 1,10,-1
 588 10 l 1,11,-1
 586 39 l 2,12,13
 585 53 585 53 585 61 c 128,-1,14
 585 69 585 69 587 93 c 1,15,-1
 595 432 l 1,16,-1
 595 646 l 1,17,18
 588 800 588 800 587 879 c 1,19,-1
 285 879 l 1,0,-1
EndSplineSet
EndChar

StartChar: IJ
Encoding: 306 306 226
Width: 1120
Flags: W
HStem: -27 183<628.657 803.293> 0 175<58 177 377 430> 1300 175<58 177 377 500 644 858>
VStem: 183 189<175 1300> 395 189<200.022 659> 864 190<224.159 1300>
LayerCount: 2
Fore
SplineSet
1062 1475 m 1,0,-1
 1062 1453 l 1,1,-1
 1060 1399 l 1,2,-1
 1054 1036 l 1,3,-1
 1054 509 l 2,4,5
 1054 365 1054 365 1044 295 c 0,6,7
 1020 124 1020 124 909 36 c 0,8,9
 825 -27 825 -27 704.5 -27 c 128,-1,10
 584 -27 584 -27 500 64 c 1,11,-1
 500 0 l 1,12,-1
 58 0 l 1,13,-1
 58 175 l 1,14,-1
 177 175 l 1,15,-1
 183 441 l 1,16,-1
 183 1034 l 1,17,-1
 177 1300 l 1,18,-1
 58 1300 l 1,19,-1
 58 1475 l 1,20,-1
 500 1475 l 1,21,-1
 500 1300 l 1,22,-1
 377 1300 l 1,23,-1
 372 1034 l 1,24,-1
 372 441 l 1,25,-1
 377 175 l 1,26,-1
 430 175 l 1,27,28
 395 262 395 262 395 377 c 2,29,-1
 395 443 l 2,30,31
 395 505 395 505 381 659 c 1,32,-1
 594 659 l 1,33,-1
 594 638 l 1,34,-1
 593 611 l 1,35,36
 584 470 584 470 584 443 c 2,37,-1
 584 371 l 2,38,39
 584 283 584 283 609 230 c 0,40,41
 645 156 645 156 719 156 c 128,-1,42
 793 156 793 156 838 256 c 0,43,44
 864 311 864 311 864 511 c 2,45,-1
 864 1034 l 1,46,-1
 858 1300 l 1,47,-1
 644 1300 l 1,48,-1
 644 1475 l 1,49,-1
 1062 1475 l 1,0,-1
EndSplineSet
EndChar

StartChar: ij
Encoding: 307 307 227
Width: 1120
Flags: W
HStem: -334 183<586.418 762.939> 919 175<69 204 609 802> 1201 306<192.442 405.62 792.442 1005.1>
VStem: 69 338<919 1094> 145 306<1246.9 1461.1> 211 189<144 919> 745 306<1246.9 1461.1> 808 190<-104.912 919>
LayerCount: 2
Fore
SplineSet
204 0 m 1,0,-1
 204 22 l 2,1,2
 204 37 204 37 205 76 c 2,3,-1
 211 432 l 1,4,-1
 211 655 l 1,5,-1
 204 919 l 1,6,-1
 69 919 l 1,7,-1
 69 1094 l 1,8,-1
 407 1094 l 1,9,-1
 407 1072 l 2,10,11
 407 1047 407 1047 406 1018 c 2,12,-1
 400 658 l 1,13,-1
 400 432 l 2,14,15
 400 413 400 413 406 190 c 1,16,-1
 407 144 l 1,17,-1
 542 144 l 1,18,-1
 542 43 l 2,19,20
 542 -44 542 -44 579.5 -97.5 c 128,-1,21
 617 -151 617 -151 660 -151 c 0,22,23
 794.10989011 -151 794.10989011 -151 804 29 c 0,24,25
 807 81 807 81 808 348 c 1,26,-1
 808 654 l 1,27,-1
 802 919 l 1,28,-1
 609 919 l 1,29,-1
 609 1094 l 1,30,-1
 1007 1094 l 1,31,-1
 1007 1072 l 1,32,33
 1006 1031 1006 1031 1002 834 c 2,34,-1
 998 656 l 1,35,-1
 998 347 l 1,36,37
 997 203 997 203 997 123.5 c 128,-1,38
 997 44 997 44 996 24 c 0,39,40
 989 -137 989 -137 897.5 -235.5 c 128,-1,41
 806 -334 806 -334 672 -334 c 128,-1,42
 538 -334 538 -334 458 -242 c 128,-1,43
 378 -150 378 -150 358 0 c 1,44,-1
 204 0 l 1,0,-1
145 1354.5 m 128,-1,46
 145 1419 145 1419 191 1463 c 128,-1,47
 237 1507 237 1507 300 1507 c 128,-1,48
 363 1507 363 1507 407 1462.5 c 128,-1,49
 451 1418 451 1418 451 1354 c 128,-1,50
 451 1290 451 1290 407 1245.5 c 128,-1,51
 363 1201 363 1201 298 1201 c 128,-1,52
 233 1201 233 1201 189 1245.5 c 128,-1,45
 145 1290 145 1290 145 1354.5 c 128,-1,46
745 1354.5 m 128,-1,54
 745 1419 745 1419 791 1463 c 128,-1,55
 837 1507 837 1507 900 1507 c 128,-1,56
 963 1507 963 1507 1007 1462.5 c 128,-1,57
 1051 1418 1051 1418 1051 1354 c 128,-1,58
 1051 1290 1051 1290 1006.5 1245.5 c 128,-1,59
 962 1201 962 1201 897.5 1201 c 128,-1,60
 833 1201 833 1201 789 1245.5 c 128,-1,53
 745 1290 745 1290 745 1354.5 c 128,-1,54
EndSplineSet
EndChar

StartChar: uni0136
Encoding: 310 310 228
Width: 1120
Flags: W
HStem: 0 21G<27 278 763.785 1093> 1455 20G<27 278>
VStem: 27 251<0 634 838 1475> 780 313<0 313>
LayerCount: 2
Fore
SplineSet
27 0 m 1,0,-1
 27 42 l 2,1,2
 27 63 27 63 28 95 c 2,3,-1
 33 274 l 1,4,-1
 37 448 l 1,5,-1
 37 1027 l 1,6,-1
 33 1202 l 1,7,-1
 28 1380 l 2,8,9
 27 1413 27 1413 27 1433 c 2,10,-1
 27 1475 l 1,11,-1
 278 1475 l 1,12,-1
 278 1464 l 1,13,-1
 275 1376 l 1,14,-1
 266 1003 l 1,15,-1
 266 838 l 1,16,17
 317 863 317 863 398 951 c 128,-1,18
 479 1039 479 1039 563.5 1185.5 c 128,-1,19
 648 1332 648 1332 698 1464 c 1,20,-1
 714 1508 l 1,21,-1
 943 1395 l 1,22,-1
 922 1359 l 1,23,24
 890 1302 890 1302 772.5 1122 c 128,-1,25
 655 942 655 942 589 869.5 c 128,-1,26
 523 797 523 797 437 736 c 1,27,-1
 1093 0 l 1,28,-1
 780 0 l 1,29,-1
 266 634 l 1,30,-1
 266 472 l 1,31,-1
 275 99 l 1,32,-1
 277 43 l 1,33,-1
 278 11 l 1,34,-1
 278 0 l 1,35,-1
 27 0 l 1,0,-1
280 -387 m 1,36,-1
 434 7 l 1,37,-1
 437 17 l 1,38,-1
 696 -69 l 1,39,-1
 497 -466 l 1,40,-1
 492 -475 l 1,41,-1
 280 -387 l 1,36,-1
EndSplineSet
EndChar

StartChar: uni0137
Encoding: 311 311 229
Width: 1120
Flags: W
HStem: 0 21G<64 316 726.21 1056> 1074 20G<611.25 964> 1481 20G<64 316>
VStem: 74 229<0 457 672 1501>
LayerCount: 2
Fore
SplineSet
303 672 m 1,0,1
 562.5 931.5 562.5 931.5 660 1094 c 1,2,-1
 964 1094 l 1,3,-1
 908 1029 l 2,4,5
 750 846 750 846 680.5 773 c 128,-1,6
 611 700 611 700 492 589 c 1,7,-1
 1056 0 l 1,8,-1
 743 0 l 1,9,-1
 335 486 l 1,10,-1
 303 457 l 1,11,12
 304 393 304 393 312 99 c 1,13,-1
 314 43 l 1,14,-1
 315 11 l 1,15,-1
 316 0 l 1,16,-1
 64 0 l 1,17,-1
 64 41 l 2,18,19
 64 61 64 61 65 95 c 2,20,-1
 70 272 l 1,21,-1
 74 443 l 1,22,-1
 74 1041 l 1,23,-1
 70 1212 l 1,24,-1
 65 1403 l 2,25,26
 64 1436 64 1436 64 1459 c 2,27,-1
 64 1501 l 1,28,-1
 316 1501 l 1,29,-1
 315 1490 l 1,30,-1
 312 1402 l 1,31,32
 303 1047 303 1047 303 1029 c 2,33,-1
 303 672 l 1,0,1
253 -387 m 1,34,-1
 412 17 l 1,35,-1
 670 -69 l 1,36,-1
 470 -466 l 1,37,-1
 466 -475 l 1,38,-1
 253 -387 l 1,34,-1
EndSplineSet
EndChar

StartChar: kgreenlandic
Encoding: 312 312 230
Width: 1120
Flags: W
HStem: 0 21G<63 316 727.203 1057> 1074 20G<63 316 614.423 965>
VStem: 63 253<0 458 675 1094>
LayerCount: 2
Fore
SplineSet
305 675 m 1,0,1
 568.846153846 942.076923077 568.846153846 942.076923077 660 1094 c 1,2,-1
 965 1094 l 1,3,-1
 909 1029 l 1,4,5
 732 827 732 827 667.5 760.5 c 128,-1,6
 603 694 603 694 492 590 c 1,7,-1
 1057 0 l 1,8,-1
 744 0 l 1,9,-1
 335 487 l 1,10,-1
 303 458 l 1,11,12
 303 329 303 329 314 43 c 1,13,-1
 315 11 l 1,14,-1
 316 0 l 1,15,-1
 63 0 l 1,16,-1
 63 11 l 1,17,-1
 64 41 l 1,18,-1
 65 66 l 1,19,-1
 65 92 l 1,20,-1
 73 440 l 1,21,-1
 73 656 l 2,22,23
 73 672 73 672 72 717 c 0,24,25
 70 762 70 762 69 840 c 128,-1,26
 68 918 68 918 65 1028 c 1,27,-1
 64 1053 l 1,28,-1
 63 1083 l 1,29,-1
 63 1094 l 1,30,-1
 316 1094 l 1,31,-1
 315 1083 l 1,32,-1
 314 1051 l 1,33,-1
 313 1023 l 2,34,35
 309 897 309 897 305 712 c 1,36,-1
 305 675 l 1,0,1
EndSplineSet
EndChar

StartChar: uni013B
Encoding: 315 315 233
Width: 1120
Flags: W
HStem: 0 215<369 473 530 998> 1455 20G<122 371>
VStem: 132 228<215 1475>
LayerCount: 2
Fore
SplineSet
122 0 m 1,0,-1
 122 42 l 2,1,2
 122 53 122 53 124 96 c 1,3,-1
 132 446 l 1,4,-1
 132 1027 l 1,5,-1
 124 1380 l 1,6,7
 122 1421 122 1421 122 1433 c 2,8,-1
 122 1475 l 1,9,-1
 371 1475 l 1,10,-1
 371 1434 l 2,11,12
 371 1415 371 1415 368 1380 c 1,13,-1
 360 1031 l 1,14,-1
 360 454 l 1,15,-1
 369 215 l 1,16,-1
 998 215 l 1,17,-1
 998 0 l 1,18,-1
 530 0 l 1,19,-1
 738 -69 l 1,20,-1
 538 -466 l 1,21,-1
 534 -475 l 1,22,-1
 321 -387 l 1,23,-1
 473 0 l 1,24,-1
 122 0 l 1,0,-1
EndSplineSet
EndChar

StartChar: uni013C
Encoding: 316 316 234
Width: 1120
Flags: W
HStem: 1286 215<239 541>
VStem: 549 229<0 1286>
LayerCount: 2
Fore
SplineSet
239 1286 m 1,0,-1
 239 1501 l 1,1,-1
 789 1501 l 1,2,-1
 789 1490 l 1,3,-1
 782 1213 l 1,4,-1
 778 1041 l 1,5,-1
 778 442 l 1,6,-1
 788 42 l 1,7,-1
 788 0 l 1,8,-1
 674 0 l 1,9,-1
 881 -69 l 1,10,-1
 683 -466 l 1,11,-1
 678 -475 l 1,12,-1
 465 -387 l 1,13,-1
 617 0 l 1,14,-1
 542 0 l 1,15,-1
 542 10 l 1,16,-1
 540 39 l 2,17,18
 539 53 539 53 539 61 c 128,-1,19
 539 69 539 69 541 95 c 1,20,-1
 549 444 l 1,21,-1
 549 1045 l 1,22,23
 542 1206 542 1206 541 1286 c 1,24,-1
 239 1286 l 1,0,-1
EndSplineSet
EndChar

StartChar: Lcaron
Encoding: 317 317 235
Width: 1120
Flags: W
HStem: 0 215<369 998> 1455 20G<122 371>
VStem: 132 228<215 1475>
LayerCount: 2
Fore
SplineSet
122 0 m 1,0,-1
 122 42 l 2,1,2
 122 53 122 53 124 96 c 1,3,-1
 132 446 l 1,4,-1
 132 1027 l 1,5,-1
 124 1380 l 1,6,7
 122 1421 122 1421 122 1433 c 2,8,-1
 122 1475 l 1,9,-1
 371 1475 l 1,10,-1
 371 1434 l 2,11,12
 371 1415 371 1415 368 1380 c 1,13,-1
 360 1031 l 1,14,-1
 360 454 l 1,15,-1
 369 215 l 1,16,-1
 998 215 l 1,17,-1
 998 0 l 1,18,-1
 122 0 l 1,0,-1
423 1116 m 1,19,-1
 582 1521 l 1,20,-1
 840 1434 l 1,21,-1
 641 1037 l 1,22,-1
 637 1028 l 1,23,-1
 423 1116 l 1,19,-1
EndSplineSet
EndChar

StartChar: lcaron
Encoding: 318 318 236
Width: 1120
Flags: W
HStem: 0 21G<397 645> 1286 215<95 396>
VStem: 404 229<0 1128 1214 1286>
LayerCount: 2
Fore
SplineSet
95 1286 m 1,0,-1
 95 1501 l 1,1,-1
 645 1501 l 1,2,-1
 644 1490 l 1,3,-1
 637 1214 l 1,4,-1
 767 1544 l 1,5,-1
 1025 1458 l 1,6,-1
 826 1061 l 1,7,-1
 822 1052 l 1,8,-1
 636 1128 l 1,9,-1
 633 1037 l 1,10,-1
 633 440 l 1,11,-1
 643 41 l 1,12,-1
 644 11 l 1,13,-1
 645 0 l 1,14,-1
 398 0 l 1,15,-1
 397 10 l 1,16,-1
 395 39 l 2,17,18
 394 53 394 53 394 61 c 128,-1,19
 394 69 394 69 396 95 c 1,20,-1
 404 444 l 1,21,-1
 404 1045 l 1,22,23
 397 1206 397 1206 396 1286 c 1,24,-1
 95 1286 l 1,0,-1
EndSplineSet
EndChar

StartChar: Lslash
Encoding: 321 321 239
Width: 1120
Flags: W
HStem: 0 215<459 1082> 1091 20G<779.931 822> 1455 20G<209 462>
VStem: 222 230<215 631 941 1475>
DStem2: 452 941 452 730 0.924189 0.381935<0 312.159>
LayerCount: 2
Fore
SplineSet
38 533 m 1,0,-1
 38 787 l 1,1,-1
 45 790 l 1,2,-1
 66 796 l 1,3,4
 116 812 116 812 186 840 c 1,5,-1
 222 853 l 1,6,-1
 222 1026 l 1,7,-1
 213 1379 l 1,8,-1
 211 1432 l 1,9,-1
 210 1464 l 1,10,-1
 209 1475 l 1,11,-1
 462 1475 l 1,12,-1
 461 1464 l 1,13,-1
 460 1432 l 2,14,15
 451.9 1193.5 451.9 1193.5 451.9 1119.05 c 128,-1,16
 451.9 1044.6 451.9 1044.6 452 1031 c 2,17,-1
 452 941 l 1,18,-1
 499 959 l 2,19,20
 559 981 559 981 761 1082 c 1,21,-1
 822 1111 l 1,22,-1
 822 863 l 1,23,-1
 793 853 l 1,24,25
 703 826 703 826 617 794 c 1,26,-1
 452 730 l 1,27,-1
 452 455 l 1,28,-1
 459 215 l 1,29,-1
 1082 215 l 1,30,-1
 1082 0 l 1,31,-1
 209 0 l 1,32,-1
 210 11 l 1,33,-1
 211 42 l 2,34,35
 212 63 212 63 213 94 c 2,36,-1
 222 445 l 1,37,-1
 222 631 l 1,38,39
 174 606 174 606 100 567 c 1,40,-1
 38 533 l 1,0,-1
EndSplineSet
EndChar

StartChar: lslash
Encoding: 322 322 240
Width: 1120
Flags: W
HStem: 0 21G<454 706> 1286 215<146 457>
VStem: 464 229<0 693 1000 1286>
DStem2: 168 797 183 573 0.925437 0.378901<0 234.524 562.771 783.792>
LayerCount: 2
Fore
SplineSet
146 1286 m 1,0,-1
 146 1501 l 1,1,-1
 706 1501 l 1,2,-1
 705 1490 l 1,3,-1
 704 1458 l 2,4,5
 703 1431 703 1431 702 1402 c 2,6,-1
 693 1029 l 1,7,-1
 693 1000 l 1,8,-1
 974 1128 l 1,9,-1
 974 897 l 1,10,-1
 693 778 l 1,11,-1
 693 438 l 2,12,13
 693 391 693 391 696.5 285 c 128,-1,14
 700 179 700 179 701.5 122.5 c 128,-1,15
 703 66 703 66 704 41 c 2,16,-1
 705 11 l 1,17,-1
 706 0 l 1,18,-1
 454 0 l 1,19,-1
 455 11 l 1,20,-1
 456 42 l 1,21,-1
 456 93 l 1,22,-1
 464 444 l 1,23,-1
 464 693 l 1,24,-1
 183 573 l 1,25,-1
 168 567 l 1,26,-1
 168 797 l 1,27,-1
 464 923 l 1,28,-1
 464 1045 l 1,29,-1
 457 1286 l 1,30,-1
 146 1286 l 1,0,-1
EndSplineSet
EndChar

StartChar: uni0145
Encoding: 325 325 243
Width: 1120
Flags: W
HStem: 0 21G<123 376 765.929 983> 1455 20G<133 385.06 743 997>
VStem: 133 229<0 1007> 753 230<542 1475>
DStem2: 377 1475 362 1007 0.374208 -0.927345<428.384 1005.91>
LayerCount: 2
Fore
SplineSet
123 0 m 1,0,-1
 123 42 l 2,1,2
 123 53 123 53 125 95 c 1,3,-1
 133 448 l 1,4,-1
 133 1475 l 1,5,-1
 377 1475 l 1,6,-1
 753 542 l 1,7,-1
 753 1001 l 1,8,-1
 745 1377 l 1,9,10
 743 1415 743 1415 743 1433 c 2,11,-1
 743 1475 l 1,12,-1
 997 1475 l 1,13,-1
 997 1463 l 1,14,-1
 995 1432 l 1,15,-1
 993 1393 l 1,16,-1
 993 1351 l 1,17,-1
 983 1025 l 1,18,-1
 983 -14 l 1,19,-1
 774 -14 l 1,20,-1
 362 1007 l 1,21,-1
 362 472 l 2,22,23
 362 278 362 278 374 45 c 1,24,-1
 376 12 l 1,25,-1
 376 0 l 1,26,-1
 123 0 l 1,0,-1
322 -387 m 1,27,-1
 480 17 l 1,28,-1
 739 -69 l 1,29,-1
 539 -466 l 1,30,-1
 535 -475 l 1,31,-1
 322 -387 l 1,27,-1
EndSplineSet
EndChar

StartChar: uni0146
Encoding: 326 326 244
Width: 1120
Flags: W
HStem: 0 21G<147 402 763 1017> 898 223<551.247 742.679> 1074 20G<103 329>
VStem: 114 220<975.655 1094> 159 230<0 720.967> 776 229<0 850.347>
LayerCount: 2
Fore
SplineSet
103 1094 m 1,0,-1
 328 1094 l 1,1,-1
 329 1085 l 1,2,-1
 334 1061 l 1,3,4
 344 1018 344 1018 351 972 c 1,5,6
 386 1009 386 1009 442 1045 c 0,7,8
 556 1121 556 1121 684 1121 c 128,-1,9
 812 1121 812 1121 909 1020 c 0,10,11
 963 963 963 963 984 888.5 c 128,-1,12
 1005 814 1005 814 1005 687 c 2,13,-1
 1005 439 l 1,14,-1
 1009 269 l 2,15,16
 1014 81 1014 81 1016 42 c 2,17,-1
 1017 11 l 1,18,-1
 1017 0 l 1,19,-1
 763 0 l 1,20,-1
 764 11 l 1,21,-1
 767 91 l 1,22,-1
 776 432 l 1,23,-1
 776 633 l 2,24,25
 776 800 776 800 744 852 c 0,26,27
 714.1 898 714.1 898 664.05 898 c 128,-1,28
 614 898 614 898 548.5 852 c 128,-1,29
 483 806 483 806 436 726 c 128,-1,30
 389 646 389 646 389 532 c 2,31,-1
 389 432 l 1,32,-1
 399 91 l 1,33,-1
 401 40 l 1,34,-1
 402 11 l 1,35,-1
 402 0 l 1,36,-1
 147 0 l 1,37,-1
 148 11 l 1,38,-1
 151 92 l 1,39,40
 159 399 159 399 159 437 c 2,41,-1
 159 516 l 1,42,43
 158 737 158 737 151 821 c 128,-1,44
 144 905 144 905 114 1047 c 1,45,-1
 103 1094 l 1,0,-1
370 -387 m 1,46,-1
 528 17 l 1,47,-1
 786 -69 l 1,48,-1
 587 -466 l 1,49,-1
 582 -475 l 1,50,-1
 370 -387 l 1,46,-1
EndSplineSet
EndChar

StartChar: napostrophe
Encoding: 329 329 247
Width: 1120
Flags: W
HStem: 0 21G<205 457 819 1073> 898 223<605.975 798.162>
VStem: 215 229<0 719.438> 831 230<0 850.347>
LayerCount: 2
Fore
SplineSet
47 1140 m 1,0,-1
 202 1534 l 1,1,-1
 205 1544 l 1,2,-1
 463 1458 l 1,3,-1
 281 1094 l 1,4,-1
 382 1094 l 1,5,-1
 390 1062 l 2,6,7
 400 1020 400 1020 407 972 c 1,8,9
 459 1028 459 1028 548 1074.5 c 128,-1,10
 637 1121 637 1121 726 1121 c 0,11,12
 868 1121 868 1121 965 1021 c 0,13,14
 1019 964 1019 964 1040 888 c 128,-1,15
 1061 812 1061 812 1061 687 c 2,16,-1
 1061 438 l 2,17,18
 1061 397 1061 397 1064 312 c 128,-1,19
 1067 227 1067 227 1070 93 c 1,20,-1
 1072 41 l 1,21,-1
 1073 11 l 1,22,-1
 1073 0 l 1,23,-1
 819 0 l 1,24,-1
 819 11 l 1,25,-1
 822 91 l 1,26,-1
 831 432 l 1,27,-1
 831 633 l 2,28,29
 831 800 831 800 799 852 c 0,30,31
 769.1 898 769.1 898 719.05 898 c 128,-1,32
 669 898 669 898 603.5 852 c 128,-1,33
 538 806 538 806 491 726 c 128,-1,34
 444 646 444 646 444 532 c 2,35,-1
 444 432 l 1,36,-1
 454 91 l 1,37,-1
 456 40 l 1,38,-1
 457 11 l 1,39,-1
 457 0 l 1,40,-1
 205 0 l 1,41,-1
 205 68 l 1,42,-1
 206 95 l 1,43,44
 215 405 215 405 215 438 c 2,45,-1
 215 594 l 2,46,47
 215 853 215 853 170 1047 c 2,48,-1
 159 1094 l 1,49,-1
 47 1140 l 1,0,-1
EndSplineSet
EndChar

StartChar: Eng
Encoding: 330 330 248
Width: 1120
Flags: W
HStem: -493 223<496.474 696.116> 0 21G<123 376> 1455 20G<133 385.06 743 997>
VStem: 133 229<0 1007> 746 237<-219.969 155.125 542 1475>
DStem2: 377 1475 362 1007 0.373941 -0.927453<428.439 1005.91>
LayerCount: 2
Fore
SplineSet
123 0 m 1,0,-1
 123 42 l 2,1,2
 123 53 123 53 125 95 c 1,3,-1
 133 448 l 1,4,-1
 133 1475 l 1,5,-1
 377 1475 l 1,6,-1
 753 542 l 1,7,-1
 753 1001 l 1,8,-1
 745 1377 l 1,9,10
 743 1415 743 1415 743 1433 c 2,11,-1
 743 1475 l 1,12,-1
 997 1475 l 1,13,-1
 997 1463 l 1,14,-1
 995 1432 l 1,15,-1
 993 1393 l 1,16,-1
 993 1350 l 1,17,-1
 983 1025 l 1,18,-1
 983 25 l 2,19,20
 983 -92 983 -92 958 -195 c 128,-1,21
 933 -298 933 -298 889.5 -351 c 128,-1,22
 846 -404 846 -404 771.5 -448.5 c 128,-1,23
 697 -493 697 -493 580 -493 c 128,-1,24
 463 -493 463 -493 360 -410 c 0,25,26
 308 -370 308 -370 281 -320.5 c 128,-1,27
 254 -271 254 -271 234 -187 c 2,28,-1
 225 -149 l 1,29,-1
 222 -135 l 1,30,-1
 447 -135 l 1,31,-1
 458 -161 l 1,32,33
 501 -270 501 -270 593 -270 c 0,34,35
 659 -270 659 -270 702.5 -219.5 c 128,-1,36
 746 -169 746 -169 746 -27 c 0,37,38
 746 6 746 6 741 67 c 1,39,-1
 362 1007 l 1,40,-1
 362 472 l 2,41,42
 362 278 362 278 374 45 c 1,43,-1
 376 12 l 1,44,-1
 376 0 l 1,45,-1
 123 0 l 1,0,-1
EndSplineSet
EndChar

StartChar: eng
Encoding: 331 331 249
Width: 1120
Flags: W
HStem: -334 223<428.093 702.702> 898 223<555.821 753.048> 1074 20G<103 332.667>
VStem: 165 229<0 719.5> 787 230<-18.9331 846.924>
LayerCount: 2
Fore
SplineSet
103 1094 m 1,0,-1
 326 1094 l 1,1,-1
 336 1064 l 1,2,3
 346 1028 346 1028 355 970 c 1,4,5
 391 1007 391 1007 446 1044 c 0,6,7
 560 1121 560 1121 692 1121 c 128,-1,8
 824 1121 824 1121 921 1020 c 0,9,10
 975 963 975 963 996 887.5 c 128,-1,11
 1017 812 1017 812 1017 684 c 2,12,-1
 1017 151 l 2,13,14
 1017 -164 1017 -164 772 -285 c 0,15,16
 675 -334 675 -334 577 -334 c 0,17,18
 378 -334 378 -334 228 -191 c 1,19,-1
 159 -122 l 1,20,-1
 293 0 l 1,21,-1
 154 0 l 1,22,-1
 154 11 l 1,23,-1
 157 92 l 1,24,25
 165 406 165 406 165 437 c 2,26,-1
 165 593 l 1,27,28
 163 855 163 855 115 1045 c 2,29,-1
 106 1081 l 1,30,-1
 103 1094 l 1,0,-1
353 0 m 1,31,32
 381 -29 381 -29 385 -33 c 0,33,34
 417 -66 417 -66 473 -88.5 c 128,-1,35
 529 -111 529 -111 593 -111 c 128,-1,36
 657 -111 657 -111 714 -57 c 0,37,38
 787 6 787 6 787 148 c 2,39,-1
 787 631 l 2,40,41
 787 799 787 799 757 848.5 c 128,-1,42
 727 898 727 898 677 898 c 0,43,44
 592 898 592 898 507 813 c 0,45,46
 394 699 394 699 394 532 c 2,47,-1
 394 431 l 2,48,49
 394 337 394 337 406 40 c 1,50,-1
 407 11 l 1,51,-1
 407 0 l 1,52,-1
 353 0 l 1,31,32
EndSplineSet
EndChar

StartChar: OE
Encoding: 338 338 254
Width: 1120
Flags: W
HStem: -27 223<360.982 529.545> 0 215<761 1079> 652 215<761 976> 1260 215<761 1063> 1279 223<368.323 528.959>
VStem: 41 236<307.953 1154.91> 531 445<652 867> 531 230<215 652 867 1260>
LayerCount: 2
Fore
SplineSet
41 711 m 128,-1,1
 41 966 41 966 66 1102.5 c 128,-1,2
 91 1239 91 1239 149 1328 c 0,3,4
 260 1502 260 1502 455 1502 c 0,5,6
 515 1502 515 1502 610 1475 c 1,7,-1
 1063 1475 l 1,8,-1
 1063 1260 l 1,9,-1
 761 1260 l 1,10,-1
 761 867 l 1,11,-1
 976 867 l 1,12,-1
 976 652 l 1,13,-1
 761 652 l 1,14,-1
 761 215 l 1,15,-1
 1079 215 l 1,16,-1
 1079 0 l 1,17,-1
 611 0 l 1,18,19
 518 -27 518 -27 451 -27 c 0,20,21
 308 -27 308 -27 213 56.5 c 128,-1,22
 118 140 118 140 79.5 298 c 128,-1,0
 41 456 41 456 41 711 c 128,-1,1
277 725 m 128,-1,24
 277 392 277 392 333 281 c 0,25,26
 376 196 376 196 450 196 c 0,27,28
 485 196 485 196 531 206 c 1,29,-1
 531 1266 l 1,30,31
 476 1279 476 1279 455 1279 c 0,32,33
 377 1279 377 1279 327 1168.5 c 128,-1,23
 277 1058 277 1058 277 725 c 128,-1,24
EndSplineSet
EndChar

StartChar: oe
Encoding: 339 339 255
Width: 1120
Flags: W
HStem: -27 223<337.004 431.158 670.682 851.671> 466 215<662 834> 898 223<336.089 431.553 665.427 782.827>
VStem: 32 236<274.877 814.639> 432 230<215.086 466 681 897.98>
LayerCount: 2
Fore
SplineSet
709 -27 m 0,0,1
 620 -27 620 -27 546 29 c 1,2,3
 477 -27 477 -27 407 -27 c 0,4,5
 265 -27 265 -27 155 103 c 0,6,7
 32 247.822580645 32 247.822580645 32 558.411290323 c 128,-1,8
 32 869 32 869 180 1017 c 0,9,10
 285 1121 285 1121 406 1121 c 0,11,12
 472 1121 472 1121 557 1071 c 1,13,14
 642 1121 642 1121 721 1121 c 0,15,16
 857 1121 857 1121 947 1012 c 0,17,18
 1061 871 1061 871 1062 568 c 1,19,-1
 1062 466 l 1,20,-1
 662 466 l 1,21,-1
 662 284 l 2,22,23
 662 233 662 233 675.5 214.5 c 128,-1,24
 689 196 689 196 724 196 c 128,-1,25
 759 196 759 196 802 214.5 c 128,-1,26
 845 233 845 233 933 289 c 1,27,-1
 995 330 l 1,28,-1
 1072 160 l 1,29,-1
 1084 135 l 1,30,-1
 1088 126 l 1,31,-1
 1056 106 l 2,32,33
 1041 97 1041 97 985 62 c 0,34,35
 838 -27 838 -27 709 -27 c 0,0,1
413 898 m 0,36,37
 352 898 352 898 310 810 c 128,-1,38
 268 722 268 722 268 522.5 c 128,-1,39
 268 323 268 323 336 239 c 0,40,41
 372 196 372 196 390.5 196 c 128,-1,42
 409 196 409 196 432 218 c 1,43,-1
 432 895 l 1,44,45
 422 898 422 898 413 898 c 0,36,37
662 681 m 1,46,-1
 834 681 l 1,47,48
 808 898 808 898 708 898 c 0,49,50
 662 898 662 898 662 818 c 2,51,-1
 662 681 l 1,46,-1
EndSplineSet
EndChar

StartChar: uni0156
Encoding: 342 342 258
Width: 1120
Flags: W
HStem: 0 21G<42 293 784.627 1078> 566 215<281 443.686> 1260 215<281 610.11>
VStem: 52 229<0 566 781 1260> 678.009 236.014<874.89 1192.5> 797 281<0 281>
DStem2: 669 634 445 569 0.542097 -0.840316<0 602.149>
LayerCount: 2
Fore
SplineSet
42 0 m 1,0,-1
 42 42 l 2,1,2
 42 63 42 63 43 95 c 2,3,-1
 48 273 l 1,4,-1
 52 446 l 1,5,-1
 52 1024 l 1,6,-1
 48 1200 l 1,7,-1
 43 1380 l 2,8,9
 42 1413 42 1413 42 1433 c 2,10,-1
 42 1475 l 1,11,-1
 434 1475 l 2,12,13
 600 1475 600 1475 708.5 1420 c 128,-1,14
 817 1365 817 1365 872 1242 c 0,15,16
 914.022727273 1151.11363636 914.022727273 1151.11363636 914.022727273 1043.03615702 c 0,17,18
 914.022727273 1040.52272727 914.022727273 1040.52272727 914 1038 c 0,19,20
 914 872 914 872 825 753 c 0,21,22
 780 694 780 694 669 634 c 1,23,-1
 1078 0 l 1,24,-1
 797 0 l 1,25,-1
 445 569 l 1,26,27
 403 566 403 566 355 566 c 2,28,-1
 281 566 l 1,29,-1
 281 439 l 1,30,-1
 290 93 l 1,31,-1
 292 41 l 1,32,-1
 293 11 l 1,33,-1
 293 0 l 1,34,-1
 42 0 l 1,0,-1
281 781 m 1,35,-1
 413 781 l 2,36,37
 515 781 515 781 569 815 c 0,38,39
 678.009009009 881.396396396 678.009009009 881.396396396 678.009009009 1035.1961052 c 128,-1,40
 678.009009009 1188.995814 678.009009009 1188.995814 579 1235 c 0,41,42
 520 1260 520 1260 363 1260 c 2,43,-1
 281 1260 l 1,44,-1
 281 781 l 1,35,-1
290 -387 m 1,45,-1
 449 17 l 1,46,-1
 708 -69 l 1,47,-1
 508 -466 l 1,48,-1
 504 -475 l 1,49,-1
 290 -387 l 1,45,-1
EndSplineSet
EndChar

StartChar: uni0157
Encoding: 343 343 259
Width: 1120
Flags: W
HStem: 898 223<613.059 758.618> 1074 20G<142 376.242>
VStem: 203 229<11 660.674> 785 231<670 891.807>
LayerCount: 2
Fore
SplineSet
104 -387 m 1,0,-1
 256 0 l 1,1,-1
 191 0 l 1,2,-1
 191 11 l 1,3,-1
 194 92 l 1,4,5
 203 421 203 421 203 439 c 2,6,-1
 203 529 l 2,7,8
 203 842 203 842 155 1045 c 1,9,-1
 146 1081 l 1,10,-1
 142 1094 l 1,11,-1
 372 1094 l 1,12,-1
 379 1061 l 2,13,14
 391 1009 391 1009 401 947 c 1,15,16
 446 1001 446 1001 525 1061 c 128,-1,17
 604 1121 604 1121 729 1121 c 128,-1,18
 854 1121 854 1121 931 1027 c 0,19,20
 976 971 976 971 992 909.5 c 128,-1,21
 1008 848 1008 848 1014 713 c 1,22,-1
 1015 681 l 1,23,-1
 1016 670 l 1,24,-1
 785 670 l 1,25,-1
 785 712 l 1,26,27
 783 832 783 832 770 859 c 128,-1,28
 757 886 757 886 747 892 c 128,-1,29
 737 898 737 898 719 898 c 0,30,31
 647 898 647 898 567 809.5 c 128,-1,32
 487 721 487 721 452 595 c 0,33,34
 432 525 432 525 432 476 c 2,35,-1
 432 434 l 1,36,-1
 437 265 l 1,37,38
 440 74 440 74 443 42 c 2,39,-1
 445 11 l 1,40,-1
 446 0 l 1,41,-1
 314 0 l 1,42,-1
 521 -69 l 1,43,-1
 322 -466 l 1,44,-1
 318 -475 l 1,45,-1
 104 -387 l 1,0,-1
EndSplineSet
EndChar

StartChar: uni0162
Encoding: 354 354 268
Width: 1120
Flags: W
HStem: 1260 215<26 448 677 1094>
VStem: 448 229<0 1260>
LayerCount: 2
Fore
SplineSet
26 1260 m 1,0,-1
 26 1475 l 1,1,-1
 1094 1475 l 1,2,-1
 1094 1260 l 1,3,-1
 677 1260 l 1,4,-1
 677 442 l 1,5,-1
 685 94 l 1,6,-1
 687 42 l 1,7,-1
 688 11 l 1,8,-1
 689 0 l 1,9,-1
 547 0 l 1,10,-1
 754 -69 l 1,11,-1
 555 -466 l 1,12,-1
 551 -475 l 1,13,-1
 337 -387 l 1,14,-1
 490 0 l 1,15,-1
 435 0 l 1,16,-1
 436 11 l 1,17,-1
 437 42 l 1,18,-1
 439 94 l 1,19,-1
 448 442 l 1,20,-1
 448 1260 l 1,21,-1
 26 1260 l 1,0,-1
EndSplineSet
EndChar

StartChar: uni0163
Encoding: 355 355 269
Width: 1120
Flags: W
HStem: 879 215<53 295 527 915>
VStem: 295 230<234.175 879 1094 1434>
LayerCount: 2
Fore
SplineSet
53 879 m 1,0,-1
 53 1094 l 1,1,-1
 295 1094 l 1,2,-1
 285 1392 l 1,3,-1
 285 1434 l 1,4,-1
 539 1434 l 1,5,-1
 538 1423 l 1,6,-1
 537 1391 l 2,7,8
 533 1270 533 1270 527 1094 c 1,9,-1
 915 1094 l 1,10,-1
 915 879 l 1,11,-1
 525 879 l 1,12,-1
 525 384 l 2,13,14
 525 270 525 270 546 233 c 128,-1,15
 567 196 567 196 621 196 c 128,-1,16
 675 196 675 196 713 218 c 0,17,18
 775 254 775 254 823 356 c 1,19,-1
 837 387 l 1,20,-1
 1053 333 l 1,21,-1
 1067 329 l 1,22,-1
 1041 282 l 2,23,24
 1029 260 1029 260 1010 226 c 0,25,26
 883 -9 883 -9 651 -26 c 1,27,-1
 780 -69 l 1,28,-1
 581 -466 l 1,29,-1
 577 -475 l 1,30,-1
 363 -387 l 1,31,-1
 511 -12 l 1,32,33
 327 39 327 39 302 251 c 0,34,35
 295 309 295 309 295 372 c 2,36,-1
 295 879 l 1,37,-1
 53 879 l 1,0,-1
EndSplineSet
EndChar

StartChar: tcaron
Encoding: 357 357 271
Width: 1120
Flags: W
HStem: -27 223<545.341 740.149> 879 215<53 295 527 915> 1115 21G<698.714 753>
VStem: 295 230<234.175 879 1094 1434>
LayerCount: 2
Fore
SplineSet
53 879 m 1,0,-1
 53 1094 l 1,1,-1
 295 1094 l 1,2,-1
 285 1392 l 1,3,-1
 285 1434 l 1,4,-1
 539 1434 l 1,5,-1
 538 1423 l 1,6,-1
 537 1391 l 2,7,8
 533 1270 533 1270 527 1094 c 1,9,-1
 915 1094 l 1,10,-1
 915 879 l 1,11,-1
 525 879 l 1,12,-1
 525 384 l 2,13,14
 525 270 525 270 546 233 c 128,-1,15
 567 196 567 196 621 196 c 128,-1,16
 675 196 675 196 713 218 c 0,17,18
 775 254 775 254 823 356 c 1,19,-1
 837 387 l 1,20,-1
 1053 333 l 1,21,-1
 1067 329 l 1,22,-1
 1041 282 l 2,23,24
 1029 260 1029 260 1010 226 c 0,25,26
 873.46031746 -27 873.46031746 -27 616 -27 c 0,27,28
 454 -27 454 -27 364 82 c 0,29,30
 315 143 315 143 305 226 c 128,-1,31
 295 309 295 309 295 371 c 2,32,-1
 295 879 l 1,33,-1
 53 879 l 1,0,-1
535 1201 m 1,34,-1
 694 1606 l 1,35,-1
 952 1519 l 1,36,-1
 753 1124 l 1,37,-1
 749 1115 l 1,38,-1
 573 1185 l 1,39,-1
 545 1197 l 1,40,-1
 535 1201 l 1,34,-1
EndSplineSet
EndChar

StartChar: Tbar
Encoding: 358 358 272
Width: 1120
Flags: W
HStem: 0 21G<435 689> 851 215<106 448 677 1014> 1260 215<26 448 677 1094>
VStem: 448 229<0 851 1066 1260>
LayerCount: 2
Fore
SplineSet
26 1260 m 1,0,-1
 26 1475 l 1,1,-1
 1094 1475 l 1,2,-1
 1094 1260 l 1,3,-1
 677 1260 l 1,4,-1
 677 1066 l 1,5,-1
 1014 1066 l 1,6,-1
 1014 851 l 1,7,-1
 677 851 l 1,8,-1
 677 448 l 1,9,-1
 685 95 l 1,10,-1
 687 42 l 1,11,-1
 688 11 l 1,12,-1
 689 0 l 1,13,-1
 435 0 l 1,14,-1
 436 11 l 1,15,-1
 439 95 l 1,16,-1
 448 448 l 1,17,-1
 448 851 l 1,18,-1
 106 851 l 1,19,-1
 106 1066 l 1,20,-1
 448 1066 l 1,21,-1
 448 1260 l 1,22,-1
 26 1260 l 1,0,-1
EndSplineSet
EndChar

StartChar: tbar
Encoding: 359 359 273
Width: 1120
Flags: W
HStem: -27 223<544.582 734.094> 548 215<133 295 525 835> 879 215<53 294 526 915>
VStem: 295 230<233.66 548 763 879 1094 1430>
LayerCount: 2
Fore
SplineSet
53 879 m 1,0,-1
 53 1094 l 1,1,-1
 294 1094 l 1,2,-1
 285 1388 l 1,3,-1
 285 1430 l 1,4,-1
 538 1430 l 1,5,-1
 538 1419 l 1,6,-1
 526 1094 l 1,7,-1
 915 1094 l 1,8,-1
 915 879 l 1,9,-1
 525 879 l 1,10,-1
 525 763 l 1,11,-1
 835 763 l 1,12,-1
 835 548 l 1,13,-1
 525 548 l 1,14,-1
 525 384 l 2,15,16
 525 269 525 269 546 232.5 c 128,-1,17
 567 196 567 196 620 196 c 128,-1,18
 673 196 673 196 727 226 c 1,19,-1
 729 228 l 1,20,21
 744 236 744 236 780.5 288 c 128,-1,22
 817 340 817 340 823 352 c 1,23,-1
 832 376 l 1,24,-1
 836 385 l 1,25,-1
 1053 332 l 1,26,-1
 1067 328 l 1,27,-1
 1040 281 l 2,28,29
 1029 263 1029 263 1026 253 c 1,30,-1
 1026 252 l 1,31,32
 877 -27 877 -27 622 -27 c 0,33,34
 453 -27 453 -27 364 84 c 0,35,36
 314 146 314 146 304.454545455 226.227272727 c 128,-1,37
 294.909090909 306.454545455 294.909090909 306.454545455 294.909090909 338.863636364 c 128,-1,38
 294.909090909 371.272727273 294.909090909 371.272727273 295 377 c 2,39,-1
 295 548 l 1,40,-1
 133 548 l 1,41,-1
 133 763 l 1,42,-1
 295 763 l 1,43,-1
 295 879 l 1,44,-1
 53 879 l 1,0,-1
EndSplineSet
EndChar

StartChar: florin
Encoding: 402 402 291
Width: 1120
Flags: W
HStem: -258 225<89 335.175> 833 201<247 471 728 951> 1307 225<781.855 1031>
DStem2: 379 153 606 124 0.132955 0.991122<-157.74 686.195 917.598 1161.29>
LayerCount: 2
Fore
SplineSet
89 -33 m 1,0,-1
 233 -33 l 2,1,2
 310 -33 310 -33 336 -1.5 c 128,-1,3
 362 30 362 30 379 153 c 2,4,-1
 471 833 l 1,5,-1
 247 833 l 1,6,-1
 247 1034 l 1,7,-1
 498 1034 l 1,8,-1
 511 1137 l 2,9,10
 531 1297 531 1297 578 1375 c 0,11,12
 671 1532 671 1532 895 1532 c 2,13,-1
 1031 1532 l 1,14,-1
 1031 1307 l 1,15,-1
 883 1307 l 2,16,17
 808 1307 808 1307 781 1272 c 128,-1,18
 754 1237 754 1237 738 1107 c 1,19,-1
 728 1032 l 1,20,-1
 951 1032 l 1,21,-1
 951 831 l 1,22,-1
 701 831 l 1,23,-1
 606 124 l 1,24,25
 588 -19 588 -19 537 -106 c 0,26,27
 447 -258 447 -258 222 -258 c 2,28,-1
 89 -258 l 1,29,-1
 89 -33 l 1,0,-1
EndSplineSet
EndChar

StartChar: circumflex
Encoding: 710 710 292
Width: 1120
Flags: W
HStem: 1354 269<425.5 694.5>
LayerCount: 2
Fore
SplineSet
148 1273 m 1,0,-1
 560 1623 l 1,1,-1
 972 1273 l 1,2,-1
 850 1141 l 1,3,-1
 560 1354 l 1,4,-1
 270 1141 l 1,5,-1
 148 1273 l 1,0,-1
EndSplineSet
EndChar

StartChar: caron
Encoding: 711 711 293
Width: 1120
Flags: W
HStem: 1141 482
LayerCount: 2
Fore
SplineSet
149 1491 m 1,0,-1
 271 1623 l 1,1,-1
 561 1410 l 1,2,-1
 851 1624 l 1,3,-1
 971 1491 l 1,4,-1
 561 1141 l 1,5,-1
 149 1491 l 1,0,-1
EndSplineSet
EndChar

StartChar: uni02C9
Encoding: 713 713 294
Width: 1120
Flags: W
HStem: 1219 201<185 935>
LayerCount: 2
Fore
SplineSet
185 1219 m 1,0,-1
 185 1420 l 1,1,-1
 935 1420 l 1,2,-1
 935 1219 l 1,3,-1
 185 1219 l 1,0,-1
EndSplineSet
EndChar

StartChar: breve
Encoding: 728 728 295
Width: 1120
Flags: W
HStem: 1192 201<408.867 708.125>
LayerCount: 2
Fore
SplineSet
181 1547 m 1,0,-1
 380 1547 l 1,1,-1
 383 1520 l 2,2,3
 390 1462 390 1462 406 1441 c 0,4,5
 445 1393 445 1393 564 1393 c 128,-1,6
 683 1393 683 1393 719 1447 c 0,7,8
 732 1468 732 1468 738 1520 c 1,9,-1
 742 1547 l 1,10,-1
 939 1547 l 1,11,-1
 937 1514 l 2,12,13
 917 1192 917 1192 553 1192 c 0,14,15
 209 1192 209 1192 183 1514 c 1,16,-1
 181 1547 l 1,0,-1
EndSplineSet
EndChar

StartChar: dotaccent
Encoding: 729 729 296
Width: 1120
Flags: W
HStem: 1186 345<444.084 674.516>
VStem: 387.748 344.504<1243.67 1473.06>
LayerCount: 2
Fore
SplineSet
387.748046875 1359.5 m 128,-1,1
 387.748046875 1431 387.748046875 1431 437.748046875 1481 c 128,-1,2
 487.748046875 1531 487.748046875 1531 559.748046875 1531 c 128,-1,3
 631.748046875 1531 631.748046875 1531 682 1479.7421875 c 128,-1,4
 732.251953125 1428.48535156 732.251953125 1428.48535156 732.251953125 1357.00195312 c 128,-1,5
 732.251953125 1285.51953125 732.251953125 1285.51953125 681 1235.75976562 c 128,-1,6
 629.748046875 1186 629.748046875 1186 558.748046875 1186 c 128,-1,7
 487.748046875 1186 487.748046875 1186 437.748046875 1237 c 128,-1,0
 387.748046875 1288 387.748046875 1288 387.748046875 1359.5 c 128,-1,1
EndSplineSet
EndChar

StartChar: ring
Encoding: 730 730 297
Width: 1120
Flags: W
HStem: 1174 150<508.273 613.801> 1462 151<507.682 614.017>
VStem: 336 159<1336.78 1448.91> 626 158<1336.68 1449.82>
LayerCount: 2
Fore
SplineSet
336 1394 m 128,-1,1
 336 1486 336 1486 402 1549.5 c 128,-1,2
 468 1613 468 1613 561 1613 c 128,-1,3
 654 1613 654 1613 719 1549 c 128,-1,4
 784 1485 784 1485 784 1393.5 c 128,-1,5
 784 1302 784 1302 719 1238 c 128,-1,6
 654 1174 654 1174 560 1174 c 128,-1,7
 466 1174 466 1174 401 1238 c 128,-1,0
 336 1302 336 1302 336 1394 c 128,-1,1
495 1393 m 128,-1,9
 495 1364 495 1364 514.5 1344 c 128,-1,10
 534 1324 534 1324 561 1324 c 128,-1,11
 588 1324 588 1324 607 1344 c 128,-1,12
 626 1364 626 1364 626 1393 c 128,-1,13
 626 1422 626 1422 607 1442 c 128,-1,14
 588 1462 588 1462 561 1462 c 128,-1,15
 534 1462 534 1462 514.5 1442 c 128,-1,8
 495 1422 495 1422 495 1393 c 128,-1,9
EndSplineSet
EndChar

StartChar: ogonek
Encoding: 731 731 298
Width: 1120
Flags: W
HStem: -414 184<556.445 754.501>
VStem: 328 213.992<-221.181 -69.2346>
LayerCount: 2
Fore
SplineSet
792 -360 m 1,0,1
 670.5 -414 670.5 -414 568.25 -414 c 128,-1,2
 466 -414 466 -414 397 -359 c 128,-1,3
 328 -304 328 -304 328 -198 c 0,4,5
 328 -48 328 -48 472 64 c 1,6,-1
 722 64 l 1,7,-1
 662 10 l 2,8,9
 541.991803279 -98.106557377 541.991803279 -98.106557377 541.991803279 -167.849838753 c 0,10,11
 541.991803279 -201.991803279 541.991803279 -201.991803279 556 -216 c 128,-1,12
 570 -230 570 -230 616 -230 c 2,13,-1
 620 -230 l 2,14,15
 670 -230 670 -230 748 -189 c 1,16,-1
 792 -165 l 1,17,-1
 792 -360 l 1,0,1
EndSplineSet
EndChar

StartChar: tilde
Encoding: 732 732 299
Width: 1120
Flags: W
HStem: 1215 201<614.55 793.363> 1336 201<344.486 526.368>
LayerCount: 2
Fore
SplineSet
112 1260 m 1,0,-1
 126 1292 l 1,1,2
 168 1378 168 1378 192 1411 c 0,3,4
 278 1537 278 1537 414 1537 c 0,5,6
 459 1537 459 1537 487.5 1526.5 c 128,-1,7
 516 1516 516 1516 582 1479 c 2,8,-1
 642 1445 l 2,9,10
 692 1416 692 1416 727 1416 c 128,-1,11
 762 1416 762 1416 778 1437.5 c 256,12,13
 794 1459 794 1459 818 1505 c 1,14,-1
 832 1530 l 1,15,-1
 1008 1461 l 1,16,-1
 996 1432 l 1,17,18
 964 1358 964 1358 940 1326 c 0,19,20
 854 1215 854 1215 730 1215 c 0,21,22
 648 1215 648 1215 572 1263 c 2,23,-1
 490 1314 l 2,24,25
 454 1336 454 1336 418 1336 c 128,-1,26
 382 1336 382 1336 360 1313 c 128,-1,27
 338 1290 338 1290 306 1222 c 2,28,-1
 294 1196 l 1,29,-1
 112 1260 l 1,0,-1
EndSplineSet
EndChar

StartChar: hungarumlaut
Encoding: 733 733 300
Width: 1120
Flags: W
HStem: 1132 496
LayerCount: 2
Fore
SplineSet
142 1257 m 1,0,-1
 470 1628 l 1,1,-1
 650 1483 l 1,2,-1
 280 1132 l 1,3,-1
 142 1257 l 1,0,-1
470 1257 m 1,4,-1
 778 1605 l 1,5,-1
 796 1628 l 1,6,-1
 978 1483 l 1,7,-1
 608 1132 l 1,8,-1
 470 1257 l 1,4,-1
EndSplineSet
EndChar

StartChar: uni0345
Encoding: 837 837 301
Width: 1120
Flags: W
HStem: -477 185<543 700.266>
VStem: 402 200<-290.601 179>
LayerCount: 2
Fore
SplineSet
402 179 m 1,0,-1
 602 179 l 1,1,-1
 602 -253 l 2,2,3
 602 -280 602 -280 606 -291 c 0,4,5
 609 -292 609 -292 615.5 -292 c 128,-1,6
 622 -292 622 -292 628 -290 c 1,7,-1
 718 -237 l 1,8,-1
 718 -447 l 1,9,-1
 698 -454 l 1,10,11
 636 -477 636 -477 596 -477 c 0,12,13
 490 -477 490 -477 446 -416 c 128,-1,14
 402 -355 402 -355 402 -221 c 2,15,-1
 402 179 l 1,0,-1
EndSplineSet
EndChar

StartChar: uni037E
Encoding: 894 894 302
Width: 1120
Flags: W
HStem: 614 360<441.542 676.458>
VStem: 379 360<59.501 279.417 674.84 911.458>
LayerCount: 2
Fore
SplineSet
463 32 m 1,0,1
 379 74 379 74 379 165 c 128,-1,2
 379 256 379 256 435.5 301.5 c 128,-1,3
 492 347 492 347 562 347 c 128,-1,4
 632 347 632 347 686.5 289.5 c 128,-1,5
 741 232 741 232 741 127.5 c 128,-1,6
 741 23 741 23 650 -59 c 4,7,8
 488 -204 488 -204 383 -244 c 1,9,-1
 383 -73 l 5,10,11
 448 -36 448 -36 493 18 c 1,12,-1
 463 32 l 1,0,1
379 794 m 128,-1,14
 379 869 379 869 432.5 921.5 c 128,-1,15
 486 974 486 974 560 974 c 128,-1,16
 634 974 634 974 686.5 920.5 c 128,-1,17
 739 867 739 867 739 793 c 128,-1,18
 739 719 739 719 686.5 666.5 c 128,-1,19
 634 614 634 614 559 614 c 128,-1,20
 484 614 484 614 431.5 666.5 c 128,-1,13
 379 719 379 719 379 794 c 128,-1,14
EndSplineSet
EndChar

StartChar: tonos
Encoding: 900 900 303
Width: 1120
Flags: W
HStem: 1126 346<481.5 589.5>
VStem: 425.5 269
LayerCount: 2
Fore
SplineSet
425.5 1126 m 1,0,-1
 475.5 1446 l 1,1,-1
 481.5 1472 l 1,2,-1
 694.5 1472 l 1,3,-1
 595.5 1210 l 1,4,-1
 589.5 1126 l 1,5,-1
 425.5 1126 l 1,0,-1
EndSplineSet
EndChar

StartChar: dieresistonos
Encoding: 901 901 304
Width: 1120
Flags: W
HStem: 1202 204<275.971 416.821 704.94 846.091> 1465 20G<522 692>
VStem: 244 203.508<1233.73 1375.82> 674 202<1220.31 1375.06>
LayerCount: 2
Fore
SplineSet
244 1303 m 2,0,-1
 244 1305 l 2,1,2
 244 1348 244 1348 275 1377 c 128,-1,3
 306 1406 306 1406 347 1406 c 128,-1,4
 388 1406 388 1406 417.754098361 1376.74180328 c 128,-1,5
 447.508196721 1347.48360656 447.508196721 1347.48360656 447.508196721 1305.50451514 c 128,-1,6
 447.508196721 1263.52542373 447.508196721 1263.52542373 417.754098361 1232.76271186 c 128,-1,7
 388 1202 388 1202 346 1202 c 128,-1,8
 304 1202 304 1202 274 1232 c 128,-1,9
 244 1262 244 1262 244 1303 c 2,0,-1
474 1200 m 1,10,-1
 522 1476 l 1,11,-1
 524 1485 l 1,12,-1
 692 1485 l 1,13,-1
 604 1208 l 1,14,-1
 600 1200 l 1,15,-1
 474 1200 l 1,10,-1
674 1303 m 2,16,-1
 674 1305 l 2,17,18
 674 1348 674 1348 704 1377 c 128,-1,19
 734 1406 734 1406 776 1406 c 128,-1,20
 818 1406 818 1406 847 1376 c 128,-1,21
 876 1346 876 1346 876 1305 c 128,-1,22
 876 1264 876 1264 846 1233 c 128,-1,23
 816 1202 816 1202 775 1202 c 128,-1,24
 734 1202 734 1202 704 1232 c 128,-1,25
 674 1262 674 1262 674 1303 c 2,16,-1
EndSplineSet
EndChar

StartChar: Alpha
Encoding: 913 913 313
Width: 1120
Flags: W
HStem: 0 21G<-3 229 887.279 1123> 437 172<414 707> 1452 20G<435 688.978>
VStem: 893 230<0 230>
DStem2: -3 0 227 0 0.286392 0.958112<65.8702 520.651 702.916 1241.99> 683 1472 560 1128 0.286392 -0.958112<294.364 833.724 1015.99 1470.48>
LayerCount: 2
Fore
SplineSet
-3 0 m 1,0,-1
 435 1464 l 1,1,-1
 437 1472 l 1,2,-1
 683 1472 l 1,3,-1
 1123 0 l 1,4,-1
 893 0 l 1,5,-1
 768 437 l 1,6,-1
 353 437 l 1,7,-1
 236 30 l 1,8,-1
 229 8 l 1,9,-1
 227 0 l 1,10,-1
 -3 0 l 1,0,-1
414 609 m 1,11,-1
 707 609 l 1,12,-1
 560 1128 l 1,13,-1
 414 609 l 1,11,-1
EndSplineSet
EndChar

StartChar: Beta
Encoding: 914 914 314
Width: 1120
Flags: W
HStem: 0 214<338 711.672> 662 214<338 631.719> 1258 214<338 665.984>
VStem: 114 224<214 662 876 1258> 718 224<958.918 1205.59> 782 224<278.341 568.945>
LayerCount: 2
Fore
SplineSet
114 0 m 1,0,-1
 114 1472 l 1,1,-1
 520 1472 l 2,2,3
 726 1472 726 1472 834 1368.5 c 128,-1,4
 942 1265 942 1265 942 1085 c 128,-1,5
 942 905 942 905 809 792 c 1,6,7
 848 769 848 769 873 746 c 0,8,9
 1006 622 1006 622 1006 425 c 128,-1,10
 1006 228 1006 228 880 114 c 128,-1,11
 754 0 754 0 544 0 c 2,12,-1
 114 0 l 1,0,-1
338 214 m 1,13,-1
 492 214 l 2,14,15
 665 214 665 214 723.5 264.5 c 128,-1,16
 782 315 782 315 782 424.5 c 128,-1,17
 782 534 782 534 712 598 c 0,18,19
 640 662 640 662 536 662 c 2,20,-1
 338 662 l 1,21,-1
 338 214 l 1,13,-1
338 876 m 1,22,-1
 420 876 l 2,23,24
 504 876 504 876 568 892.5 c 128,-1,25
 632 909 632 909 675 960 c 128,-1,26
 718 1011 718 1011 718 1089 c 128,-1,27
 718 1167 718 1167 668 1212.5 c 128,-1,28
 618 1258 618 1258 530 1258 c 2,29,-1
 338 1258 l 1,30,-1
 338 876 l 1,22,-1
EndSplineSet
EndChar

StartChar: Gamma
Encoding: 915 915 315
Width: 1120
Flags: W
HStem: 0 21G<125 349> 1258 214<349 995>
VStem: 125 224<0 1258>
LayerCount: 2
Fore
SplineSet
125 0 m 1,0,-1
 125 1472 l 1,1,-1
 995 1472 l 1,2,-1
 995 1258 l 1,3,-1
 349 1258 l 1,4,-1
 349 0 l 1,5,-1
 125 0 l 1,0,-1
EndSplineSet
EndChar

StartChar: uni0394
Encoding: 916 916 316
Width: 1120
Flags: W
HStem: 0 172<288 832> 1130 342<266 854>
DStem2: -3 0 288 172 0.286392 0.958112<248.136 1243.91>
LayerCount: 2
Fore
SplineSet
-3 0 m 1,0,-1
 435 1464 l 1,1,-1
 437 1472 l 1,2,-1
 683 1472 l 1,3,-1
 1123 0 l 1,4,-1
 -3 0 l 1,0,-1
288 172 m 1,5,-1
 832 172 l 1,6,-1
 560 1130 l 1,7,-1
 288 172 l 1,5,-1
EndSplineSet
EndChar

StartChar: Epsilon
Encoding: 917 917 317
Width: 1120
Flags: W
HStem: 0 214<362 982> 647 214<362 798> 1258 214<362 966>
VStem: 138 224<214 647 861 1258>
LayerCount: 2
Fore
SplineSet
138 0 m 1,0,-1
 138 1472 l 1,1,-1
 966 1472 l 1,2,-1
 966 1258 l 1,3,-1
 362 1258 l 1,4,-1
 362 861 l 1,5,-1
 798 861 l 1,6,-1
 798 647 l 1,7,-1
 362 647 l 1,8,-1
 362 214 l 1,9,-1
 982 214 l 1,10,-1
 982 0 l 1,11,-1
 138 0 l 1,0,-1
EndSplineSet
EndChar

StartChar: Zeta
Encoding: 918 918 318
Width: 1120
Flags: W
HStem: 0 214<386 1011> 1258 214<131 693>
DStem2: 112 152 386 214 0.465054 0.885283<182.312 1249.32>
LayerCount: 2
Fore
SplineSet
112 143 m 1,0,-1
 112 152 l 1,1,-1
 693 1258 l 1,2,-1
 131 1258 l 1,3,-1
 131 1472 l 1,4,-1
 962 1472 l 1,5,-1
 962 1319 l 1,6,-1
 386 214 l 1,7,-1
 1011 214 l 1,8,-1
 1011 0 l 1,9,-1
 109 0 l 1,10,-1
 109 11 l 1,11,-1
 110 41 l 1,12,-1
 112 143 l 1,0,-1
EndSplineSet
EndChar

StartChar: Eta
Encoding: 919 919 319
Width: 1120
Flags: W
HStem: 0 21G<125 349 771 995> 655 214<349 771> 1452 20G<125 349 771 995>
VStem: 125 224<0 655 869 1472> 771 224<0 655 869 1472>
LayerCount: 2
Fore
SplineSet
125 0 m 1,0,-1
 125 1472 l 1,1,-1
 349 1472 l 1,2,-1
 349 869 l 1,3,-1
 771 869 l 1,4,-1
 771 1472 l 1,5,-1
 995 1472 l 1,6,-1
 995 0 l 1,7,-1
 771 0 l 1,8,-1
 771 655 l 1,9,-1
 349 655 l 1,10,-1
 349 0 l 1,11,-1
 125 0 l 1,0,-1
EndSplineSet
EndChar

StartChar: Theta
Encoding: 920 920 320
Width: 1120
Flags: W
HStem: -23 214<421.315 698.813> 636 192<300.5 819.5> 1282 214<419.186 698.623>
VStem: 74.5 226<347.36 636 828 1114.35> 819.5 226<356.694 636 828 1114.84>
LayerCount: 2
Fore
SplineSet
74.5 742 m 128,-1,1
 74.5 1037 74.5 1037 131.5 1191 c 0,2,3
 240.5 1496 240.5 1496 560.5 1496 c 0,4,5
 787.5 1496 787.5 1496 909.5 1349 c 0,6,7
 1045.5 1180 1045.5 1180 1045.5 720 c 0,8,9
 1045.5 411 1045.5 411 964.5 217 c 0,10,11
 892.284179688 41.619140625 892.284179688 41.619140625 690.5 -8 c 0,12,13
 630.5 -23 630.5 -23 562.5 -23 c 0,14,15
 234.5 -23 234.5 -23 128.5 289 c 0,16,0
 74.5 447 74.5 447 74.5 742 c 128,-1,1
300.5 636 m 1,17,18
 311.5 363 311.5 363 380.5 277 c 128,-1,19
 449.5 191 449.5 191 548.5 191 c 128,-1,20
 647.5 191 647.5 191 697.5 232 c 0,21,22
 805.5 316 805.5 316 819.5 636 c 1,23,-1
 300.5 636 l 1,17,18
300.5 828 m 1,24,-1
 819.5 828 l 1,25,26
 810.5 1037 810.5 1037 759.5 1159.5 c 128,-1,27
 708.5 1282 708.5 1282 542.5 1282 c 0,28,29
 456.5 1282 456.5 1282 404.5 1227 c 0,30,31
 314.5 1130 314.5 1130 300.5 828 c 1,24,-1
EndSplineSet
EndChar

StartChar: Iota
Encoding: 921 921 321
Width: 1120
Flags: W
HStem: 0 214<251.5 447.5 671.5 868.5> 1258 214<251.5 447.5 671.5 868.5>
VStem: 251.5 617<0 214 1258 1472>
LayerCount: 2
Fore
SplineSet
251.5 0 m 1,0,-1
 251.5 214 l 1,1,-1
 447.5 214 l 1,2,-1
 447.5 1258 l 1,3,-1
 251.5 1258 l 1,4,-1
 251.5 1472 l 1,5,-1
 868.5 1472 l 1,6,-1
 868.5 1258 l 1,7,-1
 671.5 1258 l 1,8,-1
 671.5 214 l 1,9,-1
 868.5 214 l 1,10,-1
 868.5 0 l 1,11,-1
 251.5 0 l 1,0,-1
EndSplineSet
EndChar

StartChar: Kappa
Encoding: 922 922 322
Width: 1120
Flags: W
HStem: 0 21G<51 275 767.311 1069> 1452 20G<51 275 702 983>
VStem: 51 224<0 610 961 1472> 784 285<0 285>
DStem2: 275 961 387 789 0.657489 0.753464<0 667.74>
LayerCount: 2
Fore
SplineSet
51 0 m 1,0,-1
 51 1472 l 1,1,-1
 275 1472 l 1,2,-1
 275 961 l 1,3,-1
 692 1457 l 1,4,-1
 702 1468 l 1,5,-1
 705 1472 l 1,6,-1
 983 1472 l 1,7,-1
 387 789 l 1,8,-1
 1069 0 l 1,9,-1
 784 0 l 1,10,-1
 275 610 l 1,11,-1
 275 0 l 1,12,-1
 51 0 l 1,0,-1
EndSplineSet
EndChar

StartChar: Lambda
Encoding: 923 923 323
Width: 1120
Flags: W
HStem: 0 21G<-3 229 887.317 1123> 1452 20G<435 688.978>
VStem: 893 230<0 230>
LayerCount: 2
Fore
SplineSet
-3 0 m 1,0,-1
 435 1464 l 1,1,-1
 437 1472 l 1,2,-1
 683 1472 l 1,3,-1
 1123 0 l 1,4,-1
 893 0 l 1,5,-1
 560 1172 l 1,6,-1
 236 31 l 1,7,-1
 229 8 l 1,8,-1
 227 0 l 1,9,-1
 -3 0 l 1,0,-1
EndSplineSet
EndChar

StartChar: Mu
Encoding: 924 924 324
Width: 1120
Flags: W
HStem: 0 21G<84 308 812 1036> 1452 20G<84 305.462 814.603 1036>
VStem: 84 224<0 955> 812 224<0 956>
LayerCount: 2
Fore
SplineSet
84 0 m 1,0,-1
 84 1472 l 1,1,-1
 297 1472 l 1,2,-1
 561 848 l 1,3,-1
 823 1472 l 1,4,-1
 1036 1472 l 1,5,-1
 1036 0 l 1,6,-1
 812 0 l 1,7,-1
 812 956 l 1,8,-1
 625 511 l 1,9,-1
 495 511 l 1,10,-1
 308 955 l 1,11,-1
 308 0 l 1,12,-1
 84 0 l 1,0,-1
EndSplineSet
EndChar

StartChar: Nu
Encoding: 925 925 325
Width: 1120
Flags: W
HStem: 0 21G<139 363 771.807 981> 1452 20G<139 386.142 757 981>
VStem: 139 224<0 1003> 757 224<541 1472>
DStem2: 378 1472 363 1003 0.379058 -0.925373<428.314 1005.19>
LayerCount: 2
Fore
SplineSet
139 0 m 1,0,-1
 139 1472 l 1,1,-1
 378 1472 l 1,2,-1
 757 541 l 1,3,-1
 757 1472 l 1,4,-1
 981 1472 l 1,5,-1
 981 -15 l 1,6,-1
 780 -15 l 1,7,-1
 363 1003 l 1,8,-1
 363 0 l 1,9,-1
 139 0 l 1,0,-1
EndSplineSet
EndChar

StartChar: Xi
Encoding: 926 926 326
Width: 1120
Flags: W
HStem: 0 214<74 1046> 655 212<121 1000> 1258 214<91 1029>
LayerCount: 2
Fore
SplineSet
74 0 m 1,0,-1
 74 214 l 1,1,-1
 1046 214 l 1,2,-1
 1046 0 l 1,3,-1
 74 0 l 1,0,-1
91 1258 m 1,4,-1
 91 1472 l 1,5,-1
 1029 1472 l 1,6,-1
 1029 1258 l 1,7,-1
 91 1258 l 1,4,-1
121 655 m 1,8,-1
 121 867 l 1,9,-1
 1000 867 l 1,10,-1
 1000 655 l 1,11,-1
 121 655 l 1,8,-1
EndSplineSet
EndChar

StartChar: Omicron
Encoding: 927 927 327
Width: 1120
Flags: W
HStem: -23 214<420.438 700.98> 1282 214<420.188 701.022>
VStem: 74.4883 224<362.578 1112.72> 822.488 223.023<357.11 1111.27>
LayerCount: 2
Fore
SplineSet
228.48828125 106 m 0,0,1
 74.48828125 270 74.48828125 270 74.48828125 774.5 c 0,2,3
 74.48828125 1288.7890625 74.48828125 1288.7890625 304.48828125 1428 c 0,4,5
 416.48828125 1496 416.48828125 1496 574.98828125 1496 c 128,-1,6
 733.48828125 1496 733.48828125 1496 846.48828125 1406 c 128,-1,7
 959.48828125 1316 959.48828125 1316 1002.5 1153.85253906 c 128,-1,8
 1045.51171875 991.704101562 1045.51171875 991.704101562 1045.51171875 713.026367188 c 0,9,10
 1045.51171875 706.545898438 1045.51171875 706.545898438 1045.48828125 700 c 0,11,12
 1045.48828125 410 1045.48828125 410 966.48828125 216 c 0,13,14
 918.48828125 100 918.48828125 100 806.48828125 38.5 c 128,-1,15
 694.48828125 -23 694.48828125 -23 560.48828125 -23 c 0,16,17
 351.48828125 -23 351.48828125 -23 228.48828125 106 c 0,0,1
298.48828125 750 m 0,18,19
 298.48828125 457 298.48828125 457 360.48828125 310 c 0,20,21
 383.48828125 256 383.48828125 256 436.98828125 223.5 c 128,-1,22
 490.48828125 191 490.48828125 191 568.48828125 191 c 0,23,24
 727.48828125 191 727.48828125 191 782.48828125 368 c 0,25,26
 822.48828125 496 822.48828125 496 822.48828125 755 c 128,-1,27
 822.48828125 1014 822.48828125 1014 758.48828125 1167 c 0,28,29
 737.48828125 1217 737.48828125 1217 683.98828125 1249.5 c 128,-1,30
 630.48828125 1282 630.48828125 1282 548.48828125 1282 c 128,-1,31
 466.48828125 1282 466.48828125 1282 407.48828125 1227 c 0,32,33
 298.48828125 1124 298.48828125 1124 298.48828125 750 c 0,18,19
EndSplineSet
EndChar

StartChar: Pi
Encoding: 928 928 328
Width: 1120
Flags: W
HStem: 0 21G<60 284 836 1060> 1258 214<284 836>
VStem: 60 224<0 1258> 836 224<0 1258>
LayerCount: 2
Fore
SplineSet
60 0 m 1,0,-1
 60 1472 l 1,1,-1
 1060 1472 l 1,2,-1
 1060 0 l 1,3,-1
 836 0 l 1,4,-1
 836 1258 l 1,5,-1
 284 1258 l 1,6,-1
 284 0 l 1,7,-1
 60 0 l 1,0,-1
EndSplineSet
EndChar

StartChar: Rho
Encoding: 929 929 329
Width: 1120
Flags: W
HStem: 0 21G<139 363> 536 214<363 682.055> 1258 214<363 676.896>
VStem: 139 224<0 536 750 1258> 757 224<823.175 1177.96>
LayerCount: 2
Fore
SplineSet
139 0 m 1,0,-1
 139 1472 l 1,1,-1
 511 1472 l 2,2,3
 736 1472 736 1472 858.5 1352 c 128,-1,4
 981 1232 981 1232 981 1007 c 128,-1,5
 981 782 981 782 849 652 c 0,6,7
 728 536 728 536 471 536 c 2,8,-1
 363 536 l 1,9,-1
 363 0 l 1,10,-1
 139 0 l 1,0,-1
363 750 m 1,11,-1
 460 750 l 2,12,13
 589 750 589 750 655 778 c 0,14,15
 757 821 757 821 757 1001 c 0,16,17
 757 1135 757 1135 697 1196.5 c 128,-1,18
 637 1258 637 1258 533 1258 c 2,19,-1
 363 1258 l 1,20,-1
 363 750 l 1,11,-1
EndSplineSet
EndChar

StartChar: Sigma
Encoding: 931 931 330
Width: 1120
Flags: W
HStem: 0 214<387 1044> 1258 214<390 1044>
DStem2: 76 162 387 214 0.638107 0.769948<238.489 758.493> 390 1258 79 1307 0.650903 -0.759161<0 499.344>
LayerCount: 2
Fore
SplineSet
76 0 m 1,0,-1
 76 162 l 1,1,-1
 560 746 l 1,2,-1
 79 1307 l 1,3,-1
 76 1310 l 1,4,-1
 76 1472 l 1,5,-1
 1044 1472 l 1,6,-1
 1044 1258 l 1,7,-1
 390 1258 l 1,8,-1
 840 748 l 1,9,-1
 387 214 l 1,10,-1
 1044 214 l 1,11,-1
 1044 0 l 1,12,-1
 76 0 l 1,0,-1
EndSplineSet
EndChar

StartChar: Tau
Encoding: 932 932 331
Width: 1120
Flags: W
HStem: 0 21G<448 672> 1258 214<46 448 672 1074>
VStem: 448 224<0 1258>
LayerCount: 2
Fore
SplineSet
46 1258 m 1,0,-1
 46 1472 l 1,1,-1
 1074 1472 l 1,2,-1
 1074 1258 l 1,3,-1
 672 1258 l 1,4,-1
 672 0 l 1,5,-1
 448 0 l 1,6,-1
 448 1258 l 1,7,-1
 46 1258 l 1,0,-1
EndSplineSet
EndChar

StartChar: Upsilon
Encoding: 933 933 332
Width: 1120
Flags: W
HStem: 0 21G<456 680> 1452 20G<62 312.661 806.769 1058>
VStem: 456 224<0 624>
DStem2: 304 1472 62 1472 0.421363 -0.906892<0 659.067> 566 867 682 627 0.40654 0.913633<0 653.976>
LayerCount: 2
Fore
SplineSet
62 1472 m 1,0,-1
 304 1472 l 1,1,-1
 566 867 l 1,2,-1
 815 1472 l 1,3,-1
 1058 1472 l 1,4,-1
 682 627 l 1,5,-1
 680 42 l 1,6,-1
 680 0 l 1,7,-1
 456 0 l 1,8,-1
 456 624 l 1,9,-1
 62 1472 l 1,0,-1
EndSplineSet
EndChar

StartChar: Phi
Encoding: 934 934 333
Width: 1120
Flags: W
HStem: 1482 20G<448 672>
VStem: 74 224<425.209 1054.85> 448 224<-30 138.979 321 1158 1338.78 1502> 822 224<428.914 1049.5>
CounterMasks: 1 70
LayerCount: 2
Fore
SplineSet
74 736 m 0,0,1
 74 1094 74 1094 211 1234 c 0,2,3
 294 1321 294 1321 448 1346 c 1,4,-1
 448 1502 l 1,5,-1
 672 1502 l 1,6,-1
 672 1347 l 1,7,8
 768 1331 768 1331 830 1295 c 0,9,10
 1046 1174 1046 1174 1046 762 c 0,11,12
 1046 566 1046 566 1013.5 438 c 128,-1,13
 981 310 981 310 894.5 231 c 128,-1,14
 808 152 808 152 672 131 c 1,15,-1
 672 -30 l 1,16,-1
 448 -30 l 1,17,-1
 448 131 l 1,18,19
 176 173 176 173 104 450 c 0,20,21
 74 565 74 565 74 736 c 0,0,1
359 1088 m 0,22,23
 298 981 298 981 298 719 c 128,-1,24
 298 457 298 457 379 365 c 0,25,26
 404 337 404 337 448 321 c 1,27,-1
 448 1158 l 1,28,29
 386 1135 386 1135 359 1088 c 0,22,23
672 320 m 1,30,31
 705 331 705 331 732.5 354 c 128,-1,32
 760 377 760 377 791 462 c 128,-1,33
 822 547 822 547 822 723 c 0,34,35
 822 1058 822 1058 721 1132 c 0,36,37
 701 1147 701 1147 672 1158 c 1,38,-1
 672 320 l 1,30,31
EndSplineSet
EndChar

StartChar: Chi
Encoding: 935 935 334
Width: 1120
Flags: W
HStem: 0 21G<82 338.88 780.158 1038> 1452 20G<82 339.02 787 1038>
DStem2: 330 1472 82 1472 0.43295 -0.901418<0 559.302 959.531 1525.61> 82 0 330 0 0.433447 0.901179<107.495 107.495 1074.12 1633.42>
LayerCount: 2
Fore
SplineSet
82 0 m 1,0,-1
 436 742 l 1,1,-1
 82 1472 l 1,2,-1
 330 1472 l 1,3,-1
 560 962 l 1,4,-1
 787 1466 l 1,5,-1
 790 1472 l 1,6,-1
 1038 1472 l 1,7,-1
 684 742 l 1,8,-1
 1030 15 l 1,9,-1
 1038 0 l 1,10,-1
 789 0 l 1,11,-1
 560 518 l 1,12,-1
 330 0 l 1,13,-1
 82 0 l 1,0,-1
EndSplineSet
EndChar

StartChar: Psi
Encoding: 936 936 335
Width: 1120
Flags: W
HStem: 1 21G<448 672> 406 153<672 780.588> 1452 20G<46 269 448 672 850 1074>
VStem: 46 223<635.512 1472> 448 224<1 409.626 560 1472> 850 224<640.543 1472>
LayerCount: 2
Fore
SplineSet
46 840 m 2,0,-1
 46 1472 l 1,1,-1
 269 1472 l 1,2,-1
 269 848 l 2,3,4
 269 693 269 693 313.5 635.5 c 128,-1,5
 358 578 358 578 448 560 c 1,6,-1
 448 1472 l 1,7,-1
 672 1472 l 1,8,-1
 672 559 l 1,9,10
 756 572 756 572 789 611 c 0,11,12
 850 682 850 682 850 836 c 2,13,-1
 850 1472 l 1,14,-1
 1074 1472 l 1,15,-1
 1074 889 l 2,16,17
 1074 656 1074 656 960 532 c 0,18,19
 904 470 904 470 837.5 444 c 128,-1,20
 771 418 771 418 672 406 c 1,21,-1
 672 1 l 1,22,-1
 448 1 l 1,23,-1
 448 404 l 1,24,25
 342 415 342 415 283 443 c 0,26,27
 145 506 145 506 82 653 c 0,28,29
 46 741 46 741 46 840 c 2,0,-1
EndSplineSet
EndChar

StartChar: uni03A9
Encoding: 937 937 336
Width: 1120
Flags: W
HStem: 0 214<44 217 898 1076> 1282 214<450.715 675.127>
VStem: 68 223.987<408.833 1037.18> 830 224<404.176 1044.62>
LayerCount: 2
Fore
SplineSet
44 0 m 1,0,-1
 44 214 l 1,1,-1
 217 214 l 1,2,3
 68 389 68 389 68 740.5 c 128,-1,4
 68 1092 68 1092 201 1294 c 128,-1,5
 334 1496 334 1496 558 1496 c 0,6,7
 816 1496 816 1496 952 1243 c 0,8,9
 1053 1053 1053 1053 1054 735 c 0,10,11
 1054 503 1054 503 989 349 c 0,12,13
 959 279 959 279 898 214 c 1,14,-1
 1076 214 l 1,15,-1
 1076 0 l 1,16,-1
 44 0 l 1,0,-1
291.987012987 687.201551695 m 0,17,18
 291.987012987 683.61038961 291.987012987 683.61038961 292 680 c 0,19,20
 292 403 292 403 392 269 c 0,21,22
 433 214 433 214 560 111 c 1,23,24
 647 178 647 178 682 211 c 128,-1,25
 717 244 717 244 743 285 c 0,26,27
 830 414 830 414 830 702 c 128,-1,28
 830 990 830 990 742 1152 c 0,29,30
 691 1246 691 1246 625 1272 c 0,31,32
 598 1282 598 1282 560 1282 c 0,33,34
 442 1282 442 1282 366.993506494 1121.06493506 c 128,-1,35
 291.987012987 960.12987013 291.987012987 960.12987013 291.987012987 687.201551695 c 0,17,18
EndSplineSet
EndChar

StartChar: Iotadieresis
Encoding: 938 938 337
Width: 1120
Flags: W
HStem: 0 192<262.5 460.5 662.5 857.5> 1280 192<262.5 460.5 662.5 857.5> 1513 268<318.723 504.277 616.723 802.277>
VStem: 262.5 595<0 192 1280 1472> 278.5 266<1554.25 1740.78> 576.5 266<1554.25 1740.78>
LayerCount: 2
Fore
SplineSet
262.5 0 m 1,0,-1
 262.5 192 l 1,1,-1
 460.5 192 l 1,2,-1
 460.5 1280 l 1,3,-1
 262.5 1280 l 1,4,-1
 262.5 1472 l 1,5,-1
 857.5 1472 l 1,6,-1
 857.5 1280 l 1,7,-1
 662.5 1280 l 1,8,-1
 662.5 192 l 1,9,-1
 857.5 192 l 1,10,-1
 857.5 0 l 1,11,-1
 262.5 0 l 1,0,-1
278.5 1648 m 128,-1,13
 278.5 1703 278.5 1703 317.5 1742 c 128,-1,14
 356.5 1781 356.5 1781 412.5 1781 c 128,-1,15
 468.5 1781 468.5 1781 506.5 1742 c 128,-1,16
 544.5 1703 544.5 1703 544.5 1648 c 128,-1,17
 544.5 1593 544.5 1593 505.5 1553 c 128,-1,18
 466.5 1513 466.5 1513 411.5 1513 c 128,-1,19
 356.5 1513 356.5 1513 317.5 1553 c 128,-1,12
 278.5 1593 278.5 1593 278.5 1648 c 128,-1,13
576.5 1648.5 m 128,-1,21
 576.5 1704 576.5 1704 615.5 1742.5 c 128,-1,22
 654.5 1781 654.5 1781 710.5 1781 c 128,-1,23
 766.5 1781 766.5 1781 804.5 1742 c 128,-1,24
 842.5 1703 842.5 1703 842.5 1648 c 128,-1,25
 842.5 1593 842.5 1593 803.5 1553 c 128,-1,26
 764.5 1513 764.5 1513 709.5 1513 c 128,-1,27
 654.5 1513 654.5 1513 615.5 1553 c 128,-1,20
 576.5 1593 576.5 1593 576.5 1648.5 c 128,-1,21
EndSplineSet
EndChar

StartChar: Upsilondieresis
Encoding: 939 939 338
Width: 1120
Flags: W
HStem: 0 21G<466 668> 1452 20G<78 304.682 813.768 1042> 1513 268<319.254 505.538 616.223 801.777>
VStem: 278 267.506<1554.25 1740.78> 466 202<0 625> 576 266<1554.25 1740.78>
DStem2: 296 1472 78 1472 0.41647 -0.90915<0 677.938> 566 850 670 628 0.40332 0.915059<0 672.417>
LayerCount: 2
Fore
SplineSet
78 1472 m 1,0,-1
 296 1472 l 1,1,-1
 566 850 l 1,2,-1
 822 1472 l 1,3,-1
 1042 1472 l 1,4,-1
 670 628 l 1,5,-1
 668 31 l 1,6,-1
 668 0 l 1,7,-1
 466 0 l 1,8,-1
 466 625 l 1,9,-1
 78 1472 l 1,0,-1
278 1648 m 128,-1,11
 278 1703 278 1703 318 1742 c 128,-1,12
 358 1781 358 1781 413 1781 c 128,-1,13
 468 1781 468 1781 506.753164557 1742.24683544 c 128,-1,14
 545.506329114 1703.49367089 545.506329114 1703.49367089 545.506329114 1648.50320461 c 128,-1,15
 545.506329114 1593.51273834 545.506329114 1593.51273834 505.753164557 1553.25636917 c 128,-1,16
 466 1513 466 1513 411 1513 c 128,-1,17
 356 1513 356 1513 317 1553 c 128,-1,10
 278 1593 278 1593 278 1648 c 128,-1,11
576 1648 m 128,-1,19
 576 1703 576 1703 615 1742 c 128,-1,20
 654 1781 654 1781 710 1781 c 128,-1,21
 766 1781 766 1781 804 1742 c 128,-1,22
 842 1703 842 1703 842 1648 c 128,-1,23
 842 1593 842 1593 803 1553 c 128,-1,24
 764 1513 764 1513 709 1513 c 128,-1,25
 654 1513 654 1513 615 1553 c 128,-1,18
 576 1593 576 1593 576 1648 c 128,-1,19
EndSplineSet
EndChar

